%TF.GenerationSoftware,KiCad,Pcbnew,9.0.2*%
%TF.CreationDate,2026-05-05T14:50:54+02:00*%
%TF.ProjectId,czujnik_external,637a756a-6e69-46b5-9f65-787465726e61,rev?*%
%TF.SameCoordinates,Original*%
%TF.FileFunction,Copper,L1,Top*%
%TF.FilePolarity,Positive*%
%FSLAX46Y46*%
G04 Gerber Fmt 4.6, Leading zero omitted, Abs format (unit mm)*
G04 Created by KiCad (PCBNEW 9.0.2) date 2026-05-05 14:50:54*
%MOMM*%
%LPD*%
G01*
G04 APERTURE LIST*
%TA.AperFunction,ComponentPad*%
%ADD10R,1.600000X1.600000*%
%TD*%
%TA.AperFunction,ComponentPad*%
%ADD11C,1.600000*%
%TD*%
%TA.AperFunction,ComponentPad*%
%ADD12R,1.700000X1.700000*%
%TD*%
%TA.AperFunction,ComponentPad*%
%ADD13C,1.700000*%
%TD*%
%TA.AperFunction,Conductor*%
%ADD14C,0.200000*%
%TD*%
G04 APERTURE END LIST*
D10*
%TO.P,J1,1,1*%
%TO.N,GND*%
X169389669Y-87960000D03*
D11*
%TO.P,J1,2,2*%
%TO.N,Net-(J2-Pin_4)*%
X169389669Y-90730000D03*
%TO.P,J1,3,3*%
%TO.N,Net-(J2-Pin_3)*%
X169389669Y-93500000D03*
%TO.P,J1,4,4*%
%TO.N,DHT22_D*%
X169389669Y-96270000D03*
%TO.P,J1,5,5*%
%TO.N,+5V*%
X169389669Y-99040000D03*
%TO.P,J1,6,6*%
%TO.N,unconnected-(J1-Pad6)*%
X171929669Y-89345000D03*
%TO.P,J1,7,7*%
%TO.N,unconnected-(J1-Pad7)*%
X171929669Y-92115000D03*
%TO.P,J1,8,8*%
%TO.N,unconnected-(J1-Pad8)*%
X171929669Y-94885000D03*
%TO.P,J1,9,9*%
%TO.N,unconnected-(J1-Pad9)*%
X171929669Y-97655000D03*
%TD*%
D12*
%TO.P,J2,1,Pin_1*%
%TO.N,+5V*%
X139500000Y-91000000D03*
D13*
%TO.P,J2,2,Pin_2*%
%TO.N,GND*%
X139500000Y-88460000D03*
%TO.P,J2,3,Pin_3*%
%TO.N,Net-(J2-Pin_3)*%
X139500000Y-85920000D03*
%TO.P,J2,4,Pin_4*%
%TO.N,Net-(J2-Pin_4)*%
X139500000Y-83380000D03*
%TD*%
D12*
%TO.P,J3,1,Pin_1*%
%TO.N,+5V*%
X139525000Y-98420000D03*
D13*
%TO.P,J3,2,Pin_2*%
%TO.N,DHT22_D*%
X139525000Y-100960000D03*
%TO.P,J3,3,Pin_3*%
%TO.N,GND*%
X139525000Y-103500000D03*
%TD*%
D14*
%TO.N,Net-(J2-Pin_3)*%
X140330000Y-86750000D02*
X139500000Y-85920000D01*
X162639669Y-86750000D02*
X140330000Y-86750000D01*
X169389669Y-93500000D02*
X162639669Y-86750000D01*
%TO.N,Net-(J2-Pin_4)*%
X163250000Y-85750000D02*
X141870000Y-85750000D01*
X168230000Y-90730000D02*
X163250000Y-85750000D01*
X169389669Y-90730000D02*
X168230000Y-90730000D01*
X141870000Y-85750000D02*
X139500000Y-83380000D01*
%TO.N,DHT22_D*%
X163290000Y-100960000D02*
X139525000Y-100960000D01*
X167980000Y-96270000D02*
X163290000Y-100960000D01*
X169389669Y-96270000D02*
X167980000Y-96270000D01*
%TD*%
%TA.AperFunction,Conductor*%
%TO.N,GND*%
G36*
X179942539Y-79020185D02*
G01*
X179988294Y-79072989D01*
X179999500Y-79124500D01*
X179999500Y-107875500D01*
X179979815Y-107942539D01*
X179927011Y-107988294D01*
X179875500Y-107999500D01*
X131124500Y-107999500D01*
X131057461Y-107979815D01*
X131011706Y-107927011D01*
X131000500Y-107875500D01*
X131000500Y-104893713D01*
X132649500Y-104893713D01*
X132649500Y-105106286D01*
X132682753Y-105316239D01*
X132748444Y-105518414D01*
X132844951Y-105707820D01*
X132969890Y-105879786D01*
X133120213Y-106030109D01*
X133292179Y-106155048D01*
X133292181Y-106155049D01*
X133292184Y-106155051D01*
X133481588Y-106251557D01*
X133683757Y-106317246D01*
X133893713Y-106350500D01*
X133893714Y-106350500D01*
X134106286Y-106350500D01*
X134106287Y-106350500D01*
X134316243Y-106317246D01*
X134518412Y-106251557D01*
X134707816Y-106155051D01*
X134729789Y-106139086D01*
X134879786Y-106030109D01*
X134879788Y-106030106D01*
X134879792Y-106030104D01*
X135030104Y-105879792D01*
X135030106Y-105879788D01*
X135030109Y-105879786D01*
X135155048Y-105707820D01*
X135155047Y-105707820D01*
X135155051Y-105707816D01*
X135251557Y-105518412D01*
X135317246Y-105316243D01*
X135350500Y-105106287D01*
X135350500Y-104893713D01*
X175649500Y-104893713D01*
X175649500Y-105106286D01*
X175682753Y-105316239D01*
X175748444Y-105518414D01*
X175844951Y-105707820D01*
X175969890Y-105879786D01*
X176120213Y-106030109D01*
X176292179Y-106155048D01*
X176292181Y-106155049D01*
X176292184Y-106155051D01*
X176481588Y-106251557D01*
X176683757Y-106317246D01*
X176893713Y-106350500D01*
X176893714Y-106350500D01*
X177106286Y-106350500D01*
X177106287Y-106350500D01*
X177316243Y-106317246D01*
X177518412Y-106251557D01*
X177707816Y-106155051D01*
X177729789Y-106139086D01*
X177879786Y-106030109D01*
X177879788Y-106030106D01*
X177879792Y-106030104D01*
X178030104Y-105879792D01*
X178030106Y-105879788D01*
X178030109Y-105879786D01*
X178155048Y-105707820D01*
X178155047Y-105707820D01*
X178155051Y-105707816D01*
X178251557Y-105518412D01*
X178317246Y-105316243D01*
X178350500Y-105106287D01*
X178350500Y-104893713D01*
X178317246Y-104683757D01*
X178251557Y-104481588D01*
X178155051Y-104292184D01*
X178155049Y-104292181D01*
X178155048Y-104292179D01*
X178030109Y-104120213D01*
X177879786Y-103969890D01*
X177707820Y-103844951D01*
X177518414Y-103748444D01*
X177518413Y-103748443D01*
X177518412Y-103748443D01*
X177316243Y-103682754D01*
X177316241Y-103682753D01*
X177316240Y-103682753D01*
X177154957Y-103657208D01*
X177106287Y-103649500D01*
X176893713Y-103649500D01*
X176845042Y-103657208D01*
X176683760Y-103682753D01*
X176481585Y-103748444D01*
X176292179Y-103844951D01*
X176120213Y-103969890D01*
X175969890Y-104120213D01*
X175844951Y-104292179D01*
X175748444Y-104481585D01*
X175682753Y-104683760D01*
X175649500Y-104893713D01*
X135350500Y-104893713D01*
X135317246Y-104683757D01*
X135251557Y-104481588D01*
X135251555Y-104481585D01*
X135251555Y-104481583D01*
X135155048Y-104292179D01*
X135030109Y-104120213D01*
X134879786Y-103969890D01*
X134707820Y-103844951D01*
X134518414Y-103748444D01*
X134518413Y-103748443D01*
X134518412Y-103748443D01*
X134316243Y-103682754D01*
X134316241Y-103682753D01*
X134316240Y-103682753D01*
X134154957Y-103657208D01*
X134106287Y-103649500D01*
X133893713Y-103649500D01*
X133845042Y-103657208D01*
X133683760Y-103682753D01*
X133481585Y-103748444D01*
X133292179Y-103844951D01*
X133120213Y-103969890D01*
X132969890Y-104120213D01*
X132844951Y-104292179D01*
X132748444Y-104481585D01*
X132682753Y-104683760D01*
X132649500Y-104893713D01*
X131000500Y-104893713D01*
X131000500Y-81893713D01*
X132649500Y-81893713D01*
X132649500Y-82106286D01*
X132682753Y-82316239D01*
X132748444Y-82518414D01*
X132844951Y-82707820D01*
X132969890Y-82879786D01*
X133120213Y-83030109D01*
X133292179Y-83155048D01*
X133292181Y-83155049D01*
X133292184Y-83155051D01*
X133481588Y-83251557D01*
X133683757Y-83317246D01*
X133893713Y-83350500D01*
X133893714Y-83350500D01*
X134106286Y-83350500D01*
X134106287Y-83350500D01*
X134316243Y-83317246D01*
X134450223Y-83273713D01*
X138149500Y-83273713D01*
X138149500Y-83486286D01*
X138182753Y-83696239D01*
X138182753Y-83696241D01*
X138182754Y-83696243D01*
X138237431Y-83864522D01*
X138248444Y-83898414D01*
X138344951Y-84087820D01*
X138469890Y-84259786D01*
X138620213Y-84410109D01*
X138792182Y-84535050D01*
X138800946Y-84539516D01*
X138851742Y-84587491D01*
X138868536Y-84655312D01*
X138845998Y-84721447D01*
X138800946Y-84760484D01*
X138792182Y-84764949D01*
X138620213Y-84889890D01*
X138469890Y-85040213D01*
X138344951Y-85212179D01*
X138248444Y-85401585D01*
X138182753Y-85603760D01*
X138149500Y-85813713D01*
X138149500Y-86026286D01*
X138182753Y-86236239D01*
X138248444Y-86438414D01*
X138344951Y-86627820D01*
X138469890Y-86799786D01*
X138620213Y-86950109D01*
X138792179Y-87075048D01*
X138792181Y-87075049D01*
X138792184Y-87075051D01*
X138801493Y-87079794D01*
X138852290Y-87127766D01*
X138869087Y-87195587D01*
X138846552Y-87261722D01*
X138801505Y-87300760D01*
X138792446Y-87305376D01*
X138792440Y-87305380D01*
X138738282Y-87344727D01*
X138738282Y-87344728D01*
X139370591Y-87977037D01*
X139307007Y-87994075D01*
X139192993Y-88059901D01*
X139099901Y-88152993D01*
X139034075Y-88267007D01*
X139017037Y-88330591D01*
X138384728Y-87698282D01*
X138384727Y-87698282D01*
X138345380Y-87752439D01*
X138248904Y-87941782D01*
X138183242Y-88143869D01*
X138183242Y-88143872D01*
X138150000Y-88353753D01*
X138150000Y-88566246D01*
X138183242Y-88776127D01*
X138183242Y-88776130D01*
X138248904Y-88978217D01*
X138345375Y-89167550D01*
X138384728Y-89221716D01*
X139017037Y-88589408D01*
X139034075Y-88652993D01*
X139099901Y-88767007D01*
X139192993Y-88860099D01*
X139307007Y-88925925D01*
X139370590Y-88942962D01*
X138700370Y-89613181D01*
X138639047Y-89646666D01*
X138612698Y-89649500D01*
X138602134Y-89649500D01*
X138602123Y-89649501D01*
X138542516Y-89655908D01*
X138407671Y-89706202D01*
X138407664Y-89706206D01*
X138292455Y-89792452D01*
X138292452Y-89792455D01*
X138206206Y-89907664D01*
X138206202Y-89907671D01*
X138155908Y-90042517D01*
X138149501Y-90102116D01*
X138149501Y-90102123D01*
X138149500Y-90102135D01*
X138149500Y-91897870D01*
X138149501Y-91897876D01*
X138155908Y-91957483D01*
X138206202Y-92092328D01*
X138206206Y-92092335D01*
X138292452Y-92207544D01*
X138292455Y-92207547D01*
X138407664Y-92293793D01*
X138407671Y-92293797D01*
X138542517Y-92344091D01*
X138542516Y-92344091D01*
X138549444Y-92344835D01*
X138602127Y-92350500D01*
X140397872Y-92350499D01*
X140457483Y-92344091D01*
X140592331Y-92293796D01*
X140707546Y-92207546D01*
X140793796Y-92092331D01*
X140844091Y-91957483D01*
X140850500Y-91897873D01*
X140850499Y-90102128D01*
X140844091Y-90042517D01*
X140838159Y-90026613D01*
X140793797Y-89907671D01*
X140793793Y-89907664D01*
X140707547Y-89792455D01*
X140707544Y-89792452D01*
X140592335Y-89706206D01*
X140592328Y-89706202D01*
X140457482Y-89655908D01*
X140457483Y-89655908D01*
X140397883Y-89649501D01*
X140397881Y-89649500D01*
X140397873Y-89649500D01*
X140397865Y-89649500D01*
X140387309Y-89649500D01*
X140320270Y-89629815D01*
X140299628Y-89613181D01*
X139629408Y-88942962D01*
X139692993Y-88925925D01*
X139807007Y-88860099D01*
X139900099Y-88767007D01*
X139965925Y-88652993D01*
X139982962Y-88589408D01*
X140615270Y-89221717D01*
X140615270Y-89221716D01*
X140654622Y-89167554D01*
X140751095Y-88978217D01*
X140816757Y-88776130D01*
X140816757Y-88776127D01*
X140850000Y-88566246D01*
X140850000Y-88353753D01*
X140816757Y-88143872D01*
X140816757Y-88143869D01*
X140751095Y-87941782D01*
X140654624Y-87752449D01*
X140615270Y-87698282D01*
X140615269Y-87698282D01*
X139982962Y-88330590D01*
X139965925Y-88267007D01*
X139900099Y-88152993D01*
X139807007Y-88059901D01*
X139692993Y-87994075D01*
X139629408Y-87977037D01*
X140219627Y-87386819D01*
X140280950Y-87353334D01*
X140307308Y-87350500D01*
X162339572Y-87350500D01*
X162406611Y-87370185D01*
X162427253Y-87386819D01*
X168095590Y-93055157D01*
X168129075Y-93116480D01*
X168125842Y-93181149D01*
X168121192Y-93195460D01*
X168121192Y-93195462D01*
X168089169Y-93397648D01*
X168089169Y-93602351D01*
X168121191Y-93804534D01*
X168184450Y-93999223D01*
X168277384Y-94181613D01*
X168397697Y-94347213D01*
X168542455Y-94491971D01*
X168697418Y-94604556D01*
X168708059Y-94612287D01*
X168824276Y-94671503D01*
X168890445Y-94705218D01*
X168890447Y-94705218D01*
X168890450Y-94705220D01*
X168969625Y-94730945D01*
X169080800Y-94767069D01*
X169138475Y-94806507D01*
X169165673Y-94870866D01*
X169153758Y-94939712D01*
X169106514Y-94991188D01*
X169080800Y-95002931D01*
X168890445Y-95064781D01*
X168708055Y-95157715D01*
X168542455Y-95278028D01*
X168397697Y-95422786D01*
X168277384Y-95588385D01*
X168270552Y-95601795D01*
X168260102Y-95612859D01*
X168253780Y-95626703D01*
X168236600Y-95637743D01*
X168222578Y-95652591D01*
X168206896Y-95656832D01*
X168195002Y-95664477D01*
X168160067Y-95669500D01*
X168066670Y-95669500D01*
X168066654Y-95669499D01*
X168059058Y-95669499D01*
X167900943Y-95669499D01*
X167824579Y-95689961D01*
X167748214Y-95710423D01*
X167748209Y-95710426D01*
X167611290Y-95789475D01*
X167611282Y-95789481D01*
X163077584Y-100323181D01*
X163016261Y-100356666D01*
X162989903Y-100359500D01*
X140810719Y-100359500D01*
X140743680Y-100339815D01*
X140700235Y-100291795D01*
X140680052Y-100252185D01*
X140680051Y-100252184D01*
X140555109Y-100080213D01*
X140441569Y-99966673D01*
X140408084Y-99905350D01*
X140413068Y-99835658D01*
X140454940Y-99779725D01*
X140485915Y-99762810D01*
X140617331Y-99713796D01*
X140732546Y-99627546D01*
X140818796Y-99512331D01*
X140869091Y-99377483D01*
X140875500Y-99317873D01*
X140875499Y-97522128D01*
X140869091Y-97462517D01*
X140827298Y-97350465D01*
X140818797Y-97327671D01*
X140818793Y-97327664D01*
X140732547Y-97212455D01*
X140732544Y-97212452D01*
X140617335Y-97126206D01*
X140617328Y-97126202D01*
X140482482Y-97075908D01*
X140482483Y-97075908D01*
X140422883Y-97069501D01*
X140422881Y-97069500D01*
X140422873Y-97069500D01*
X140422864Y-97069500D01*
X138627129Y-97069500D01*
X138627123Y-97069501D01*
X138567516Y-97075908D01*
X138432671Y-97126202D01*
X138432664Y-97126206D01*
X138317455Y-97212452D01*
X138317452Y-97212455D01*
X138231206Y-97327664D01*
X138231202Y-97327671D01*
X138180908Y-97462517D01*
X138174501Y-97522116D01*
X138174501Y-97522123D01*
X138174500Y-97522135D01*
X138174500Y-99317870D01*
X138174501Y-99317876D01*
X138180908Y-99377483D01*
X138231202Y-99512328D01*
X138231206Y-99512335D01*
X138317452Y-99627544D01*
X138317455Y-99627547D01*
X138432664Y-99713793D01*
X138432671Y-99713797D01*
X138564082Y-99762810D01*
X138620016Y-99804681D01*
X138644433Y-99870145D01*
X138629582Y-99938418D01*
X138608431Y-99966673D01*
X138494889Y-100080215D01*
X138369951Y-100252179D01*
X138273444Y-100441585D01*
X138207753Y-100643760D01*
X138174500Y-100853713D01*
X138174500Y-101066287D01*
X138207754Y-101276243D01*
X138221486Y-101318507D01*
X138273444Y-101478414D01*
X138369951Y-101667820D01*
X138494890Y-101839786D01*
X138645213Y-101990109D01*
X138817179Y-102115048D01*
X138817181Y-102115049D01*
X138817184Y-102115051D01*
X138826493Y-102119794D01*
X138877290Y-102167766D01*
X138894087Y-102235587D01*
X138871552Y-102301722D01*
X138826505Y-102340760D01*
X138817446Y-102345376D01*
X138817440Y-102345380D01*
X138763282Y-102384727D01*
X138763282Y-102384728D01*
X139395591Y-103017037D01*
X139332007Y-103034075D01*
X139217993Y-103099901D01*
X139124901Y-103192993D01*
X139059075Y-103307007D01*
X139042037Y-103370591D01*
X138409728Y-102738282D01*
X138409727Y-102738282D01*
X138370380Y-102792439D01*
X138273904Y-102981782D01*
X138208242Y-103183869D01*
X138208242Y-103183872D01*
X138175000Y-103393753D01*
X138175000Y-103606246D01*
X138208242Y-103816127D01*
X138208242Y-103816130D01*
X138273904Y-104018217D01*
X138370375Y-104207550D01*
X138409728Y-104261716D01*
X139042037Y-103629408D01*
X139059075Y-103692993D01*
X139124901Y-103807007D01*
X139217993Y-103900099D01*
X139332007Y-103965925D01*
X139395590Y-103982962D01*
X138763282Y-104615269D01*
X138763282Y-104615270D01*
X138817449Y-104654624D01*
X139006782Y-104751095D01*
X139208870Y-104816757D01*
X139418754Y-104850000D01*
X139631246Y-104850000D01*
X139841127Y-104816757D01*
X139841130Y-104816757D01*
X139982234Y-104770910D01*
X140043217Y-104751095D01*
X140232554Y-104654622D01*
X140286716Y-104615270D01*
X140286717Y-104615270D01*
X139654408Y-103982962D01*
X139717993Y-103965925D01*
X139832007Y-103900099D01*
X139925099Y-103807007D01*
X139990925Y-103692993D01*
X140007962Y-103629408D01*
X140640270Y-104261717D01*
X140640270Y-104261716D01*
X140679622Y-104207554D01*
X140776095Y-104018217D01*
X140841757Y-103816130D01*
X140841757Y-103816127D01*
X140875000Y-103606246D01*
X140875000Y-103393753D01*
X140841757Y-103183872D01*
X140841757Y-103183869D01*
X140776095Y-102981782D01*
X140679624Y-102792449D01*
X140640270Y-102738282D01*
X140640269Y-102738282D01*
X140007962Y-103370590D01*
X139990925Y-103307007D01*
X139925099Y-103192993D01*
X139832007Y-103099901D01*
X139717993Y-103034075D01*
X139654409Y-103017037D01*
X140286716Y-102384728D01*
X140232547Y-102345373D01*
X140232547Y-102345372D01*
X140223500Y-102340763D01*
X140172706Y-102292788D01*
X140155912Y-102224966D01*
X140178451Y-102158832D01*
X140223508Y-102119793D01*
X140232816Y-102115051D01*
X140312007Y-102057515D01*
X140404786Y-101990109D01*
X140404788Y-101990106D01*
X140404792Y-101990104D01*
X140555104Y-101839792D01*
X140555106Y-101839788D01*
X140555109Y-101839786D01*
X140613661Y-101759193D01*
X140680051Y-101667816D01*
X140680349Y-101667230D01*
X140700235Y-101628205D01*
X140748209Y-101577409D01*
X140810719Y-101560500D01*
X163203331Y-101560500D01*
X163203347Y-101560501D01*
X163210943Y-101560501D01*
X163369054Y-101560501D01*
X163369057Y-101560501D01*
X163521785Y-101519577D01*
X163571904Y-101490639D01*
X163658716Y-101440520D01*
X163770520Y-101328716D01*
X163770520Y-101328714D01*
X163780728Y-101318507D01*
X163780729Y-101318504D01*
X168120119Y-96979116D01*
X168181440Y-96945633D01*
X168251132Y-96950617D01*
X168307065Y-96992489D01*
X168308116Y-96993914D01*
X168397697Y-97117212D01*
X168397701Y-97117217D01*
X168542455Y-97261971D01*
X168697418Y-97374556D01*
X168708059Y-97382287D01*
X168824276Y-97441503D01*
X168890445Y-97475218D01*
X168890447Y-97475218D01*
X168890450Y-97475220D01*
X168969625Y-97500945D01*
X169080800Y-97537069D01*
X169138475Y-97576507D01*
X169165673Y-97640866D01*
X169153758Y-97709712D01*
X169106514Y-97761188D01*
X169080800Y-97772931D01*
X168890445Y-97834781D01*
X168708055Y-97927715D01*
X168542455Y-98048028D01*
X168397697Y-98192786D01*
X168277384Y-98358386D01*
X168184450Y-98540776D01*
X168121191Y-98735465D01*
X168089169Y-98937648D01*
X168089169Y-99142351D01*
X168121191Y-99344534D01*
X168184450Y-99539223D01*
X168277384Y-99721613D01*
X168397697Y-99887213D01*
X168542455Y-100031971D01*
X168697418Y-100144556D01*
X168708059Y-100152287D01*
X168824276Y-100211503D01*
X168890445Y-100245218D01*
X168890447Y-100245218D01*
X168890450Y-100245220D01*
X168994806Y-100279127D01*
X169085134Y-100308477D01*
X169177971Y-100323181D01*
X169287317Y-100340500D01*
X169287318Y-100340500D01*
X169492020Y-100340500D01*
X169492021Y-100340500D01*
X169694203Y-100308477D01*
X169888888Y-100245220D01*
X170071279Y-100152287D01*
X170170488Y-100080208D01*
X170236882Y-100031971D01*
X170236884Y-100031968D01*
X170236888Y-100031966D01*
X170381635Y-99887219D01*
X170381637Y-99887215D01*
X170381640Y-99887213D01*
X170459733Y-99779725D01*
X170501956Y-99721610D01*
X170594889Y-99539219D01*
X170658146Y-99344534D01*
X170690169Y-99142352D01*
X170690169Y-98937648D01*
X170658146Y-98735465D01*
X170594887Y-98540776D01*
X170561172Y-98474607D01*
X170501956Y-98358390D01*
X170486132Y-98336610D01*
X170381640Y-98192786D01*
X170236882Y-98048028D01*
X170071282Y-97927715D01*
X170071281Y-97927714D01*
X170071279Y-97927713D01*
X170014322Y-97898691D01*
X169888892Y-97834781D01*
X169698537Y-97772931D01*
X169640862Y-97733493D01*
X169613664Y-97669134D01*
X169625579Y-97600288D01*
X169672823Y-97548812D01*
X169698537Y-97537069D01*
X169744557Y-97522116D01*
X169888888Y-97475220D01*
X170071279Y-97382287D01*
X170164259Y-97314732D01*
X170236882Y-97261971D01*
X170236884Y-97261968D01*
X170236888Y-97261966D01*
X170381635Y-97117219D01*
X170381637Y-97117215D01*
X170381640Y-97117213D01*
X170434401Y-97044590D01*
X170501956Y-96951610D01*
X170594889Y-96769219D01*
X170658146Y-96574534D01*
X170690169Y-96372352D01*
X170690169Y-96167648D01*
X170689561Y-96163812D01*
X170658146Y-95965465D01*
X170600965Y-95789481D01*
X170594889Y-95770781D01*
X170594887Y-95770778D01*
X170594887Y-95770776D01*
X170561172Y-95704607D01*
X170501956Y-95588390D01*
X170486132Y-95566610D01*
X170381640Y-95422786D01*
X170236882Y-95278028D01*
X170071282Y-95157715D01*
X170071281Y-95157714D01*
X170071279Y-95157713D01*
X170014322Y-95128691D01*
X169888892Y-95064781D01*
X169698537Y-95002931D01*
X169640862Y-94963493D01*
X169613664Y-94899134D01*
X169625579Y-94830288D01*
X169672823Y-94778812D01*
X169698537Y-94767069D01*
X169741177Y-94753213D01*
X169888888Y-94705220D01*
X170071279Y-94612287D01*
X170164259Y-94544732D01*
X170236882Y-94491971D01*
X170236884Y-94491968D01*
X170236888Y-94491966D01*
X170381635Y-94347219D01*
X170381637Y-94347215D01*
X170381640Y-94347213D01*
X170434401Y-94274590D01*
X170501956Y-94181610D01*
X170594889Y-93999219D01*
X170658146Y-93804534D01*
X170690169Y-93602352D01*
X170690169Y-93397648D01*
X170689561Y-93393812D01*
X170658146Y-93195465D01*
X170594887Y-93000776D01*
X170561172Y-92934607D01*
X170501956Y-92818390D01*
X170486132Y-92796610D01*
X170381640Y-92652786D01*
X170236882Y-92508028D01*
X170071282Y-92387715D01*
X170071281Y-92387714D01*
X170071279Y-92387713D01*
X170014322Y-92358691D01*
X169888892Y-92294781D01*
X169698537Y-92232931D01*
X169640862Y-92193493D01*
X169613664Y-92129134D01*
X169625579Y-92060288D01*
X169672823Y-92008812D01*
X169698537Y-91997069D01*
X169741177Y-91983213D01*
X169888888Y-91935220D01*
X170071279Y-91842287D01*
X170164259Y-91774732D01*
X170236882Y-91721971D01*
X170236884Y-91721968D01*
X170236888Y-91721966D01*
X170381635Y-91577219D01*
X170381637Y-91577215D01*
X170381640Y-91577213D01*
X170434401Y-91504590D01*
X170501956Y-91411610D01*
X170594889Y-91229219D01*
X170658146Y-91034534D01*
X170690169Y-90832352D01*
X170690169Y-90627648D01*
X170689561Y-90623812D01*
X170658146Y-90425465D01*
X170594887Y-90230776D01*
X170529337Y-90102129D01*
X170501956Y-90048390D01*
X170486132Y-90026610D01*
X170381640Y-89882786D01*
X170236882Y-89738028D01*
X170071282Y-89617715D01*
X170071281Y-89617714D01*
X170071279Y-89617713D01*
X170014322Y-89588691D01*
X169888892Y-89524781D01*
X169855476Y-89513923D01*
X169818564Y-89501930D01*
X169760890Y-89462493D01*
X169733692Y-89398134D01*
X169745607Y-89329288D01*
X169792851Y-89277812D01*
X169856884Y-89260000D01*
X170237497Y-89260000D01*
X170237513Y-89259999D01*
X170297041Y-89253598D01*
X170297048Y-89253596D01*
X170431755Y-89203354D01*
X170439541Y-89199103D01*
X170440306Y-89200504D01*
X170496314Y-89179610D01*
X170564588Y-89194456D01*
X170613997Y-89243858D01*
X170629169Y-89303293D01*
X170629169Y-89447351D01*
X170661191Y-89649534D01*
X170724450Y-89844223D01*
X170817384Y-90026613D01*
X170937697Y-90192213D01*
X171082455Y-90336971D01*
X171237418Y-90449556D01*
X171248059Y-90457287D01*
X171364276Y-90516503D01*
X171430445Y-90550218D01*
X171430447Y-90550218D01*
X171430450Y-90550220D01*
X171509625Y-90575945D01*
X171620800Y-90612069D01*
X171678475Y-90651507D01*
X171705673Y-90715866D01*
X171693758Y-90784712D01*
X171646514Y-90836188D01*
X171620800Y-90847931D01*
X171430445Y-90909781D01*
X171248055Y-91002715D01*
X171082455Y-91123028D01*
X170937697Y-91267786D01*
X170817384Y-91433386D01*
X170724450Y-91615776D01*
X170661191Y-91810465D01*
X170629169Y-92012648D01*
X170629169Y-92217351D01*
X170661191Y-92419534D01*
X170724450Y-92614223D01*
X170817384Y-92796613D01*
X170937697Y-92962213D01*
X171082455Y-93106971D01*
X171237418Y-93219556D01*
X171248059Y-93227287D01*
X171364276Y-93286503D01*
X171430445Y-93320218D01*
X171430447Y-93320218D01*
X171430450Y-93320220D01*
X171509625Y-93345945D01*
X171620800Y-93382069D01*
X171678475Y-93421507D01*
X171705673Y-93485866D01*
X171693758Y-93554712D01*
X171646514Y-93606188D01*
X171620800Y-93617931D01*
X171430445Y-93679781D01*
X171248055Y-93772715D01*
X171082455Y-93893028D01*
X170937697Y-94037786D01*
X170817384Y-94203386D01*
X170724450Y-94385776D01*
X170661191Y-94580465D01*
X170629169Y-94782648D01*
X170629169Y-94987351D01*
X170661191Y-95189534D01*
X170724450Y-95384223D01*
X170817384Y-95566613D01*
X170937697Y-95732213D01*
X171082455Y-95876971D01*
X171237418Y-95989556D01*
X171248059Y-95997287D01*
X171364276Y-96056503D01*
X171430445Y-96090218D01*
X171430447Y-96090218D01*
X171430450Y-96090220D01*
X171509625Y-96115945D01*
X171620800Y-96152069D01*
X171678475Y-96191507D01*
X171705673Y-96255866D01*
X171693758Y-96324712D01*
X171646514Y-96376188D01*
X171620800Y-96387931D01*
X171430445Y-96449781D01*
X171248055Y-96542715D01*
X171082455Y-96663028D01*
X170937697Y-96807786D01*
X170817384Y-96973386D01*
X170724450Y-97155776D01*
X170661191Y-97350465D01*
X170629169Y-97552648D01*
X170629169Y-97757351D01*
X170661191Y-97959534D01*
X170724450Y-98154223D01*
X170817384Y-98336613D01*
X170937697Y-98502213D01*
X171082455Y-98646971D01*
X171237418Y-98759556D01*
X171248059Y-98767287D01*
X171364276Y-98826503D01*
X171430445Y-98860218D01*
X171430447Y-98860218D01*
X171430450Y-98860220D01*
X171534806Y-98894127D01*
X171625134Y-98923477D01*
X171714606Y-98937648D01*
X171827317Y-98955500D01*
X171827318Y-98955500D01*
X172032020Y-98955500D01*
X172032021Y-98955500D01*
X172234203Y-98923477D01*
X172428888Y-98860220D01*
X172611279Y-98767287D01*
X172704259Y-98699732D01*
X172776882Y-98646971D01*
X172776884Y-98646968D01*
X172776888Y-98646966D01*
X172921635Y-98502219D01*
X172921637Y-98502215D01*
X172921640Y-98502213D01*
X172974401Y-98429590D01*
X173041956Y-98336610D01*
X173134889Y-98154219D01*
X173198146Y-97959534D01*
X173230169Y-97757352D01*
X173230169Y-97552648D01*
X173229561Y-97548812D01*
X173198146Y-97350465D01*
X173168796Y-97260137D01*
X173134889Y-97155781D01*
X173134887Y-97155778D01*
X173134887Y-97155776D01*
X173094192Y-97075909D01*
X173041956Y-96973390D01*
X172967203Y-96870500D01*
X172921640Y-96807786D01*
X172776882Y-96663028D01*
X172611282Y-96542715D01*
X172611281Y-96542714D01*
X172611279Y-96542713D01*
X172554322Y-96513691D01*
X172428892Y-96449781D01*
X172238537Y-96387931D01*
X172180862Y-96348493D01*
X172153664Y-96284134D01*
X172165579Y-96215288D01*
X172212823Y-96163812D01*
X172238537Y-96152069D01*
X172281177Y-96138213D01*
X172428888Y-96090220D01*
X172611279Y-95997287D01*
X172704259Y-95929732D01*
X172776882Y-95876971D01*
X172776884Y-95876968D01*
X172776888Y-95876966D01*
X172921635Y-95732219D01*
X172921637Y-95732215D01*
X172921640Y-95732213D01*
X173008354Y-95612859D01*
X173041956Y-95566610D01*
X173134889Y-95384219D01*
X173198146Y-95189534D01*
X173230169Y-94987352D01*
X173230169Y-94782648D01*
X173229561Y-94778812D01*
X173198146Y-94580465D01*
X173134887Y-94385776D01*
X173101172Y-94319607D01*
X173041956Y-94203390D01*
X173026132Y-94181610D01*
X172921640Y-94037786D01*
X172776882Y-93893028D01*
X172611282Y-93772715D01*
X172611281Y-93772714D01*
X172611279Y-93772713D01*
X172554322Y-93743691D01*
X172428892Y-93679781D01*
X172238537Y-93617931D01*
X172180862Y-93578493D01*
X172153664Y-93514134D01*
X172165579Y-93445288D01*
X172212823Y-93393812D01*
X172238537Y-93382069D01*
X172281177Y-93368213D01*
X172428888Y-93320220D01*
X172611279Y-93227287D01*
X172704259Y-93159732D01*
X172776882Y-93106971D01*
X172776884Y-93106968D01*
X172776888Y-93106966D01*
X172921635Y-92962219D01*
X172921637Y-92962215D01*
X172921640Y-92962213D01*
X172974401Y-92889590D01*
X173041956Y-92796610D01*
X173134889Y-92614219D01*
X173198146Y-92419534D01*
X173230169Y-92217352D01*
X173230169Y-92012648D01*
X173229561Y-92008812D01*
X173198146Y-91810465D01*
X173134887Y-91615776D01*
X173101172Y-91549607D01*
X173041956Y-91433390D01*
X173026132Y-91411610D01*
X172921640Y-91267786D01*
X172776882Y-91123028D01*
X172611282Y-91002715D01*
X172611281Y-91002714D01*
X172611279Y-91002713D01*
X172554322Y-90973691D01*
X172428892Y-90909781D01*
X172238537Y-90847931D01*
X172180862Y-90808493D01*
X172153664Y-90744134D01*
X172165579Y-90675288D01*
X172212823Y-90623812D01*
X172238537Y-90612069D01*
X172281177Y-90598213D01*
X172428888Y-90550220D01*
X172611279Y-90457287D01*
X172704259Y-90389732D01*
X172776882Y-90336971D01*
X172776884Y-90336968D01*
X172776888Y-90336966D01*
X172921635Y-90192219D01*
X172921637Y-90192215D01*
X172921640Y-90192213D01*
X172987098Y-90102116D01*
X173041956Y-90026610D01*
X173134889Y-89844219D01*
X173198146Y-89649534D01*
X173230169Y-89447352D01*
X173230169Y-89242648D01*
X173218275Y-89167554D01*
X173198146Y-89040465D01*
X173160929Y-88925925D01*
X173134889Y-88845781D01*
X173134887Y-88845778D01*
X173134887Y-88845776D01*
X173099398Y-88776127D01*
X173041956Y-88663390D01*
X173034225Y-88652749D01*
X172921640Y-88497786D01*
X172776882Y-88353028D01*
X172611282Y-88232715D01*
X172611281Y-88232714D01*
X172611279Y-88232713D01*
X172554322Y-88203691D01*
X172428892Y-88139781D01*
X172234203Y-88076522D01*
X172059664Y-88048878D01*
X172032021Y-88044500D01*
X171827317Y-88044500D01*
X171802998Y-88048351D01*
X171625134Y-88076522D01*
X171430445Y-88139781D01*
X171248055Y-88232715D01*
X171082455Y-88353028D01*
X170937701Y-88497782D01*
X170937697Y-88497787D01*
X170913987Y-88530422D01*
X170858657Y-88573088D01*
X170789044Y-88579067D01*
X170727249Y-88546462D01*
X170692892Y-88485623D01*
X170689669Y-88457537D01*
X170689669Y-88210000D01*
X169822681Y-88210000D01*
X169855594Y-88152993D01*
X169889669Y-88025826D01*
X169889669Y-87894174D01*
X169855594Y-87767007D01*
X169822681Y-87710000D01*
X170689669Y-87710000D01*
X170689669Y-87112172D01*
X170689668Y-87112155D01*
X170683267Y-87052627D01*
X170683265Y-87052620D01*
X170633023Y-86917913D01*
X170633019Y-86917906D01*
X170546859Y-86802812D01*
X170546856Y-86802809D01*
X170431762Y-86716649D01*
X170431755Y-86716645D01*
X170297048Y-86666403D01*
X170297041Y-86666401D01*
X170237513Y-86660000D01*
X169639669Y-86660000D01*
X169639669Y-87526988D01*
X169582662Y-87494075D01*
X169455495Y-87460000D01*
X169323843Y-87460000D01*
X169196676Y-87494075D01*
X169139669Y-87526988D01*
X169139669Y-86660000D01*
X168541824Y-86660000D01*
X168482296Y-86666401D01*
X168482289Y-86666403D01*
X168347582Y-86716645D01*
X168347575Y-86716649D01*
X168232481Y-86802809D01*
X168232478Y-86802812D01*
X168146318Y-86917906D01*
X168146314Y-86917913D01*
X168096072Y-87052620D01*
X168096070Y-87052627D01*
X168089669Y-87112155D01*
X168089669Y-87710000D01*
X168956657Y-87710000D01*
X168923744Y-87767007D01*
X168889669Y-87894174D01*
X168889669Y-88025826D01*
X168923744Y-88152993D01*
X168956657Y-88210000D01*
X168089669Y-88210000D01*
X168089669Y-88807844D01*
X168096070Y-88867372D01*
X168096072Y-88867379D01*
X168146314Y-89002086D01*
X168146318Y-89002093D01*
X168232478Y-89117187D01*
X168232481Y-89117190D01*
X168347575Y-89203350D01*
X168347582Y-89203354D01*
X168482289Y-89253596D01*
X168482296Y-89253598D01*
X168541824Y-89259999D01*
X168541841Y-89260000D01*
X168922454Y-89260000D01*
X168989493Y-89279685D01*
X169035248Y-89332489D01*
X169045192Y-89401647D01*
X169016167Y-89465203D01*
X168960773Y-89501930D01*
X168936411Y-89509846D01*
X168890445Y-89524781D01*
X168708055Y-89617715D01*
X168542457Y-89738027D01*
X168402540Y-89877944D01*
X168341217Y-89911428D01*
X168271525Y-89906444D01*
X168227180Y-89877944D01*
X163737589Y-85388354D01*
X163737588Y-85388352D01*
X163618717Y-85269481D01*
X163618712Y-85269477D01*
X163519476Y-85212184D01*
X163519475Y-85212183D01*
X163481790Y-85190425D01*
X163481789Y-85190424D01*
X163469263Y-85187067D01*
X163329057Y-85149499D01*
X163170943Y-85149499D01*
X163163347Y-85149499D01*
X163163331Y-85149500D01*
X142170097Y-85149500D01*
X142103058Y-85129815D01*
X142082416Y-85113181D01*
X140833757Y-83864522D01*
X140800272Y-83803199D01*
X140803507Y-83738523D01*
X140817246Y-83696243D01*
X140850500Y-83486287D01*
X140850500Y-83273713D01*
X140817246Y-83063757D01*
X140751557Y-82861588D01*
X140655051Y-82672184D01*
X140655049Y-82672181D01*
X140655048Y-82672179D01*
X140530109Y-82500213D01*
X140379786Y-82349890D01*
X140207820Y-82224951D01*
X140018414Y-82128444D01*
X140018413Y-82128443D01*
X140018412Y-82128443D01*
X139816243Y-82062754D01*
X139816241Y-82062753D01*
X139816240Y-82062753D01*
X139654957Y-82037208D01*
X139606287Y-82029500D01*
X139393713Y-82029500D01*
X139345042Y-82037208D01*
X139183760Y-82062753D01*
X138981585Y-82128444D01*
X138792179Y-82224951D01*
X138620213Y-82349890D01*
X138469890Y-82500213D01*
X138344951Y-82672179D01*
X138248444Y-82861585D01*
X138182753Y-83063760D01*
X138149500Y-83273713D01*
X134450223Y-83273713D01*
X134518412Y-83251557D01*
X134707816Y-83155051D01*
X134759255Y-83117678D01*
X134879786Y-83030109D01*
X134879788Y-83030106D01*
X134879792Y-83030104D01*
X135030104Y-82879792D01*
X135030106Y-82879788D01*
X135030109Y-82879786D01*
X135155048Y-82707820D01*
X135155047Y-82707820D01*
X135155051Y-82707816D01*
X135251557Y-82518412D01*
X135317246Y-82316243D01*
X135350500Y-82106287D01*
X135350500Y-81893713D01*
X175649500Y-81893713D01*
X175649500Y-82106286D01*
X175682753Y-82316239D01*
X175748444Y-82518414D01*
X175844951Y-82707820D01*
X175969890Y-82879786D01*
X176120213Y-83030109D01*
X176292179Y-83155048D01*
X176292181Y-83155049D01*
X176292184Y-83155051D01*
X176481588Y-83251557D01*
X176683757Y-83317246D01*
X176893713Y-83350500D01*
X176893714Y-83350500D01*
X177106286Y-83350500D01*
X177106287Y-83350500D01*
X177316243Y-83317246D01*
X177518412Y-83251557D01*
X177707816Y-83155051D01*
X177729789Y-83139086D01*
X177879786Y-83030109D01*
X177879788Y-83030106D01*
X177879792Y-83030104D01*
X178030104Y-82879792D01*
X178030106Y-82879788D01*
X178030109Y-82879786D01*
X178155048Y-82707820D01*
X178155047Y-82707820D01*
X178155051Y-82707816D01*
X178251557Y-82518412D01*
X178317246Y-82316243D01*
X178350500Y-82106287D01*
X178350500Y-81893713D01*
X178317246Y-81683757D01*
X178251557Y-81481588D01*
X178155051Y-81292184D01*
X178155049Y-81292181D01*
X178155048Y-81292179D01*
X178030109Y-81120213D01*
X177879786Y-80969890D01*
X177707820Y-80844951D01*
X177518414Y-80748444D01*
X177518413Y-80748443D01*
X177518412Y-80748443D01*
X177316243Y-80682754D01*
X177316241Y-80682753D01*
X177316240Y-80682753D01*
X177154957Y-80657208D01*
X177106287Y-80649500D01*
X176893713Y-80649500D01*
X176845042Y-80657208D01*
X176683760Y-80682753D01*
X176481585Y-80748444D01*
X176292179Y-80844951D01*
X176120213Y-80969890D01*
X175969890Y-81120213D01*
X175844951Y-81292179D01*
X175748444Y-81481585D01*
X175682753Y-81683760D01*
X175649500Y-81893713D01*
X135350500Y-81893713D01*
X135317246Y-81683757D01*
X135251557Y-81481588D01*
X135155051Y-81292184D01*
X135155049Y-81292181D01*
X135155048Y-81292179D01*
X135030109Y-81120213D01*
X134879786Y-80969890D01*
X134707820Y-80844951D01*
X134518414Y-80748444D01*
X134518413Y-80748443D01*
X134518412Y-80748443D01*
X134316243Y-80682754D01*
X134316241Y-80682753D01*
X134316240Y-80682753D01*
X134154957Y-80657208D01*
X134106287Y-80649500D01*
X133893713Y-80649500D01*
X133845042Y-80657208D01*
X133683760Y-80682753D01*
X133481585Y-80748444D01*
X133292179Y-80844951D01*
X133120213Y-80969890D01*
X132969890Y-81120213D01*
X132844951Y-81292179D01*
X132748444Y-81481585D01*
X132682753Y-81683760D01*
X132649500Y-81893713D01*
X131000500Y-81893713D01*
X131000500Y-79124500D01*
X131020185Y-79057461D01*
X131072989Y-79011706D01*
X131124500Y-79000500D01*
X179875500Y-79000500D01*
X179942539Y-79020185D01*
G37*
%TD.AperFunction*%
%TD*%
M02*
