%TF.GenerationSoftware,KiCad,Pcbnew,9.0.2*%
%TF.CreationDate,2026-05-05T14:55:26+02:00*%
%TF.ProjectId,czujnik,637a756a-6e69-46b2-9e6b-696361645f70,rev?*%
%TF.SameCoordinates,Original*%
%TF.FileFunction,Copper,L2,Bot*%
%TF.FilePolarity,Positive*%
%FSLAX46Y46*%
G04 Gerber Fmt 4.6, Leading zero omitted, Abs format (unit mm)*
G04 Created by KiCad (PCBNEW 9.0.2) date 2026-05-05 14:55:26*
%MOMM*%
%LPD*%
G01*
G04 APERTURE LIST*
%TA.AperFunction,ComponentPad*%
%ADD10R,4.000000X4.000000*%
%TD*%
%TA.AperFunction,ComponentPad*%
%ADD11C,3.300000*%
%TD*%
%TA.AperFunction,ComponentPad*%
%ADD12C,3.500000*%
%TD*%
%TA.AperFunction,ComponentPad*%
%ADD13R,1.800000X1.800000*%
%TD*%
%TA.AperFunction,ComponentPad*%
%ADD14C,1.800000*%
%TD*%
%TA.AperFunction,ComponentPad*%
%ADD15C,1.600000*%
%TD*%
%TA.AperFunction,ComponentPad*%
%ADD16C,4.000000*%
%TD*%
%TA.AperFunction,ComponentPad*%
%ADD17R,1.600000X1.600000*%
%TD*%
%TA.AperFunction,ComponentPad*%
%ADD18R,1.700000X1.700000*%
%TD*%
%TA.AperFunction,ComponentPad*%
%ADD19C,1.700000*%
%TD*%
%TA.AperFunction,Conductor*%
%ADD20C,0.200000*%
%TD*%
%TA.AperFunction,Conductor*%
%ADD21C,0.700000*%
%TD*%
G04 APERTURE END LIST*
D10*
%TO.P,J2,1*%
%TO.N,GND*%
X177500000Y-62000000D03*
D11*
%TO.P,J2,2*%
%TO.N,+5V*%
X177500000Y-56000000D03*
D12*
%TO.P,J2,MP*%
%TO.N,N/C*%
X182000000Y-55000000D03*
X173000000Y-55000000D03*
%TD*%
D13*
%TO.P,D2,1,K*%
%TO.N,Net-(D2-K)*%
X126960000Y-58000000D03*
D14*
%TO.P,D2,2,A*%
%TO.N,GND*%
X129500000Y-58000000D03*
%TD*%
D15*
%TO.P,R2,1*%
%TO.N,Net-(D2-K)*%
X143420000Y-66500000D03*
%TO.P,R2,2*%
%TO.N,Net-(GPIO0-Pin_15)*%
X153580000Y-66500000D03*
%TD*%
D13*
%TO.P,D1,1,K*%
%TO.N,Net-(D1-K)*%
X120460000Y-58000000D03*
D14*
%TO.P,D1,2,A*%
%TO.N,GND*%
X123000000Y-58000000D03*
%TD*%
D15*
%TO.P,R3,1*%
%TO.N,Net-(D3-K)*%
X156920000Y-66500000D03*
%TO.P,R3,2*%
%TO.N,Net-(GPIO0-Pin_16)*%
X167080000Y-66500000D03*
%TD*%
D16*
%TO.P,J3,0*%
%TO.N,N/C*%
X123170000Y-70845000D03*
X123170000Y-95845000D03*
D17*
%TO.P,J3,1,1*%
%TO.N,GND*%
X124590000Y-88885000D03*
D15*
%TO.P,J3,2,2*%
%TO.N,/TX*%
X124590000Y-86115000D03*
%TO.P,J3,3,3*%
%TO.N,/RX*%
X124590000Y-83345000D03*
%TO.P,J3,4,4*%
%TO.N,/DHT22_D*%
X124590000Y-80575000D03*
%TO.P,J3,5,5*%
%TO.N,+5V*%
X124590000Y-77805000D03*
%TO.P,J3,6,6*%
%TO.N,unconnected-(J3-Pad6)*%
X121750000Y-87500000D03*
%TO.P,J3,7,7*%
%TO.N,unconnected-(J3-Pad7)*%
X121750000Y-84730000D03*
%TO.P,J3,8,8*%
%TO.N,unconnected-(J3-Pad8)*%
X121750000Y-81960000D03*
%TO.P,J3,9,9*%
%TO.N,unconnected-(J3-Pad9)*%
X121750000Y-79190000D03*
%TD*%
%TO.P,R1,1*%
%TO.N,Net-(D1-K)*%
X129920000Y-66500000D03*
%TO.P,R1,2*%
%TO.N,Net-(GPIO0-Pin_14)*%
X140080000Y-66500000D03*
%TD*%
D18*
%TO.P,GPIO0,1,Pin_1*%
%TO.N,GPIO0*%
X135740000Y-92500000D03*
D19*
%TO.P,GPIO0,2,Pin_2*%
%TO.N,unconnected-(GPIO0-Pin_2-Pad2)*%
X138280000Y-92500000D03*
%TO.P,GPIO0,3,Pin_3*%
%TO.N,unconnected-(GPIO0-Pin_3-Pad3)*%
X140820000Y-92500000D03*
%TO.P,GPIO0,4,Pin_4*%
%TO.N,unconnected-(GPIO0-Pin_4-Pad4)*%
X143360000Y-92500000D03*
%TO.P,GPIO0,5,Pin_5*%
%TO.N,unconnected-(GPIO0-Pin_5-Pad5)*%
X145900000Y-92500000D03*
%TO.P,GPIO0,6,Pin_6*%
%TO.N,unconnected-(GPIO0-Pin_6-Pad6)*%
X148440000Y-92500000D03*
%TO.P,GPIO0,7,Pin_7*%
%TO.N,unconnected-(GPIO0-Pin_7-Pad7)*%
X150980000Y-92500000D03*
%TO.P,GPIO0,8,Pin_8*%
%TO.N,unconnected-(GPIO0-Pin_8-Pad8)*%
X153520000Y-92500000D03*
%TO.P,GPIO0,9,Pin_9*%
%TO.N,unconnected-(GPIO0-Pin_9-Pad9)*%
X156060000Y-92500000D03*
%TO.P,GPIO0,10,Pin_10*%
%TO.N,/DHT22_D*%
X158600000Y-92500000D03*
%TO.P,GPIO0,11,Pin_11*%
%TO.N,/RX*%
X161140000Y-92500000D03*
%TO.P,GPIO0,12,Pin_12*%
%TO.N,/TX*%
X163680000Y-92500000D03*
%TO.P,GPIO0,13,Pin_13*%
%TO.N,GND*%
X166220000Y-92500000D03*
%TO.P,GPIO0,14,Pin_14*%
%TO.N,Net-(GPIO0-Pin_14)*%
X168760000Y-92500000D03*
%TO.P,GPIO0,15,Pin_15*%
%TO.N,Net-(GPIO0-Pin_15)*%
X171300000Y-92500000D03*
%TO.P,GPIO0,16,Pin_16*%
%TO.N,Net-(GPIO0-Pin_16)*%
X173840000Y-92500000D03*
%TO.P,GPIO0,17,Pin_17*%
%TO.N,unconnected-(GPIO0-Pin_17-Pad17)*%
X176380000Y-92500000D03*
%TO.P,GPIO0,18,Pin_18*%
%TO.N,unconnected-(GPIO0-Pin_18-Pad18)*%
X178920000Y-92500000D03*
%TO.P,GPIO0,19,Pin_19*%
%TO.N,unconnected-(GPIO0-Pin_19-Pad19)*%
X181460000Y-92500000D03*
%TO.P,GPIO0,20,Pin_20*%
%TO.N,unconnected-(GPIO0-Pin_20-Pad20)*%
X184000000Y-92500000D03*
%TD*%
D18*
%TO.P,VBUS,1,Pin_1*%
%TO.N,unconnected-(VBUS1-Pin_1-Pad1)*%
X135460000Y-74500000D03*
D19*
%TO.P,VBUS,2,Pin_2*%
%TO.N,unconnected-(VBUS1-Pin_2-Pad2)*%
X138000000Y-74500000D03*
%TO.P,VBUS,3,Pin_3*%
%TO.N,unconnected-(VBUS1-Pin_3-Pad3)*%
X140540000Y-74500000D03*
%TO.P,VBUS,4,Pin_4*%
%TO.N,unconnected-(VBUS1-Pin_4-Pad4)*%
X143080000Y-74500000D03*
%TO.P,VBUS,5,Pin_5*%
%TO.N,unconnected-(VBUS1-Pin_5-Pad5)*%
X145620000Y-74500000D03*
%TO.P,VBUS,6,Pin_6*%
%TO.N,unconnected-(VBUS1-Pin_6-Pad6)*%
X148160000Y-74500000D03*
%TO.P,VBUS,7,Pin_7*%
%TO.N,unconnected-(VBUS1-Pin_7-Pad7)*%
X150700000Y-74500000D03*
%TO.P,VBUS,8,Pin_8*%
%TO.N,unconnected-(VBUS1-Pin_8-Pad8)*%
X153240000Y-74500000D03*
%TO.P,VBUS,9,Pin_9*%
%TO.N,unconnected-(VBUS1-Pin_9-Pad9)*%
X155780000Y-74500000D03*
%TO.P,VBUS,10,Pin_10*%
%TO.N,unconnected-(VBUS1-Pin_10-Pad10)*%
X158320000Y-74500000D03*
%TO.P,VBUS,11,Pin_11*%
%TO.N,unconnected-(VBUS1-Pin_11-Pad11)*%
X160860000Y-74500000D03*
%TO.P,VBUS,12,Pin_12*%
%TO.N,unconnected-(VBUS1-Pin_12-Pad12)*%
X163400000Y-74500000D03*
%TO.P,VBUS,13,Pin_13*%
%TO.N,unconnected-(VBUS1-Pin_13-Pad13)*%
X165940000Y-74500000D03*
%TO.P,VBUS,14,Pin_14*%
%TO.N,unconnected-(VBUS1-Pin_14-Pad14)*%
X168480000Y-74500000D03*
%TO.P,VBUS,15,Pin_15*%
%TO.N,unconnected-(VBUS1-Pin_15-Pad15)*%
X171020000Y-74500000D03*
%TO.P,VBUS,16,Pin_16*%
%TO.N,unconnected-(VBUS1-Pin_16-Pad16)*%
X173560000Y-74500000D03*
%TO.P,VBUS,17,Pin_17*%
%TO.N,unconnected-(VBUS1-Pin_17-Pad17)*%
X176100000Y-74500000D03*
%TO.P,VBUS,18,Pin_18*%
%TO.N,GND*%
X178640000Y-74500000D03*
%TO.P,VBUS,19,Pin_19*%
%TO.N,+5V*%
X181180000Y-74500000D03*
%TO.P,VBUS,20,Pin_20*%
%TO.N,VBUS*%
X183720000Y-74500000D03*
%TD*%
D13*
%TO.P,D3,1,K*%
%TO.N,Net-(D3-K)*%
X133230000Y-58000000D03*
D14*
%TO.P,D3,2,A*%
%TO.N,GND*%
X135770000Y-58000000D03*
%TD*%
D20*
%TO.N,GND*%
X177000000Y-61076200D02*
X177000000Y-61000000D01*
D21*
%TO.N,+5V*%
X175669397Y-56000000D02*
X159590000Y-72079397D01*
X177500000Y-56000000D02*
X175669397Y-56000000D01*
X159590000Y-72079397D02*
X130315603Y-72079397D01*
X130315603Y-72079397D02*
X124590000Y-77805000D01*
D20*
%TO.N,Net-(D1-K)*%
X129786200Y-66500000D02*
X130340000Y-66500000D01*
%TD*%
%TA.AperFunction,Conductor*%
%TO.N,GND*%
G36*
X187942539Y-51020185D02*
G01*
X187988294Y-51072989D01*
X187999500Y-51124500D01*
X187999500Y-99875500D01*
X187979815Y-99942539D01*
X187927011Y-99988294D01*
X187875500Y-99999500D01*
X114124500Y-99999500D01*
X114057461Y-99979815D01*
X114011706Y-99927011D01*
X114000500Y-99875500D01*
X114000500Y-95704568D01*
X120669500Y-95704568D01*
X120669500Y-95985431D01*
X120700942Y-96264494D01*
X120700945Y-96264512D01*
X120763439Y-96538317D01*
X120763443Y-96538329D01*
X120856200Y-96803411D01*
X120978053Y-97056442D01*
X120978055Y-97056445D01*
X121127477Y-97294248D01*
X121302584Y-97513825D01*
X121501175Y-97712416D01*
X121720752Y-97887523D01*
X121958555Y-98036945D01*
X122211592Y-98158801D01*
X122410680Y-98228465D01*
X122476670Y-98251556D01*
X122476682Y-98251560D01*
X122750491Y-98314055D01*
X122750497Y-98314055D01*
X122750505Y-98314057D01*
X122936547Y-98335018D01*
X123029569Y-98345499D01*
X123029572Y-98345500D01*
X123029575Y-98345500D01*
X123310428Y-98345500D01*
X123310429Y-98345499D01*
X123453055Y-98329429D01*
X123589494Y-98314057D01*
X123589499Y-98314056D01*
X123589509Y-98314055D01*
X123863318Y-98251560D01*
X124128408Y-98158801D01*
X124381445Y-98036945D01*
X124619248Y-97887523D01*
X124838825Y-97712416D01*
X125037416Y-97513825D01*
X125212523Y-97294248D01*
X125361945Y-97056445D01*
X125483801Y-96803408D01*
X125576560Y-96538318D01*
X125639055Y-96264509D01*
X125670500Y-95985425D01*
X125670500Y-95704575D01*
X125639055Y-95425491D01*
X125576560Y-95151682D01*
X125483801Y-94886592D01*
X125361945Y-94633555D01*
X125212523Y-94395752D01*
X125037416Y-94176175D01*
X124838825Y-93977584D01*
X124619248Y-93802477D01*
X124381445Y-93653055D01*
X124381442Y-93653053D01*
X124128411Y-93531200D01*
X123863329Y-93438443D01*
X123863317Y-93438439D01*
X123589512Y-93375945D01*
X123589494Y-93375942D01*
X123310431Y-93344500D01*
X123310425Y-93344500D01*
X123029575Y-93344500D01*
X123029568Y-93344500D01*
X122750505Y-93375942D01*
X122750487Y-93375945D01*
X122476682Y-93438439D01*
X122476670Y-93438443D01*
X122211588Y-93531200D01*
X121958557Y-93653053D01*
X121720753Y-93802476D01*
X121501175Y-93977583D01*
X121302583Y-94176175D01*
X121127476Y-94395753D01*
X120978053Y-94633557D01*
X120856200Y-94886588D01*
X120763443Y-95151670D01*
X120763439Y-95151682D01*
X120700945Y-95425487D01*
X120700942Y-95425505D01*
X120669500Y-95704568D01*
X114000500Y-95704568D01*
X114000500Y-91602135D01*
X134389500Y-91602135D01*
X134389500Y-93397870D01*
X134389501Y-93397876D01*
X134395908Y-93457483D01*
X134446202Y-93592328D01*
X134446206Y-93592335D01*
X134532452Y-93707544D01*
X134532455Y-93707547D01*
X134647664Y-93793793D01*
X134647671Y-93793797D01*
X134782517Y-93844091D01*
X134782516Y-93844091D01*
X134789444Y-93844835D01*
X134842127Y-93850500D01*
X136637872Y-93850499D01*
X136697483Y-93844091D01*
X136832331Y-93793796D01*
X136947546Y-93707546D01*
X137033796Y-93592331D01*
X137082810Y-93460916D01*
X137124681Y-93404984D01*
X137190145Y-93380566D01*
X137258418Y-93395417D01*
X137286673Y-93416569D01*
X137400213Y-93530109D01*
X137572179Y-93655048D01*
X137572181Y-93655049D01*
X137572184Y-93655051D01*
X137761588Y-93751557D01*
X137963757Y-93817246D01*
X138173713Y-93850500D01*
X138173714Y-93850500D01*
X138386286Y-93850500D01*
X138386287Y-93850500D01*
X138596243Y-93817246D01*
X138798412Y-93751557D01*
X138987816Y-93655051D01*
X139074138Y-93592335D01*
X139159786Y-93530109D01*
X139159788Y-93530106D01*
X139159792Y-93530104D01*
X139310104Y-93379792D01*
X139310106Y-93379788D01*
X139310109Y-93379786D01*
X139435048Y-93207820D01*
X139435047Y-93207820D01*
X139435051Y-93207816D01*
X139439514Y-93199054D01*
X139487488Y-93148259D01*
X139555308Y-93131463D01*
X139621444Y-93153999D01*
X139660486Y-93199056D01*
X139664951Y-93207820D01*
X139789890Y-93379786D01*
X139940213Y-93530109D01*
X140112179Y-93655048D01*
X140112181Y-93655049D01*
X140112184Y-93655051D01*
X140301588Y-93751557D01*
X140503757Y-93817246D01*
X140713713Y-93850500D01*
X140713714Y-93850500D01*
X140926286Y-93850500D01*
X140926287Y-93850500D01*
X141136243Y-93817246D01*
X141338412Y-93751557D01*
X141527816Y-93655051D01*
X141614138Y-93592335D01*
X141699786Y-93530109D01*
X141699788Y-93530106D01*
X141699792Y-93530104D01*
X141850104Y-93379792D01*
X141850106Y-93379788D01*
X141850109Y-93379786D01*
X141975048Y-93207820D01*
X141975047Y-93207820D01*
X141975051Y-93207816D01*
X141979514Y-93199054D01*
X142027488Y-93148259D01*
X142095308Y-93131463D01*
X142161444Y-93153999D01*
X142200486Y-93199056D01*
X142204951Y-93207820D01*
X142329890Y-93379786D01*
X142480213Y-93530109D01*
X142652179Y-93655048D01*
X142652181Y-93655049D01*
X142652184Y-93655051D01*
X142841588Y-93751557D01*
X143043757Y-93817246D01*
X143253713Y-93850500D01*
X143253714Y-93850500D01*
X143466286Y-93850500D01*
X143466287Y-93850500D01*
X143676243Y-93817246D01*
X143878412Y-93751557D01*
X144067816Y-93655051D01*
X144154138Y-93592335D01*
X144239786Y-93530109D01*
X144239788Y-93530106D01*
X144239792Y-93530104D01*
X144390104Y-93379792D01*
X144390106Y-93379788D01*
X144390109Y-93379786D01*
X144515048Y-93207820D01*
X144515047Y-93207820D01*
X144515051Y-93207816D01*
X144519514Y-93199054D01*
X144567488Y-93148259D01*
X144635308Y-93131463D01*
X144701444Y-93153999D01*
X144740486Y-93199056D01*
X144744951Y-93207820D01*
X144869890Y-93379786D01*
X145020213Y-93530109D01*
X145192179Y-93655048D01*
X145192181Y-93655049D01*
X145192184Y-93655051D01*
X145381588Y-93751557D01*
X145583757Y-93817246D01*
X145793713Y-93850500D01*
X145793714Y-93850500D01*
X146006286Y-93850500D01*
X146006287Y-93850500D01*
X146216243Y-93817246D01*
X146418412Y-93751557D01*
X146607816Y-93655051D01*
X146694138Y-93592335D01*
X146779786Y-93530109D01*
X146779788Y-93530106D01*
X146779792Y-93530104D01*
X146930104Y-93379792D01*
X146930106Y-93379788D01*
X146930109Y-93379786D01*
X147055048Y-93207820D01*
X147055047Y-93207820D01*
X147055051Y-93207816D01*
X147059514Y-93199054D01*
X147107488Y-93148259D01*
X147175308Y-93131463D01*
X147241444Y-93153999D01*
X147280486Y-93199056D01*
X147284951Y-93207820D01*
X147409890Y-93379786D01*
X147560213Y-93530109D01*
X147732179Y-93655048D01*
X147732181Y-93655049D01*
X147732184Y-93655051D01*
X147921588Y-93751557D01*
X148123757Y-93817246D01*
X148333713Y-93850500D01*
X148333714Y-93850500D01*
X148546286Y-93850500D01*
X148546287Y-93850500D01*
X148756243Y-93817246D01*
X148958412Y-93751557D01*
X149147816Y-93655051D01*
X149234138Y-93592335D01*
X149319786Y-93530109D01*
X149319788Y-93530106D01*
X149319792Y-93530104D01*
X149470104Y-93379792D01*
X149470106Y-93379788D01*
X149470109Y-93379786D01*
X149595048Y-93207820D01*
X149595047Y-93207820D01*
X149595051Y-93207816D01*
X149599514Y-93199054D01*
X149647488Y-93148259D01*
X149715308Y-93131463D01*
X149781444Y-93153999D01*
X149820486Y-93199056D01*
X149824951Y-93207820D01*
X149949890Y-93379786D01*
X150100213Y-93530109D01*
X150272179Y-93655048D01*
X150272181Y-93655049D01*
X150272184Y-93655051D01*
X150461588Y-93751557D01*
X150663757Y-93817246D01*
X150873713Y-93850500D01*
X150873714Y-93850500D01*
X151086286Y-93850500D01*
X151086287Y-93850500D01*
X151296243Y-93817246D01*
X151498412Y-93751557D01*
X151687816Y-93655051D01*
X151774138Y-93592335D01*
X151859786Y-93530109D01*
X151859788Y-93530106D01*
X151859792Y-93530104D01*
X152010104Y-93379792D01*
X152010106Y-93379788D01*
X152010109Y-93379786D01*
X152135048Y-93207820D01*
X152135047Y-93207820D01*
X152135051Y-93207816D01*
X152139514Y-93199054D01*
X152187488Y-93148259D01*
X152255308Y-93131463D01*
X152321444Y-93153999D01*
X152360486Y-93199056D01*
X152364951Y-93207820D01*
X152489890Y-93379786D01*
X152640213Y-93530109D01*
X152812179Y-93655048D01*
X152812181Y-93655049D01*
X152812184Y-93655051D01*
X153001588Y-93751557D01*
X153203757Y-93817246D01*
X153413713Y-93850500D01*
X153413714Y-93850500D01*
X153626286Y-93850500D01*
X153626287Y-93850500D01*
X153836243Y-93817246D01*
X154038412Y-93751557D01*
X154227816Y-93655051D01*
X154314138Y-93592335D01*
X154399786Y-93530109D01*
X154399788Y-93530106D01*
X154399792Y-93530104D01*
X154550104Y-93379792D01*
X154550106Y-93379788D01*
X154550109Y-93379786D01*
X154675048Y-93207820D01*
X154675047Y-93207820D01*
X154675051Y-93207816D01*
X154679514Y-93199054D01*
X154727488Y-93148259D01*
X154795308Y-93131463D01*
X154861444Y-93153999D01*
X154900486Y-93199056D01*
X154904951Y-93207820D01*
X155029890Y-93379786D01*
X155180213Y-93530109D01*
X155352179Y-93655048D01*
X155352181Y-93655049D01*
X155352184Y-93655051D01*
X155541588Y-93751557D01*
X155743757Y-93817246D01*
X155953713Y-93850500D01*
X155953714Y-93850500D01*
X156166286Y-93850500D01*
X156166287Y-93850500D01*
X156376243Y-93817246D01*
X156578412Y-93751557D01*
X156767816Y-93655051D01*
X156854138Y-93592335D01*
X156939786Y-93530109D01*
X156939788Y-93530106D01*
X156939792Y-93530104D01*
X157090104Y-93379792D01*
X157090106Y-93379788D01*
X157090109Y-93379786D01*
X157215048Y-93207820D01*
X157215047Y-93207820D01*
X157215051Y-93207816D01*
X157219514Y-93199054D01*
X157267488Y-93148259D01*
X157335308Y-93131463D01*
X157401444Y-93153999D01*
X157440486Y-93199056D01*
X157444951Y-93207820D01*
X157569890Y-93379786D01*
X157720213Y-93530109D01*
X157892179Y-93655048D01*
X157892181Y-93655049D01*
X157892184Y-93655051D01*
X158081588Y-93751557D01*
X158283757Y-93817246D01*
X158493713Y-93850500D01*
X158493714Y-93850500D01*
X158706286Y-93850500D01*
X158706287Y-93850500D01*
X158916243Y-93817246D01*
X159118412Y-93751557D01*
X159307816Y-93655051D01*
X159394138Y-93592335D01*
X159479786Y-93530109D01*
X159479788Y-93530106D01*
X159479792Y-93530104D01*
X159630104Y-93379792D01*
X159630106Y-93379788D01*
X159630109Y-93379786D01*
X159755048Y-93207820D01*
X159755047Y-93207820D01*
X159755051Y-93207816D01*
X159759514Y-93199054D01*
X159807488Y-93148259D01*
X159875308Y-93131463D01*
X159941444Y-93153999D01*
X159980486Y-93199056D01*
X159984951Y-93207820D01*
X160109890Y-93379786D01*
X160260213Y-93530109D01*
X160432179Y-93655048D01*
X160432181Y-93655049D01*
X160432184Y-93655051D01*
X160621588Y-93751557D01*
X160823757Y-93817246D01*
X161033713Y-93850500D01*
X161033714Y-93850500D01*
X161246286Y-93850500D01*
X161246287Y-93850500D01*
X161456243Y-93817246D01*
X161658412Y-93751557D01*
X161847816Y-93655051D01*
X161934138Y-93592335D01*
X162019786Y-93530109D01*
X162019788Y-93530106D01*
X162019792Y-93530104D01*
X162170104Y-93379792D01*
X162170106Y-93379788D01*
X162170109Y-93379786D01*
X162295048Y-93207820D01*
X162295047Y-93207820D01*
X162295051Y-93207816D01*
X162299514Y-93199054D01*
X162347488Y-93148259D01*
X162415308Y-93131463D01*
X162481444Y-93153999D01*
X162520486Y-93199056D01*
X162524951Y-93207820D01*
X162649890Y-93379786D01*
X162800213Y-93530109D01*
X162972179Y-93655048D01*
X162972181Y-93655049D01*
X162972184Y-93655051D01*
X163161588Y-93751557D01*
X163363757Y-93817246D01*
X163573713Y-93850500D01*
X163573714Y-93850500D01*
X163786286Y-93850500D01*
X163786287Y-93850500D01*
X163996243Y-93817246D01*
X164198412Y-93751557D01*
X164387816Y-93655051D01*
X164474138Y-93592335D01*
X164559786Y-93530109D01*
X164559788Y-93530106D01*
X164559792Y-93530104D01*
X164710104Y-93379792D01*
X164710106Y-93379788D01*
X164710109Y-93379786D01*
X164795890Y-93261717D01*
X164835051Y-93207816D01*
X164839793Y-93198508D01*
X164887763Y-93147711D01*
X164955583Y-93130911D01*
X165021719Y-93153445D01*
X165060763Y-93198500D01*
X165065373Y-93207547D01*
X165104728Y-93261716D01*
X165737037Y-92629408D01*
X165754075Y-92692993D01*
X165819901Y-92807007D01*
X165912993Y-92900099D01*
X166027007Y-92965925D01*
X166090590Y-92982962D01*
X165458282Y-93615269D01*
X165458282Y-93615270D01*
X165512449Y-93654624D01*
X165701782Y-93751095D01*
X165903870Y-93816757D01*
X166113754Y-93850000D01*
X166326246Y-93850000D01*
X166536127Y-93816757D01*
X166536130Y-93816757D01*
X166738217Y-93751095D01*
X166927554Y-93654622D01*
X166981716Y-93615270D01*
X166981717Y-93615270D01*
X166349408Y-92982962D01*
X166412993Y-92965925D01*
X166527007Y-92900099D01*
X166620099Y-92807007D01*
X166685925Y-92692993D01*
X166702962Y-92629408D01*
X167335270Y-93261717D01*
X167335270Y-93261716D01*
X167374622Y-93207555D01*
X167379232Y-93198507D01*
X167427205Y-93147709D01*
X167495025Y-93130912D01*
X167561161Y-93153447D01*
X167600204Y-93198504D01*
X167604949Y-93207817D01*
X167729890Y-93379786D01*
X167880213Y-93530109D01*
X168052179Y-93655048D01*
X168052181Y-93655049D01*
X168052184Y-93655051D01*
X168241588Y-93751557D01*
X168443757Y-93817246D01*
X168653713Y-93850500D01*
X168653714Y-93850500D01*
X168866286Y-93850500D01*
X168866287Y-93850500D01*
X169076243Y-93817246D01*
X169278412Y-93751557D01*
X169467816Y-93655051D01*
X169554138Y-93592335D01*
X169639786Y-93530109D01*
X169639788Y-93530106D01*
X169639792Y-93530104D01*
X169790104Y-93379792D01*
X169790106Y-93379788D01*
X169790109Y-93379786D01*
X169915048Y-93207820D01*
X169915047Y-93207820D01*
X169915051Y-93207816D01*
X169919514Y-93199054D01*
X169967488Y-93148259D01*
X170035308Y-93131463D01*
X170101444Y-93153999D01*
X170140486Y-93199056D01*
X170144951Y-93207820D01*
X170269890Y-93379786D01*
X170420213Y-93530109D01*
X170592179Y-93655048D01*
X170592181Y-93655049D01*
X170592184Y-93655051D01*
X170781588Y-93751557D01*
X170983757Y-93817246D01*
X171193713Y-93850500D01*
X171193714Y-93850500D01*
X171406286Y-93850500D01*
X171406287Y-93850500D01*
X171616243Y-93817246D01*
X171818412Y-93751557D01*
X172007816Y-93655051D01*
X172094138Y-93592335D01*
X172179786Y-93530109D01*
X172179788Y-93530106D01*
X172179792Y-93530104D01*
X172330104Y-93379792D01*
X172330106Y-93379788D01*
X172330109Y-93379786D01*
X172455048Y-93207820D01*
X172455047Y-93207820D01*
X172455051Y-93207816D01*
X172459514Y-93199054D01*
X172507488Y-93148259D01*
X172575308Y-93131463D01*
X172641444Y-93153999D01*
X172680486Y-93199056D01*
X172684951Y-93207820D01*
X172809890Y-93379786D01*
X172960213Y-93530109D01*
X173132179Y-93655048D01*
X173132181Y-93655049D01*
X173132184Y-93655051D01*
X173321588Y-93751557D01*
X173523757Y-93817246D01*
X173733713Y-93850500D01*
X173733714Y-93850500D01*
X173946286Y-93850500D01*
X173946287Y-93850500D01*
X174156243Y-93817246D01*
X174358412Y-93751557D01*
X174547816Y-93655051D01*
X174634138Y-93592335D01*
X174719786Y-93530109D01*
X174719788Y-93530106D01*
X174719792Y-93530104D01*
X174870104Y-93379792D01*
X174870106Y-93379788D01*
X174870109Y-93379786D01*
X174995048Y-93207820D01*
X174995047Y-93207820D01*
X174995051Y-93207816D01*
X174999514Y-93199054D01*
X175047488Y-93148259D01*
X175115308Y-93131463D01*
X175181444Y-93153999D01*
X175220486Y-93199056D01*
X175224951Y-93207820D01*
X175349890Y-93379786D01*
X175500213Y-93530109D01*
X175672179Y-93655048D01*
X175672181Y-93655049D01*
X175672184Y-93655051D01*
X175861588Y-93751557D01*
X176063757Y-93817246D01*
X176273713Y-93850500D01*
X176273714Y-93850500D01*
X176486286Y-93850500D01*
X176486287Y-93850500D01*
X176696243Y-93817246D01*
X176898412Y-93751557D01*
X177087816Y-93655051D01*
X177174138Y-93592335D01*
X177259786Y-93530109D01*
X177259788Y-93530106D01*
X177259792Y-93530104D01*
X177410104Y-93379792D01*
X177410106Y-93379788D01*
X177410109Y-93379786D01*
X177535048Y-93207820D01*
X177535047Y-93207820D01*
X177535051Y-93207816D01*
X177539514Y-93199054D01*
X177587488Y-93148259D01*
X177655308Y-93131463D01*
X177721444Y-93153999D01*
X177760486Y-93199056D01*
X177764951Y-93207820D01*
X177889890Y-93379786D01*
X178040213Y-93530109D01*
X178212179Y-93655048D01*
X178212181Y-93655049D01*
X178212184Y-93655051D01*
X178401588Y-93751557D01*
X178603757Y-93817246D01*
X178813713Y-93850500D01*
X178813714Y-93850500D01*
X179026286Y-93850500D01*
X179026287Y-93850500D01*
X179236243Y-93817246D01*
X179438412Y-93751557D01*
X179627816Y-93655051D01*
X179714138Y-93592335D01*
X179799786Y-93530109D01*
X179799788Y-93530106D01*
X179799792Y-93530104D01*
X179950104Y-93379792D01*
X179950106Y-93379788D01*
X179950109Y-93379786D01*
X180075048Y-93207820D01*
X180075047Y-93207820D01*
X180075051Y-93207816D01*
X180079514Y-93199054D01*
X180127488Y-93148259D01*
X180195308Y-93131463D01*
X180261444Y-93153999D01*
X180300486Y-93199056D01*
X180304951Y-93207820D01*
X180429890Y-93379786D01*
X180580213Y-93530109D01*
X180752179Y-93655048D01*
X180752181Y-93655049D01*
X180752184Y-93655051D01*
X180941588Y-93751557D01*
X181143757Y-93817246D01*
X181353713Y-93850500D01*
X181353714Y-93850500D01*
X181566286Y-93850500D01*
X181566287Y-93850500D01*
X181776243Y-93817246D01*
X181978412Y-93751557D01*
X182167816Y-93655051D01*
X182254138Y-93592335D01*
X182339786Y-93530109D01*
X182339788Y-93530106D01*
X182339792Y-93530104D01*
X182490104Y-93379792D01*
X182490106Y-93379788D01*
X182490109Y-93379786D01*
X182615048Y-93207820D01*
X182615047Y-93207820D01*
X182615051Y-93207816D01*
X182619514Y-93199054D01*
X182667488Y-93148259D01*
X182735308Y-93131463D01*
X182801444Y-93153999D01*
X182840486Y-93199056D01*
X182844951Y-93207820D01*
X182969890Y-93379786D01*
X183120213Y-93530109D01*
X183292179Y-93655048D01*
X183292181Y-93655049D01*
X183292184Y-93655051D01*
X183481588Y-93751557D01*
X183683757Y-93817246D01*
X183893713Y-93850500D01*
X183893714Y-93850500D01*
X184106286Y-93850500D01*
X184106287Y-93850500D01*
X184316243Y-93817246D01*
X184518412Y-93751557D01*
X184707816Y-93655051D01*
X184794138Y-93592335D01*
X184879786Y-93530109D01*
X184879788Y-93530106D01*
X184879792Y-93530104D01*
X185030104Y-93379792D01*
X185030106Y-93379788D01*
X185030109Y-93379786D01*
X185155048Y-93207820D01*
X185155047Y-93207820D01*
X185155051Y-93207816D01*
X185251557Y-93018412D01*
X185317246Y-92816243D01*
X185350500Y-92606287D01*
X185350500Y-92393713D01*
X185317246Y-92183757D01*
X185251557Y-91981588D01*
X185155051Y-91792184D01*
X185155049Y-91792181D01*
X185155048Y-91792179D01*
X185030109Y-91620213D01*
X184879786Y-91469890D01*
X184707820Y-91344951D01*
X184518414Y-91248444D01*
X184518413Y-91248443D01*
X184518412Y-91248443D01*
X184316243Y-91182754D01*
X184316241Y-91182753D01*
X184316240Y-91182753D01*
X184154957Y-91157208D01*
X184106287Y-91149500D01*
X183893713Y-91149500D01*
X183845042Y-91157208D01*
X183683760Y-91182753D01*
X183481585Y-91248444D01*
X183292179Y-91344951D01*
X183120213Y-91469890D01*
X182969890Y-91620213D01*
X182844949Y-91792182D01*
X182840484Y-91800946D01*
X182792509Y-91851742D01*
X182724688Y-91868536D01*
X182658553Y-91845998D01*
X182619516Y-91800946D01*
X182615050Y-91792182D01*
X182490109Y-91620213D01*
X182339786Y-91469890D01*
X182167820Y-91344951D01*
X181978414Y-91248444D01*
X181978413Y-91248443D01*
X181978412Y-91248443D01*
X181776243Y-91182754D01*
X181776241Y-91182753D01*
X181776240Y-91182753D01*
X181614957Y-91157208D01*
X181566287Y-91149500D01*
X181353713Y-91149500D01*
X181305042Y-91157208D01*
X181143760Y-91182753D01*
X180941585Y-91248444D01*
X180752179Y-91344951D01*
X180580213Y-91469890D01*
X180429890Y-91620213D01*
X180304949Y-91792182D01*
X180300484Y-91800946D01*
X180252509Y-91851742D01*
X180184688Y-91868536D01*
X180118553Y-91845998D01*
X180079516Y-91800946D01*
X180075050Y-91792182D01*
X179950109Y-91620213D01*
X179799786Y-91469890D01*
X179627820Y-91344951D01*
X179438414Y-91248444D01*
X179438413Y-91248443D01*
X179438412Y-91248443D01*
X179236243Y-91182754D01*
X179236241Y-91182753D01*
X179236240Y-91182753D01*
X179074957Y-91157208D01*
X179026287Y-91149500D01*
X178813713Y-91149500D01*
X178765042Y-91157208D01*
X178603760Y-91182753D01*
X178401585Y-91248444D01*
X178212179Y-91344951D01*
X178040213Y-91469890D01*
X177889890Y-91620213D01*
X177764949Y-91792182D01*
X177760484Y-91800946D01*
X177712509Y-91851742D01*
X177644688Y-91868536D01*
X177578553Y-91845998D01*
X177539516Y-91800946D01*
X177535050Y-91792182D01*
X177410109Y-91620213D01*
X177259786Y-91469890D01*
X177087820Y-91344951D01*
X176898414Y-91248444D01*
X176898413Y-91248443D01*
X176898412Y-91248443D01*
X176696243Y-91182754D01*
X176696241Y-91182753D01*
X176696240Y-91182753D01*
X176534957Y-91157208D01*
X176486287Y-91149500D01*
X176273713Y-91149500D01*
X176225042Y-91157208D01*
X176063760Y-91182753D01*
X175861585Y-91248444D01*
X175672179Y-91344951D01*
X175500213Y-91469890D01*
X175349890Y-91620213D01*
X175224949Y-91792182D01*
X175220484Y-91800946D01*
X175172509Y-91851742D01*
X175104688Y-91868536D01*
X175038553Y-91845998D01*
X174999516Y-91800946D01*
X174995050Y-91792182D01*
X174870109Y-91620213D01*
X174719786Y-91469890D01*
X174547820Y-91344951D01*
X174358414Y-91248444D01*
X174358413Y-91248443D01*
X174358412Y-91248443D01*
X174156243Y-91182754D01*
X174156241Y-91182753D01*
X174156240Y-91182753D01*
X173994957Y-91157208D01*
X173946287Y-91149500D01*
X173733713Y-91149500D01*
X173685042Y-91157208D01*
X173523760Y-91182753D01*
X173321585Y-91248444D01*
X173132179Y-91344951D01*
X172960213Y-91469890D01*
X172809890Y-91620213D01*
X172684949Y-91792182D01*
X172680484Y-91800946D01*
X172632509Y-91851742D01*
X172564688Y-91868536D01*
X172498553Y-91845998D01*
X172459516Y-91800946D01*
X172455050Y-91792182D01*
X172330109Y-91620213D01*
X172179786Y-91469890D01*
X172007820Y-91344951D01*
X171818414Y-91248444D01*
X171818413Y-91248443D01*
X171818412Y-91248443D01*
X171616243Y-91182754D01*
X171616241Y-91182753D01*
X171616240Y-91182753D01*
X171454957Y-91157208D01*
X171406287Y-91149500D01*
X171193713Y-91149500D01*
X171145042Y-91157208D01*
X170983760Y-91182753D01*
X170781585Y-91248444D01*
X170592179Y-91344951D01*
X170420213Y-91469890D01*
X170269890Y-91620213D01*
X170144949Y-91792182D01*
X170140484Y-91800946D01*
X170092509Y-91851742D01*
X170024688Y-91868536D01*
X169958553Y-91845998D01*
X169919516Y-91800946D01*
X169915050Y-91792182D01*
X169790109Y-91620213D01*
X169639786Y-91469890D01*
X169467820Y-91344951D01*
X169278414Y-91248444D01*
X169278413Y-91248443D01*
X169278412Y-91248443D01*
X169076243Y-91182754D01*
X169076241Y-91182753D01*
X169076240Y-91182753D01*
X168914957Y-91157208D01*
X168866287Y-91149500D01*
X168653713Y-91149500D01*
X168605042Y-91157208D01*
X168443760Y-91182753D01*
X168241585Y-91248444D01*
X168052179Y-91344951D01*
X167880213Y-91469890D01*
X167729890Y-91620213D01*
X167604949Y-91792182D01*
X167600202Y-91801499D01*
X167552227Y-91852293D01*
X167484405Y-91869087D01*
X167418271Y-91846548D01*
X167379234Y-91801495D01*
X167374626Y-91792452D01*
X167335270Y-91738282D01*
X167335269Y-91738282D01*
X166702962Y-92370590D01*
X166685925Y-92307007D01*
X166620099Y-92192993D01*
X166527007Y-92099901D01*
X166412993Y-92034075D01*
X166349409Y-92017037D01*
X166981716Y-91384728D01*
X166927550Y-91345375D01*
X166738217Y-91248904D01*
X166536129Y-91183242D01*
X166326246Y-91150000D01*
X166113754Y-91150000D01*
X165903872Y-91183242D01*
X165903869Y-91183242D01*
X165701782Y-91248904D01*
X165512439Y-91345380D01*
X165458282Y-91384727D01*
X165458282Y-91384728D01*
X166090591Y-92017037D01*
X166027007Y-92034075D01*
X165912993Y-92099901D01*
X165819901Y-92192993D01*
X165754075Y-92307007D01*
X165737037Y-92370591D01*
X165104728Y-91738282D01*
X165104727Y-91738282D01*
X165065380Y-91792440D01*
X165065376Y-91792446D01*
X165060760Y-91801505D01*
X165012781Y-91852297D01*
X164944959Y-91869087D01*
X164878826Y-91846543D01*
X164839794Y-91801493D01*
X164835051Y-91792184D01*
X164835049Y-91792181D01*
X164835048Y-91792179D01*
X164710109Y-91620213D01*
X164559786Y-91469890D01*
X164387820Y-91344951D01*
X164198414Y-91248444D01*
X164198413Y-91248443D01*
X164198412Y-91248443D01*
X163996243Y-91182754D01*
X163996241Y-91182753D01*
X163996240Y-91182753D01*
X163834957Y-91157208D01*
X163786287Y-91149500D01*
X163573713Y-91149500D01*
X163525042Y-91157208D01*
X163363760Y-91182753D01*
X163161585Y-91248444D01*
X162972179Y-91344951D01*
X162800213Y-91469890D01*
X162649890Y-91620213D01*
X162524949Y-91792182D01*
X162520484Y-91800946D01*
X162472509Y-91851742D01*
X162404688Y-91868536D01*
X162338553Y-91845998D01*
X162299516Y-91800946D01*
X162295050Y-91792182D01*
X162170109Y-91620213D01*
X162019786Y-91469890D01*
X161847820Y-91344951D01*
X161658414Y-91248444D01*
X161658413Y-91248443D01*
X161658412Y-91248443D01*
X161456243Y-91182754D01*
X161456241Y-91182753D01*
X161456240Y-91182753D01*
X161294957Y-91157208D01*
X161246287Y-91149500D01*
X161033713Y-91149500D01*
X160985042Y-91157208D01*
X160823760Y-91182753D01*
X160621585Y-91248444D01*
X160432179Y-91344951D01*
X160260213Y-91469890D01*
X160109890Y-91620213D01*
X159984949Y-91792182D01*
X159980484Y-91800946D01*
X159932509Y-91851742D01*
X159864688Y-91868536D01*
X159798553Y-91845998D01*
X159759516Y-91800946D01*
X159755050Y-91792182D01*
X159630109Y-91620213D01*
X159479786Y-91469890D01*
X159307820Y-91344951D01*
X159118414Y-91248444D01*
X159118413Y-91248443D01*
X159118412Y-91248443D01*
X158916243Y-91182754D01*
X158916241Y-91182753D01*
X158916240Y-91182753D01*
X158754957Y-91157208D01*
X158706287Y-91149500D01*
X158493713Y-91149500D01*
X158445042Y-91157208D01*
X158283760Y-91182753D01*
X158081585Y-91248444D01*
X157892179Y-91344951D01*
X157720213Y-91469890D01*
X157569890Y-91620213D01*
X157444949Y-91792182D01*
X157440484Y-91800946D01*
X157392509Y-91851742D01*
X157324688Y-91868536D01*
X157258553Y-91845998D01*
X157219516Y-91800946D01*
X157215050Y-91792182D01*
X157090109Y-91620213D01*
X156939786Y-91469890D01*
X156767820Y-91344951D01*
X156578414Y-91248444D01*
X156578413Y-91248443D01*
X156578412Y-91248443D01*
X156376243Y-91182754D01*
X156376241Y-91182753D01*
X156376240Y-91182753D01*
X156214957Y-91157208D01*
X156166287Y-91149500D01*
X155953713Y-91149500D01*
X155905042Y-91157208D01*
X155743760Y-91182753D01*
X155541585Y-91248444D01*
X155352179Y-91344951D01*
X155180213Y-91469890D01*
X155029890Y-91620213D01*
X154904949Y-91792182D01*
X154900484Y-91800946D01*
X154852509Y-91851742D01*
X154784688Y-91868536D01*
X154718553Y-91845998D01*
X154679516Y-91800946D01*
X154675050Y-91792182D01*
X154550109Y-91620213D01*
X154399786Y-91469890D01*
X154227820Y-91344951D01*
X154038414Y-91248444D01*
X154038413Y-91248443D01*
X154038412Y-91248443D01*
X153836243Y-91182754D01*
X153836241Y-91182753D01*
X153836240Y-91182753D01*
X153674957Y-91157208D01*
X153626287Y-91149500D01*
X153413713Y-91149500D01*
X153365042Y-91157208D01*
X153203760Y-91182753D01*
X153001585Y-91248444D01*
X152812179Y-91344951D01*
X152640213Y-91469890D01*
X152489890Y-91620213D01*
X152364949Y-91792182D01*
X152360484Y-91800946D01*
X152312509Y-91851742D01*
X152244688Y-91868536D01*
X152178553Y-91845998D01*
X152139516Y-91800946D01*
X152135050Y-91792182D01*
X152010109Y-91620213D01*
X151859786Y-91469890D01*
X151687820Y-91344951D01*
X151498414Y-91248444D01*
X151498413Y-91248443D01*
X151498412Y-91248443D01*
X151296243Y-91182754D01*
X151296241Y-91182753D01*
X151296240Y-91182753D01*
X151134957Y-91157208D01*
X151086287Y-91149500D01*
X150873713Y-91149500D01*
X150825042Y-91157208D01*
X150663760Y-91182753D01*
X150461585Y-91248444D01*
X150272179Y-91344951D01*
X150100213Y-91469890D01*
X149949890Y-91620213D01*
X149824949Y-91792182D01*
X149820484Y-91800946D01*
X149772509Y-91851742D01*
X149704688Y-91868536D01*
X149638553Y-91845998D01*
X149599516Y-91800946D01*
X149595050Y-91792182D01*
X149470109Y-91620213D01*
X149319786Y-91469890D01*
X149147820Y-91344951D01*
X148958414Y-91248444D01*
X148958413Y-91248443D01*
X148958412Y-91248443D01*
X148756243Y-91182754D01*
X148756241Y-91182753D01*
X148756240Y-91182753D01*
X148594957Y-91157208D01*
X148546287Y-91149500D01*
X148333713Y-91149500D01*
X148285042Y-91157208D01*
X148123760Y-91182753D01*
X147921585Y-91248444D01*
X147732179Y-91344951D01*
X147560213Y-91469890D01*
X147409890Y-91620213D01*
X147284949Y-91792182D01*
X147280484Y-91800946D01*
X147232509Y-91851742D01*
X147164688Y-91868536D01*
X147098553Y-91845998D01*
X147059516Y-91800946D01*
X147055050Y-91792182D01*
X146930109Y-91620213D01*
X146779786Y-91469890D01*
X146607820Y-91344951D01*
X146418414Y-91248444D01*
X146418413Y-91248443D01*
X146418412Y-91248443D01*
X146216243Y-91182754D01*
X146216241Y-91182753D01*
X146216240Y-91182753D01*
X146054957Y-91157208D01*
X146006287Y-91149500D01*
X145793713Y-91149500D01*
X145745042Y-91157208D01*
X145583760Y-91182753D01*
X145381585Y-91248444D01*
X145192179Y-91344951D01*
X145020213Y-91469890D01*
X144869890Y-91620213D01*
X144744949Y-91792182D01*
X144740484Y-91800946D01*
X144692509Y-91851742D01*
X144624688Y-91868536D01*
X144558553Y-91845998D01*
X144519516Y-91800946D01*
X144515050Y-91792182D01*
X144390109Y-91620213D01*
X144239786Y-91469890D01*
X144067820Y-91344951D01*
X143878414Y-91248444D01*
X143878413Y-91248443D01*
X143878412Y-91248443D01*
X143676243Y-91182754D01*
X143676241Y-91182753D01*
X143676240Y-91182753D01*
X143514957Y-91157208D01*
X143466287Y-91149500D01*
X143253713Y-91149500D01*
X143205042Y-91157208D01*
X143043760Y-91182753D01*
X142841585Y-91248444D01*
X142652179Y-91344951D01*
X142480213Y-91469890D01*
X142329890Y-91620213D01*
X142204949Y-91792182D01*
X142200484Y-91800946D01*
X142152509Y-91851742D01*
X142084688Y-91868536D01*
X142018553Y-91845998D01*
X141979516Y-91800946D01*
X141975050Y-91792182D01*
X141850109Y-91620213D01*
X141699786Y-91469890D01*
X141527820Y-91344951D01*
X141338414Y-91248444D01*
X141338413Y-91248443D01*
X141338412Y-91248443D01*
X141136243Y-91182754D01*
X141136241Y-91182753D01*
X141136240Y-91182753D01*
X140974957Y-91157208D01*
X140926287Y-91149500D01*
X140713713Y-91149500D01*
X140665042Y-91157208D01*
X140503760Y-91182753D01*
X140301585Y-91248444D01*
X140112179Y-91344951D01*
X139940213Y-91469890D01*
X139789890Y-91620213D01*
X139664949Y-91792182D01*
X139660484Y-91800946D01*
X139612509Y-91851742D01*
X139544688Y-91868536D01*
X139478553Y-91845998D01*
X139439516Y-91800946D01*
X139435050Y-91792182D01*
X139310109Y-91620213D01*
X139159786Y-91469890D01*
X138987820Y-91344951D01*
X138798414Y-91248444D01*
X138798413Y-91248443D01*
X138798412Y-91248443D01*
X138596243Y-91182754D01*
X138596241Y-91182753D01*
X138596240Y-91182753D01*
X138434957Y-91157208D01*
X138386287Y-91149500D01*
X138173713Y-91149500D01*
X138125042Y-91157208D01*
X137963760Y-91182753D01*
X137761585Y-91248444D01*
X137572179Y-91344951D01*
X137400215Y-91469889D01*
X137286673Y-91583431D01*
X137225350Y-91616915D01*
X137155658Y-91611931D01*
X137099725Y-91570059D01*
X137082810Y-91539082D01*
X137033797Y-91407671D01*
X137033793Y-91407664D01*
X136947547Y-91292455D01*
X136947544Y-91292452D01*
X136832335Y-91206206D01*
X136832328Y-91206202D01*
X136697482Y-91155908D01*
X136697483Y-91155908D01*
X136637883Y-91149501D01*
X136637881Y-91149500D01*
X136637873Y-91149500D01*
X136637864Y-91149500D01*
X134842129Y-91149500D01*
X134842123Y-91149501D01*
X134782516Y-91155908D01*
X134647671Y-91206202D01*
X134647664Y-91206206D01*
X134532455Y-91292452D01*
X134532452Y-91292455D01*
X134446206Y-91407664D01*
X134446202Y-91407671D01*
X134395908Y-91542517D01*
X134389501Y-91602116D01*
X134389500Y-91602135D01*
X114000500Y-91602135D01*
X114000500Y-79087648D01*
X120449500Y-79087648D01*
X120449500Y-79292351D01*
X120481522Y-79494534D01*
X120544781Y-79689223D01*
X120637715Y-79871613D01*
X120758028Y-80037213D01*
X120902786Y-80181971D01*
X121057749Y-80294556D01*
X121068390Y-80302287D01*
X121184607Y-80361503D01*
X121250776Y-80395218D01*
X121250778Y-80395218D01*
X121250781Y-80395220D01*
X121329956Y-80420945D01*
X121441131Y-80457069D01*
X121498806Y-80496507D01*
X121526004Y-80560866D01*
X121514089Y-80629712D01*
X121466845Y-80681188D01*
X121441131Y-80692931D01*
X121250776Y-80754781D01*
X121068386Y-80847715D01*
X120902786Y-80968028D01*
X120758028Y-81112786D01*
X120637715Y-81278386D01*
X120544781Y-81460776D01*
X120481522Y-81655465D01*
X120449500Y-81857648D01*
X120449500Y-82062351D01*
X120481522Y-82264534D01*
X120544781Y-82459223D01*
X120637715Y-82641613D01*
X120758028Y-82807213D01*
X120902786Y-82951971D01*
X121057749Y-83064556D01*
X121068390Y-83072287D01*
X121184607Y-83131503D01*
X121250776Y-83165218D01*
X121250778Y-83165218D01*
X121250781Y-83165220D01*
X121329956Y-83190945D01*
X121441131Y-83227069D01*
X121498806Y-83266507D01*
X121526004Y-83330866D01*
X121514089Y-83399712D01*
X121466845Y-83451188D01*
X121441131Y-83462931D01*
X121250776Y-83524781D01*
X121068386Y-83617715D01*
X120902786Y-83738028D01*
X120758028Y-83882786D01*
X120637715Y-84048386D01*
X120544781Y-84230776D01*
X120481522Y-84425465D01*
X120449500Y-84627648D01*
X120449500Y-84832351D01*
X120481522Y-85034534D01*
X120544781Y-85229223D01*
X120637715Y-85411613D01*
X120758028Y-85577213D01*
X120902786Y-85721971D01*
X121057749Y-85834556D01*
X121068390Y-85842287D01*
X121184607Y-85901503D01*
X121250776Y-85935218D01*
X121250778Y-85935218D01*
X121250781Y-85935220D01*
X121329956Y-85960945D01*
X121441131Y-85997069D01*
X121498806Y-86036507D01*
X121526004Y-86100866D01*
X121514089Y-86169712D01*
X121466845Y-86221188D01*
X121441131Y-86232931D01*
X121250776Y-86294781D01*
X121068386Y-86387715D01*
X120902786Y-86508028D01*
X120758028Y-86652786D01*
X120637715Y-86818386D01*
X120544781Y-87000776D01*
X120481522Y-87195465D01*
X120449500Y-87397648D01*
X120449500Y-87602351D01*
X120481522Y-87804534D01*
X120544781Y-87999223D01*
X120637715Y-88181613D01*
X120758028Y-88347213D01*
X120902786Y-88491971D01*
X121021188Y-88577993D01*
X121068390Y-88612287D01*
X121184607Y-88671503D01*
X121250776Y-88705218D01*
X121250778Y-88705218D01*
X121250781Y-88705220D01*
X121355137Y-88739127D01*
X121445465Y-88768477D01*
X121546557Y-88784488D01*
X121647648Y-88800500D01*
X121647649Y-88800500D01*
X121852351Y-88800500D01*
X121852352Y-88800500D01*
X122054534Y-88768477D01*
X122249219Y-88705220D01*
X122431610Y-88612287D01*
X122524590Y-88544732D01*
X122597213Y-88491971D01*
X122597215Y-88491968D01*
X122597219Y-88491966D01*
X122741966Y-88347219D01*
X122741968Y-88347215D01*
X122741971Y-88347213D01*
X122794732Y-88274590D01*
X122862287Y-88181610D01*
X122955220Y-87999219D01*
X123018477Y-87804534D01*
X123050500Y-87602352D01*
X123050500Y-87397648D01*
X123018477Y-87195465D01*
X122955218Y-87000776D01*
X122921503Y-86934607D01*
X122862287Y-86818390D01*
X122846463Y-86796610D01*
X122741971Y-86652786D01*
X122597213Y-86508028D01*
X122431613Y-86387715D01*
X122431612Y-86387714D01*
X122431610Y-86387713D01*
X122374653Y-86358691D01*
X122249223Y-86294781D01*
X122058868Y-86232931D01*
X122001193Y-86193493D01*
X121973995Y-86129134D01*
X121985910Y-86060288D01*
X122033154Y-86008812D01*
X122058868Y-85997069D01*
X122101508Y-85983213D01*
X122249219Y-85935220D01*
X122431610Y-85842287D01*
X122524590Y-85774732D01*
X122597213Y-85721971D01*
X122597215Y-85721968D01*
X122597219Y-85721966D01*
X122741966Y-85577219D01*
X122741968Y-85577215D01*
X122741971Y-85577213D01*
X122794732Y-85504590D01*
X122862287Y-85411610D01*
X122955220Y-85229219D01*
X123018477Y-85034534D01*
X123050500Y-84832352D01*
X123050500Y-84627648D01*
X123049892Y-84623812D01*
X123018477Y-84425465D01*
X122955218Y-84230776D01*
X122921503Y-84164607D01*
X122862287Y-84048390D01*
X122846463Y-84026610D01*
X122741971Y-83882786D01*
X122597213Y-83738028D01*
X122431613Y-83617715D01*
X122431612Y-83617714D01*
X122431610Y-83617713D01*
X122374653Y-83588691D01*
X122249223Y-83524781D01*
X122058868Y-83462931D01*
X122001193Y-83423493D01*
X121973995Y-83359134D01*
X121985910Y-83290288D01*
X122033154Y-83238812D01*
X122058868Y-83227069D01*
X122101508Y-83213213D01*
X122249219Y-83165220D01*
X122431610Y-83072287D01*
X122524590Y-83004732D01*
X122597213Y-82951971D01*
X122597215Y-82951968D01*
X122597219Y-82951966D01*
X122741966Y-82807219D01*
X122741968Y-82807215D01*
X122741971Y-82807213D01*
X122794732Y-82734590D01*
X122862287Y-82641610D01*
X122955220Y-82459219D01*
X123018477Y-82264534D01*
X123050500Y-82062352D01*
X123050500Y-81857648D01*
X123049892Y-81853812D01*
X123018477Y-81655465D01*
X122955218Y-81460776D01*
X122921503Y-81394607D01*
X122862287Y-81278390D01*
X122846463Y-81256610D01*
X122741971Y-81112786D01*
X122597213Y-80968028D01*
X122431613Y-80847715D01*
X122431612Y-80847714D01*
X122431610Y-80847713D01*
X122374653Y-80818691D01*
X122249223Y-80754781D01*
X122058868Y-80692931D01*
X122001193Y-80653493D01*
X121973995Y-80589134D01*
X121985910Y-80520288D01*
X122033154Y-80468812D01*
X122058868Y-80457069D01*
X122101508Y-80443213D01*
X122249219Y-80395220D01*
X122431610Y-80302287D01*
X122524590Y-80234732D01*
X122597213Y-80181971D01*
X122597215Y-80181968D01*
X122597219Y-80181966D01*
X122741966Y-80037219D01*
X122741968Y-80037215D01*
X122741971Y-80037213D01*
X122794732Y-79964590D01*
X122862287Y-79871610D01*
X122955220Y-79689219D01*
X123018477Y-79494534D01*
X123050500Y-79292352D01*
X123050500Y-79087648D01*
X123049892Y-79083812D01*
X123018477Y-78885465D01*
X122955218Y-78690776D01*
X122921503Y-78624607D01*
X122862287Y-78508390D01*
X122846463Y-78486610D01*
X122741971Y-78342786D01*
X122597213Y-78198028D01*
X122431613Y-78077715D01*
X122431612Y-78077714D01*
X122431610Y-78077713D01*
X122374653Y-78048691D01*
X122249223Y-77984781D01*
X122054534Y-77921522D01*
X121879995Y-77893878D01*
X121852352Y-77889500D01*
X121647648Y-77889500D01*
X121623329Y-77893351D01*
X121445465Y-77921522D01*
X121250776Y-77984781D01*
X121068386Y-78077715D01*
X120902786Y-78198028D01*
X120758028Y-78342786D01*
X120637715Y-78508386D01*
X120544781Y-78690776D01*
X120481522Y-78885465D01*
X120449500Y-79087648D01*
X114000500Y-79087648D01*
X114000500Y-77702648D01*
X123289500Y-77702648D01*
X123289500Y-77907351D01*
X123321522Y-78109534D01*
X123384781Y-78304223D01*
X123477715Y-78486613D01*
X123598028Y-78652213D01*
X123742786Y-78796971D01*
X123897749Y-78909556D01*
X123908390Y-78917287D01*
X124024607Y-78976503D01*
X124090776Y-79010218D01*
X124090778Y-79010218D01*
X124090781Y-79010220D01*
X124169956Y-79035945D01*
X124281131Y-79072069D01*
X124338806Y-79111507D01*
X124366004Y-79175866D01*
X124354089Y-79244712D01*
X124306845Y-79296188D01*
X124281131Y-79307931D01*
X124090776Y-79369781D01*
X123908386Y-79462715D01*
X123742786Y-79583028D01*
X123598028Y-79727786D01*
X123477715Y-79893386D01*
X123384781Y-80075776D01*
X123321522Y-80270465D01*
X123289500Y-80472648D01*
X123289500Y-80677351D01*
X123321522Y-80879534D01*
X123384781Y-81074223D01*
X123477715Y-81256613D01*
X123598028Y-81422213D01*
X123742786Y-81566971D01*
X123897749Y-81679556D01*
X123908390Y-81687287D01*
X124024607Y-81746503D01*
X124090776Y-81780218D01*
X124090778Y-81780218D01*
X124090781Y-81780220D01*
X124169956Y-81805945D01*
X124281131Y-81842069D01*
X124338806Y-81881507D01*
X124366004Y-81945866D01*
X124354089Y-82014712D01*
X124306845Y-82066188D01*
X124281131Y-82077931D01*
X124090776Y-82139781D01*
X123908386Y-82232715D01*
X123742786Y-82353028D01*
X123598028Y-82497786D01*
X123477715Y-82663386D01*
X123384781Y-82845776D01*
X123321522Y-83040465D01*
X123289500Y-83242648D01*
X123289500Y-83447351D01*
X123321522Y-83649534D01*
X123384781Y-83844223D01*
X123477715Y-84026613D01*
X123598028Y-84192213D01*
X123742786Y-84336971D01*
X123897749Y-84449556D01*
X123908390Y-84457287D01*
X124024607Y-84516503D01*
X124090776Y-84550218D01*
X124090778Y-84550218D01*
X124090781Y-84550220D01*
X124169956Y-84575945D01*
X124281131Y-84612069D01*
X124338806Y-84651507D01*
X124366004Y-84715866D01*
X124354089Y-84784712D01*
X124306845Y-84836188D01*
X124281131Y-84847931D01*
X124090776Y-84909781D01*
X123908386Y-85002715D01*
X123742786Y-85123028D01*
X123598028Y-85267786D01*
X123477715Y-85433386D01*
X123384781Y-85615776D01*
X123321522Y-85810465D01*
X123289500Y-86012648D01*
X123289500Y-86217351D01*
X123321522Y-86419534D01*
X123384781Y-86614223D01*
X123477715Y-86796613D01*
X123598028Y-86962213D01*
X123742786Y-87106971D01*
X123897749Y-87219556D01*
X123908390Y-87227287D01*
X124024607Y-87286503D01*
X124090776Y-87320218D01*
X124090778Y-87320218D01*
X124090781Y-87320220D01*
X124161104Y-87343069D01*
X124218779Y-87382507D01*
X124245977Y-87446866D01*
X124234062Y-87515712D01*
X124186818Y-87567188D01*
X124122785Y-87585000D01*
X123742155Y-87585000D01*
X123682627Y-87591401D01*
X123682620Y-87591403D01*
X123547913Y-87641645D01*
X123547906Y-87641649D01*
X123432812Y-87727809D01*
X123432809Y-87727812D01*
X123346649Y-87842906D01*
X123346645Y-87842913D01*
X123296403Y-87977620D01*
X123296401Y-87977627D01*
X123290000Y-88037155D01*
X123290000Y-88635000D01*
X124156988Y-88635000D01*
X124124075Y-88692007D01*
X124090000Y-88819174D01*
X124090000Y-88950826D01*
X124124075Y-89077993D01*
X124156988Y-89135000D01*
X123290000Y-89135000D01*
X123290000Y-89732844D01*
X123296401Y-89792372D01*
X123296403Y-89792379D01*
X123346645Y-89927086D01*
X123346649Y-89927093D01*
X123432809Y-90042187D01*
X123432812Y-90042190D01*
X123547906Y-90128350D01*
X123547913Y-90128354D01*
X123682620Y-90178596D01*
X123682627Y-90178598D01*
X123742155Y-90184999D01*
X123742172Y-90185000D01*
X124340000Y-90185000D01*
X124340000Y-89318012D01*
X124397007Y-89350925D01*
X124524174Y-89385000D01*
X124655826Y-89385000D01*
X124782993Y-89350925D01*
X124840000Y-89318012D01*
X124840000Y-90185000D01*
X125437828Y-90185000D01*
X125437844Y-90184999D01*
X125497372Y-90178598D01*
X125497379Y-90178596D01*
X125632086Y-90128354D01*
X125632093Y-90128350D01*
X125747187Y-90042190D01*
X125747190Y-90042187D01*
X125833350Y-89927093D01*
X125833354Y-89927086D01*
X125883596Y-89792379D01*
X125883598Y-89792372D01*
X125889999Y-89732844D01*
X125890000Y-89732827D01*
X125890000Y-89135000D01*
X125023012Y-89135000D01*
X125055925Y-89077993D01*
X125090000Y-88950826D01*
X125090000Y-88819174D01*
X125055925Y-88692007D01*
X125023012Y-88635000D01*
X125890000Y-88635000D01*
X125890000Y-88037172D01*
X125889999Y-88037155D01*
X125883598Y-87977627D01*
X125883596Y-87977620D01*
X125833354Y-87842913D01*
X125833350Y-87842906D01*
X125747190Y-87727812D01*
X125747187Y-87727809D01*
X125632093Y-87641649D01*
X125632086Y-87641645D01*
X125497379Y-87591403D01*
X125497372Y-87591401D01*
X125437844Y-87585000D01*
X125057215Y-87585000D01*
X124990176Y-87565315D01*
X124944421Y-87512511D01*
X124934477Y-87443353D01*
X124963502Y-87379797D01*
X125018895Y-87343069D01*
X125089219Y-87320220D01*
X125271610Y-87227287D01*
X125364590Y-87159732D01*
X125437213Y-87106971D01*
X125437215Y-87106968D01*
X125437219Y-87106966D01*
X125581966Y-86962219D01*
X125581968Y-86962215D01*
X125581971Y-86962213D01*
X125634732Y-86889590D01*
X125702287Y-86796610D01*
X125795220Y-86614219D01*
X125858477Y-86419534D01*
X125890500Y-86217352D01*
X125890500Y-86012648D01*
X125889892Y-86008812D01*
X125858477Y-85810465D01*
X125795218Y-85615776D01*
X125761503Y-85549607D01*
X125702287Y-85433390D01*
X125686463Y-85411610D01*
X125581971Y-85267786D01*
X125437213Y-85123028D01*
X125271613Y-85002715D01*
X125271612Y-85002714D01*
X125271610Y-85002713D01*
X125214653Y-84973691D01*
X125089223Y-84909781D01*
X124898868Y-84847931D01*
X124841193Y-84808493D01*
X124813995Y-84744134D01*
X124825910Y-84675288D01*
X124873154Y-84623812D01*
X124898868Y-84612069D01*
X124941508Y-84598213D01*
X125089219Y-84550220D01*
X125271610Y-84457287D01*
X125364590Y-84389732D01*
X125437213Y-84336971D01*
X125437215Y-84336968D01*
X125437219Y-84336966D01*
X125581966Y-84192219D01*
X125581968Y-84192215D01*
X125581971Y-84192213D01*
X125634732Y-84119590D01*
X125702287Y-84026610D01*
X125795220Y-83844219D01*
X125858477Y-83649534D01*
X125890500Y-83447352D01*
X125890500Y-83242648D01*
X125889892Y-83238812D01*
X125858477Y-83040465D01*
X125795218Y-82845776D01*
X125761503Y-82779607D01*
X125702287Y-82663390D01*
X125686463Y-82641610D01*
X125581971Y-82497786D01*
X125437213Y-82353028D01*
X125271613Y-82232715D01*
X125271612Y-82232714D01*
X125271610Y-82232713D01*
X125214653Y-82203691D01*
X125089223Y-82139781D01*
X124898868Y-82077931D01*
X124841193Y-82038493D01*
X124813995Y-81974134D01*
X124825910Y-81905288D01*
X124873154Y-81853812D01*
X124898868Y-81842069D01*
X124941508Y-81828213D01*
X125089219Y-81780220D01*
X125271610Y-81687287D01*
X125364590Y-81619732D01*
X125437213Y-81566971D01*
X125437215Y-81566968D01*
X125437219Y-81566966D01*
X125581966Y-81422219D01*
X125581968Y-81422215D01*
X125581971Y-81422213D01*
X125634732Y-81349590D01*
X125702287Y-81256610D01*
X125795220Y-81074219D01*
X125858477Y-80879534D01*
X125890500Y-80677352D01*
X125890500Y-80472648D01*
X125889892Y-80468812D01*
X125858477Y-80270465D01*
X125795218Y-80075776D01*
X125761503Y-80009607D01*
X125702287Y-79893390D01*
X125686463Y-79871610D01*
X125581971Y-79727786D01*
X125437213Y-79583028D01*
X125271613Y-79462715D01*
X125271612Y-79462714D01*
X125271610Y-79462713D01*
X125214653Y-79433691D01*
X125089223Y-79369781D01*
X124898868Y-79307931D01*
X124841193Y-79268493D01*
X124813995Y-79204134D01*
X124825910Y-79135288D01*
X124873154Y-79083812D01*
X124898868Y-79072069D01*
X124941508Y-79058213D01*
X125089219Y-79010220D01*
X125271610Y-78917287D01*
X125364590Y-78849732D01*
X125437213Y-78796971D01*
X125437215Y-78796968D01*
X125437219Y-78796966D01*
X125581966Y-78652219D01*
X125581968Y-78652215D01*
X125581971Y-78652213D01*
X125634732Y-78579590D01*
X125702287Y-78486610D01*
X125795220Y-78304219D01*
X125858477Y-78109534D01*
X125890500Y-77907352D01*
X125890500Y-77758650D01*
X125910185Y-77691611D01*
X125926819Y-77670969D01*
X130631572Y-72966216D01*
X130692895Y-72932731D01*
X130719253Y-72929897D01*
X134421191Y-72929897D01*
X134488230Y-72949582D01*
X134533985Y-73002386D01*
X134543929Y-73071544D01*
X134514904Y-73135100D01*
X134464524Y-73170079D01*
X134367671Y-73206202D01*
X134367664Y-73206206D01*
X134252455Y-73292452D01*
X134252452Y-73292455D01*
X134166206Y-73407664D01*
X134166202Y-73407671D01*
X134115908Y-73542517D01*
X134109501Y-73602116D01*
X134109500Y-73602135D01*
X134109500Y-75397870D01*
X134109501Y-75397876D01*
X134115908Y-75457483D01*
X134166202Y-75592328D01*
X134166206Y-75592335D01*
X134252452Y-75707544D01*
X134252455Y-75707547D01*
X134367664Y-75793793D01*
X134367671Y-75793797D01*
X134502517Y-75844091D01*
X134502516Y-75844091D01*
X134509444Y-75844835D01*
X134562127Y-75850500D01*
X136357872Y-75850499D01*
X136417483Y-75844091D01*
X136552331Y-75793796D01*
X136667546Y-75707546D01*
X136753796Y-75592331D01*
X136802810Y-75460916D01*
X136844681Y-75404984D01*
X136910145Y-75380566D01*
X136978418Y-75395417D01*
X137006673Y-75416569D01*
X137120213Y-75530109D01*
X137292179Y-75655048D01*
X137292181Y-75655049D01*
X137292184Y-75655051D01*
X137481588Y-75751557D01*
X137683757Y-75817246D01*
X137893713Y-75850500D01*
X137893714Y-75850500D01*
X138106286Y-75850500D01*
X138106287Y-75850500D01*
X138316243Y-75817246D01*
X138518412Y-75751557D01*
X138707816Y-75655051D01*
X138794138Y-75592335D01*
X138879786Y-75530109D01*
X138879788Y-75530106D01*
X138879792Y-75530104D01*
X139030104Y-75379792D01*
X139030106Y-75379788D01*
X139030109Y-75379786D01*
X139155048Y-75207820D01*
X139155047Y-75207820D01*
X139155051Y-75207816D01*
X139159514Y-75199054D01*
X139207488Y-75148259D01*
X139275308Y-75131463D01*
X139341444Y-75153999D01*
X139380486Y-75199056D01*
X139384951Y-75207820D01*
X139509890Y-75379786D01*
X139660213Y-75530109D01*
X139832179Y-75655048D01*
X139832181Y-75655049D01*
X139832184Y-75655051D01*
X140021588Y-75751557D01*
X140223757Y-75817246D01*
X140433713Y-75850500D01*
X140433714Y-75850500D01*
X140646286Y-75850500D01*
X140646287Y-75850500D01*
X140856243Y-75817246D01*
X141058412Y-75751557D01*
X141247816Y-75655051D01*
X141334138Y-75592335D01*
X141419786Y-75530109D01*
X141419788Y-75530106D01*
X141419792Y-75530104D01*
X141570104Y-75379792D01*
X141570106Y-75379788D01*
X141570109Y-75379786D01*
X141695048Y-75207820D01*
X141695047Y-75207820D01*
X141695051Y-75207816D01*
X141699514Y-75199054D01*
X141747488Y-75148259D01*
X141815308Y-75131463D01*
X141881444Y-75153999D01*
X141920486Y-75199056D01*
X141924951Y-75207820D01*
X142049890Y-75379786D01*
X142200213Y-75530109D01*
X142372179Y-75655048D01*
X142372181Y-75655049D01*
X142372184Y-75655051D01*
X142561588Y-75751557D01*
X142763757Y-75817246D01*
X142973713Y-75850500D01*
X142973714Y-75850500D01*
X143186286Y-75850500D01*
X143186287Y-75850500D01*
X143396243Y-75817246D01*
X143598412Y-75751557D01*
X143787816Y-75655051D01*
X143874138Y-75592335D01*
X143959786Y-75530109D01*
X143959788Y-75530106D01*
X143959792Y-75530104D01*
X144110104Y-75379792D01*
X144110106Y-75379788D01*
X144110109Y-75379786D01*
X144235048Y-75207820D01*
X144235047Y-75207820D01*
X144235051Y-75207816D01*
X144239514Y-75199054D01*
X144287488Y-75148259D01*
X144355308Y-75131463D01*
X144421444Y-75153999D01*
X144460486Y-75199056D01*
X144464951Y-75207820D01*
X144589890Y-75379786D01*
X144740213Y-75530109D01*
X144912179Y-75655048D01*
X144912181Y-75655049D01*
X144912184Y-75655051D01*
X145101588Y-75751557D01*
X145303757Y-75817246D01*
X145513713Y-75850500D01*
X145513714Y-75850500D01*
X145726286Y-75850500D01*
X145726287Y-75850500D01*
X145936243Y-75817246D01*
X146138412Y-75751557D01*
X146327816Y-75655051D01*
X146414138Y-75592335D01*
X146499786Y-75530109D01*
X146499788Y-75530106D01*
X146499792Y-75530104D01*
X146650104Y-75379792D01*
X146650106Y-75379788D01*
X146650109Y-75379786D01*
X146775048Y-75207820D01*
X146775047Y-75207820D01*
X146775051Y-75207816D01*
X146779514Y-75199054D01*
X146827488Y-75148259D01*
X146895308Y-75131463D01*
X146961444Y-75153999D01*
X147000486Y-75199056D01*
X147004951Y-75207820D01*
X147129890Y-75379786D01*
X147280213Y-75530109D01*
X147452179Y-75655048D01*
X147452181Y-75655049D01*
X147452184Y-75655051D01*
X147641588Y-75751557D01*
X147843757Y-75817246D01*
X148053713Y-75850500D01*
X148053714Y-75850500D01*
X148266286Y-75850500D01*
X148266287Y-75850500D01*
X148476243Y-75817246D01*
X148678412Y-75751557D01*
X148867816Y-75655051D01*
X148954138Y-75592335D01*
X149039786Y-75530109D01*
X149039788Y-75530106D01*
X149039792Y-75530104D01*
X149190104Y-75379792D01*
X149190106Y-75379788D01*
X149190109Y-75379786D01*
X149315048Y-75207820D01*
X149315047Y-75207820D01*
X149315051Y-75207816D01*
X149319514Y-75199054D01*
X149367488Y-75148259D01*
X149435308Y-75131463D01*
X149501444Y-75153999D01*
X149540486Y-75199056D01*
X149544951Y-75207820D01*
X149669890Y-75379786D01*
X149820213Y-75530109D01*
X149992179Y-75655048D01*
X149992181Y-75655049D01*
X149992184Y-75655051D01*
X150181588Y-75751557D01*
X150383757Y-75817246D01*
X150593713Y-75850500D01*
X150593714Y-75850500D01*
X150806286Y-75850500D01*
X150806287Y-75850500D01*
X151016243Y-75817246D01*
X151218412Y-75751557D01*
X151407816Y-75655051D01*
X151494138Y-75592335D01*
X151579786Y-75530109D01*
X151579788Y-75530106D01*
X151579792Y-75530104D01*
X151730104Y-75379792D01*
X151730106Y-75379788D01*
X151730109Y-75379786D01*
X151855048Y-75207820D01*
X151855047Y-75207820D01*
X151855051Y-75207816D01*
X151859514Y-75199054D01*
X151907488Y-75148259D01*
X151975308Y-75131463D01*
X152041444Y-75153999D01*
X152080486Y-75199056D01*
X152084951Y-75207820D01*
X152209890Y-75379786D01*
X152360213Y-75530109D01*
X152532179Y-75655048D01*
X152532181Y-75655049D01*
X152532184Y-75655051D01*
X152721588Y-75751557D01*
X152923757Y-75817246D01*
X153133713Y-75850500D01*
X153133714Y-75850500D01*
X153346286Y-75850500D01*
X153346287Y-75850500D01*
X153556243Y-75817246D01*
X153758412Y-75751557D01*
X153947816Y-75655051D01*
X154034138Y-75592335D01*
X154119786Y-75530109D01*
X154119788Y-75530106D01*
X154119792Y-75530104D01*
X154270104Y-75379792D01*
X154270106Y-75379788D01*
X154270109Y-75379786D01*
X154395048Y-75207820D01*
X154395047Y-75207820D01*
X154395051Y-75207816D01*
X154399514Y-75199054D01*
X154447488Y-75148259D01*
X154515308Y-75131463D01*
X154581444Y-75153999D01*
X154620486Y-75199056D01*
X154624951Y-75207820D01*
X154749890Y-75379786D01*
X154900213Y-75530109D01*
X155072179Y-75655048D01*
X155072181Y-75655049D01*
X155072184Y-75655051D01*
X155261588Y-75751557D01*
X155463757Y-75817246D01*
X155673713Y-75850500D01*
X155673714Y-75850500D01*
X155886286Y-75850500D01*
X155886287Y-75850500D01*
X156096243Y-75817246D01*
X156298412Y-75751557D01*
X156487816Y-75655051D01*
X156574138Y-75592335D01*
X156659786Y-75530109D01*
X156659788Y-75530106D01*
X156659792Y-75530104D01*
X156810104Y-75379792D01*
X156810106Y-75379788D01*
X156810109Y-75379786D01*
X156935048Y-75207820D01*
X156935047Y-75207820D01*
X156935051Y-75207816D01*
X156939514Y-75199054D01*
X156987488Y-75148259D01*
X157055308Y-75131463D01*
X157121444Y-75153999D01*
X157160486Y-75199056D01*
X157164951Y-75207820D01*
X157289890Y-75379786D01*
X157440213Y-75530109D01*
X157612179Y-75655048D01*
X157612181Y-75655049D01*
X157612184Y-75655051D01*
X157801588Y-75751557D01*
X158003757Y-75817246D01*
X158213713Y-75850500D01*
X158213714Y-75850500D01*
X158426286Y-75850500D01*
X158426287Y-75850500D01*
X158636243Y-75817246D01*
X158838412Y-75751557D01*
X159027816Y-75655051D01*
X159114138Y-75592335D01*
X159199786Y-75530109D01*
X159199788Y-75530106D01*
X159199792Y-75530104D01*
X159350104Y-75379792D01*
X159350106Y-75379788D01*
X159350109Y-75379786D01*
X159475048Y-75207820D01*
X159475047Y-75207820D01*
X159475051Y-75207816D01*
X159479514Y-75199054D01*
X159527488Y-75148259D01*
X159595308Y-75131463D01*
X159661444Y-75153999D01*
X159700486Y-75199056D01*
X159704951Y-75207820D01*
X159829890Y-75379786D01*
X159980213Y-75530109D01*
X160152179Y-75655048D01*
X160152181Y-75655049D01*
X160152184Y-75655051D01*
X160341588Y-75751557D01*
X160543757Y-75817246D01*
X160753713Y-75850500D01*
X160753714Y-75850500D01*
X160966286Y-75850500D01*
X160966287Y-75850500D01*
X161176243Y-75817246D01*
X161378412Y-75751557D01*
X161567816Y-75655051D01*
X161654138Y-75592335D01*
X161739786Y-75530109D01*
X161739788Y-75530106D01*
X161739792Y-75530104D01*
X161890104Y-75379792D01*
X161890106Y-75379788D01*
X161890109Y-75379786D01*
X162015048Y-75207820D01*
X162015047Y-75207820D01*
X162015051Y-75207816D01*
X162019514Y-75199054D01*
X162067488Y-75148259D01*
X162135308Y-75131463D01*
X162201444Y-75153999D01*
X162240486Y-75199056D01*
X162244951Y-75207820D01*
X162369890Y-75379786D01*
X162520213Y-75530109D01*
X162692179Y-75655048D01*
X162692181Y-75655049D01*
X162692184Y-75655051D01*
X162881588Y-75751557D01*
X163083757Y-75817246D01*
X163293713Y-75850500D01*
X163293714Y-75850500D01*
X163506286Y-75850500D01*
X163506287Y-75850500D01*
X163716243Y-75817246D01*
X163918412Y-75751557D01*
X164107816Y-75655051D01*
X164194138Y-75592335D01*
X164279786Y-75530109D01*
X164279788Y-75530106D01*
X164279792Y-75530104D01*
X164430104Y-75379792D01*
X164430106Y-75379788D01*
X164430109Y-75379786D01*
X164555048Y-75207820D01*
X164555047Y-75207820D01*
X164555051Y-75207816D01*
X164559514Y-75199054D01*
X164607488Y-75148259D01*
X164675308Y-75131463D01*
X164741444Y-75153999D01*
X164780486Y-75199056D01*
X164784951Y-75207820D01*
X164909890Y-75379786D01*
X165060213Y-75530109D01*
X165232179Y-75655048D01*
X165232181Y-75655049D01*
X165232184Y-75655051D01*
X165421588Y-75751557D01*
X165623757Y-75817246D01*
X165833713Y-75850500D01*
X165833714Y-75850500D01*
X166046286Y-75850500D01*
X166046287Y-75850500D01*
X166256243Y-75817246D01*
X166458412Y-75751557D01*
X166647816Y-75655051D01*
X166734138Y-75592335D01*
X166819786Y-75530109D01*
X166819788Y-75530106D01*
X166819792Y-75530104D01*
X166970104Y-75379792D01*
X166970106Y-75379788D01*
X166970109Y-75379786D01*
X167095048Y-75207820D01*
X167095047Y-75207820D01*
X167095051Y-75207816D01*
X167099514Y-75199054D01*
X167147488Y-75148259D01*
X167215308Y-75131463D01*
X167281444Y-75153999D01*
X167320486Y-75199056D01*
X167324951Y-75207820D01*
X167449890Y-75379786D01*
X167600213Y-75530109D01*
X167772179Y-75655048D01*
X167772181Y-75655049D01*
X167772184Y-75655051D01*
X167961588Y-75751557D01*
X168163757Y-75817246D01*
X168373713Y-75850500D01*
X168373714Y-75850500D01*
X168586286Y-75850500D01*
X168586287Y-75850500D01*
X168796243Y-75817246D01*
X168998412Y-75751557D01*
X169187816Y-75655051D01*
X169274138Y-75592335D01*
X169359786Y-75530109D01*
X169359788Y-75530106D01*
X169359792Y-75530104D01*
X169510104Y-75379792D01*
X169510106Y-75379788D01*
X169510109Y-75379786D01*
X169635048Y-75207820D01*
X169635047Y-75207820D01*
X169635051Y-75207816D01*
X169639514Y-75199054D01*
X169687488Y-75148259D01*
X169755308Y-75131463D01*
X169821444Y-75153999D01*
X169860486Y-75199056D01*
X169864951Y-75207820D01*
X169989890Y-75379786D01*
X170140213Y-75530109D01*
X170312179Y-75655048D01*
X170312181Y-75655049D01*
X170312184Y-75655051D01*
X170501588Y-75751557D01*
X170703757Y-75817246D01*
X170913713Y-75850500D01*
X170913714Y-75850500D01*
X171126286Y-75850500D01*
X171126287Y-75850500D01*
X171336243Y-75817246D01*
X171538412Y-75751557D01*
X171727816Y-75655051D01*
X171814138Y-75592335D01*
X171899786Y-75530109D01*
X171899788Y-75530106D01*
X171899792Y-75530104D01*
X172050104Y-75379792D01*
X172050106Y-75379788D01*
X172050109Y-75379786D01*
X172175048Y-75207820D01*
X172175047Y-75207820D01*
X172175051Y-75207816D01*
X172179514Y-75199054D01*
X172227488Y-75148259D01*
X172295308Y-75131463D01*
X172361444Y-75153999D01*
X172400486Y-75199056D01*
X172404951Y-75207820D01*
X172529890Y-75379786D01*
X172680213Y-75530109D01*
X172852179Y-75655048D01*
X172852181Y-75655049D01*
X172852184Y-75655051D01*
X173041588Y-75751557D01*
X173243757Y-75817246D01*
X173453713Y-75850500D01*
X173453714Y-75850500D01*
X173666286Y-75850500D01*
X173666287Y-75850500D01*
X173876243Y-75817246D01*
X174078412Y-75751557D01*
X174267816Y-75655051D01*
X174354138Y-75592335D01*
X174439786Y-75530109D01*
X174439788Y-75530106D01*
X174439792Y-75530104D01*
X174590104Y-75379792D01*
X174590106Y-75379788D01*
X174590109Y-75379786D01*
X174715048Y-75207820D01*
X174715047Y-75207820D01*
X174715051Y-75207816D01*
X174719514Y-75199054D01*
X174767488Y-75148259D01*
X174835308Y-75131463D01*
X174901444Y-75153999D01*
X174940486Y-75199056D01*
X174944951Y-75207820D01*
X175069890Y-75379786D01*
X175220213Y-75530109D01*
X175392179Y-75655048D01*
X175392181Y-75655049D01*
X175392184Y-75655051D01*
X175581588Y-75751557D01*
X175783757Y-75817246D01*
X175993713Y-75850500D01*
X175993714Y-75850500D01*
X176206286Y-75850500D01*
X176206287Y-75850500D01*
X176416243Y-75817246D01*
X176618412Y-75751557D01*
X176807816Y-75655051D01*
X176894138Y-75592335D01*
X176979786Y-75530109D01*
X176979788Y-75530106D01*
X176979792Y-75530104D01*
X177130104Y-75379792D01*
X177130106Y-75379788D01*
X177130109Y-75379786D01*
X177215890Y-75261717D01*
X177255051Y-75207816D01*
X177259793Y-75198508D01*
X177307763Y-75147711D01*
X177375583Y-75130911D01*
X177441719Y-75153445D01*
X177480763Y-75198500D01*
X177485373Y-75207547D01*
X177524728Y-75261716D01*
X178157037Y-74629408D01*
X178174075Y-74692993D01*
X178239901Y-74807007D01*
X178332993Y-74900099D01*
X178447007Y-74965925D01*
X178510590Y-74982962D01*
X177878282Y-75615269D01*
X177878282Y-75615270D01*
X177932449Y-75654624D01*
X178121782Y-75751095D01*
X178323870Y-75816757D01*
X178533754Y-75850000D01*
X178746246Y-75850000D01*
X178956127Y-75816757D01*
X178956130Y-75816757D01*
X179158217Y-75751095D01*
X179347554Y-75654622D01*
X179401716Y-75615270D01*
X179401717Y-75615270D01*
X178769408Y-74982962D01*
X178832993Y-74965925D01*
X178947007Y-74900099D01*
X179040099Y-74807007D01*
X179105925Y-74692993D01*
X179122962Y-74629408D01*
X179755270Y-75261717D01*
X179755270Y-75261716D01*
X179794622Y-75207555D01*
X179799232Y-75198507D01*
X179847205Y-75147709D01*
X179915025Y-75130912D01*
X179981161Y-75153447D01*
X180020204Y-75198504D01*
X180024949Y-75207817D01*
X180149890Y-75379786D01*
X180300213Y-75530109D01*
X180472179Y-75655048D01*
X180472181Y-75655049D01*
X180472184Y-75655051D01*
X180661588Y-75751557D01*
X180863757Y-75817246D01*
X181073713Y-75850500D01*
X181073714Y-75850500D01*
X181286286Y-75850500D01*
X181286287Y-75850500D01*
X181496243Y-75817246D01*
X181698412Y-75751557D01*
X181887816Y-75655051D01*
X181974138Y-75592335D01*
X182059786Y-75530109D01*
X182059788Y-75530106D01*
X182059792Y-75530104D01*
X182210104Y-75379792D01*
X182210106Y-75379788D01*
X182210109Y-75379786D01*
X182335048Y-75207820D01*
X182335047Y-75207820D01*
X182335051Y-75207816D01*
X182339514Y-75199054D01*
X182387488Y-75148259D01*
X182455308Y-75131463D01*
X182521444Y-75153999D01*
X182560486Y-75199056D01*
X182564951Y-75207820D01*
X182689890Y-75379786D01*
X182840213Y-75530109D01*
X183012179Y-75655048D01*
X183012181Y-75655049D01*
X183012184Y-75655051D01*
X183201588Y-75751557D01*
X183403757Y-75817246D01*
X183613713Y-75850500D01*
X183613714Y-75850500D01*
X183826286Y-75850500D01*
X183826287Y-75850500D01*
X184036243Y-75817246D01*
X184238412Y-75751557D01*
X184427816Y-75655051D01*
X184514138Y-75592335D01*
X184599786Y-75530109D01*
X184599788Y-75530106D01*
X184599792Y-75530104D01*
X184750104Y-75379792D01*
X184750106Y-75379788D01*
X184750109Y-75379786D01*
X184875048Y-75207820D01*
X184875047Y-75207820D01*
X184875051Y-75207816D01*
X184971557Y-75018412D01*
X185037246Y-74816243D01*
X185070500Y-74606287D01*
X185070500Y-74393713D01*
X185037246Y-74183757D01*
X184971557Y-73981588D01*
X184875051Y-73792184D01*
X184875049Y-73792181D01*
X184875048Y-73792179D01*
X184750109Y-73620213D01*
X184599786Y-73469890D01*
X184427820Y-73344951D01*
X184238414Y-73248444D01*
X184238413Y-73248443D01*
X184238412Y-73248443D01*
X184036243Y-73182754D01*
X184036241Y-73182753D01*
X184036240Y-73182753D01*
X183874957Y-73157208D01*
X183826287Y-73149500D01*
X183613713Y-73149500D01*
X183565042Y-73157208D01*
X183403760Y-73182753D01*
X183201585Y-73248444D01*
X183012179Y-73344951D01*
X182840213Y-73469890D01*
X182689890Y-73620213D01*
X182564949Y-73792182D01*
X182560484Y-73800946D01*
X182512509Y-73851742D01*
X182444688Y-73868536D01*
X182378553Y-73845998D01*
X182339516Y-73800946D01*
X182335050Y-73792182D01*
X182210109Y-73620213D01*
X182059786Y-73469890D01*
X181887820Y-73344951D01*
X181698414Y-73248444D01*
X181698413Y-73248443D01*
X181698412Y-73248443D01*
X181496243Y-73182754D01*
X181496241Y-73182753D01*
X181496240Y-73182753D01*
X181334957Y-73157208D01*
X181286287Y-73149500D01*
X181073713Y-73149500D01*
X181025042Y-73157208D01*
X180863760Y-73182753D01*
X180661585Y-73248444D01*
X180472179Y-73344951D01*
X180300213Y-73469890D01*
X180149890Y-73620213D01*
X180024949Y-73792182D01*
X180020202Y-73801499D01*
X179972227Y-73852293D01*
X179904405Y-73869087D01*
X179838271Y-73846548D01*
X179799234Y-73801495D01*
X179794626Y-73792452D01*
X179755270Y-73738282D01*
X179755269Y-73738282D01*
X179122962Y-74370590D01*
X179105925Y-74307007D01*
X179040099Y-74192993D01*
X178947007Y-74099901D01*
X178832993Y-74034075D01*
X178769409Y-74017037D01*
X179401716Y-73384728D01*
X179347550Y-73345375D01*
X179158217Y-73248904D01*
X178956129Y-73183242D01*
X178746246Y-73150000D01*
X178533754Y-73150000D01*
X178323872Y-73183242D01*
X178323869Y-73183242D01*
X178121782Y-73248904D01*
X177932439Y-73345380D01*
X177878282Y-73384727D01*
X177878282Y-73384728D01*
X178510591Y-74017037D01*
X178447007Y-74034075D01*
X178332993Y-74099901D01*
X178239901Y-74192993D01*
X178174075Y-74307007D01*
X178157037Y-74370591D01*
X177524728Y-73738282D01*
X177524727Y-73738282D01*
X177485380Y-73792440D01*
X177485376Y-73792446D01*
X177480760Y-73801505D01*
X177432781Y-73852297D01*
X177364959Y-73869087D01*
X177298826Y-73846543D01*
X177259794Y-73801493D01*
X177255051Y-73792184D01*
X177255049Y-73792181D01*
X177255048Y-73792179D01*
X177130109Y-73620213D01*
X176979786Y-73469890D01*
X176807820Y-73344951D01*
X176618414Y-73248444D01*
X176618413Y-73248443D01*
X176618412Y-73248443D01*
X176416243Y-73182754D01*
X176416241Y-73182753D01*
X176416240Y-73182753D01*
X176254957Y-73157208D01*
X176206287Y-73149500D01*
X175993713Y-73149500D01*
X175945042Y-73157208D01*
X175783760Y-73182753D01*
X175581585Y-73248444D01*
X175392179Y-73344951D01*
X175220213Y-73469890D01*
X175069890Y-73620213D01*
X174944949Y-73792182D01*
X174940484Y-73800946D01*
X174892509Y-73851742D01*
X174824688Y-73868536D01*
X174758553Y-73845998D01*
X174719516Y-73800946D01*
X174715050Y-73792182D01*
X174590109Y-73620213D01*
X174439786Y-73469890D01*
X174267820Y-73344951D01*
X174078414Y-73248444D01*
X174078413Y-73248443D01*
X174078412Y-73248443D01*
X173876243Y-73182754D01*
X173876241Y-73182753D01*
X173876240Y-73182753D01*
X173714957Y-73157208D01*
X173666287Y-73149500D01*
X173453713Y-73149500D01*
X173405042Y-73157208D01*
X173243760Y-73182753D01*
X173041585Y-73248444D01*
X172852179Y-73344951D01*
X172680213Y-73469890D01*
X172529890Y-73620213D01*
X172404949Y-73792182D01*
X172400484Y-73800946D01*
X172352509Y-73851742D01*
X172284688Y-73868536D01*
X172218553Y-73845998D01*
X172179516Y-73800946D01*
X172175050Y-73792182D01*
X172050109Y-73620213D01*
X171899786Y-73469890D01*
X171727820Y-73344951D01*
X171538414Y-73248444D01*
X171538413Y-73248443D01*
X171538412Y-73248443D01*
X171336243Y-73182754D01*
X171336241Y-73182753D01*
X171336240Y-73182753D01*
X171174957Y-73157208D01*
X171126287Y-73149500D01*
X170913713Y-73149500D01*
X170865042Y-73157208D01*
X170703760Y-73182753D01*
X170501585Y-73248444D01*
X170312179Y-73344951D01*
X170140213Y-73469890D01*
X169989890Y-73620213D01*
X169864949Y-73792182D01*
X169860484Y-73800946D01*
X169812509Y-73851742D01*
X169744688Y-73868536D01*
X169678553Y-73845998D01*
X169639516Y-73800946D01*
X169635050Y-73792182D01*
X169510109Y-73620213D01*
X169359786Y-73469890D01*
X169187820Y-73344951D01*
X168998414Y-73248444D01*
X168998413Y-73248443D01*
X168998412Y-73248443D01*
X168796243Y-73182754D01*
X168796241Y-73182753D01*
X168796240Y-73182753D01*
X168634957Y-73157208D01*
X168586287Y-73149500D01*
X168373713Y-73149500D01*
X168325042Y-73157208D01*
X168163760Y-73182753D01*
X167961585Y-73248444D01*
X167772179Y-73344951D01*
X167600213Y-73469890D01*
X167449890Y-73620213D01*
X167324949Y-73792182D01*
X167320484Y-73800946D01*
X167272509Y-73851742D01*
X167204688Y-73868536D01*
X167138553Y-73845998D01*
X167099516Y-73800946D01*
X167095050Y-73792182D01*
X166970109Y-73620213D01*
X166819786Y-73469890D01*
X166647820Y-73344951D01*
X166458414Y-73248444D01*
X166458413Y-73248443D01*
X166458412Y-73248443D01*
X166256243Y-73182754D01*
X166256241Y-73182753D01*
X166256240Y-73182753D01*
X166094957Y-73157208D01*
X166046287Y-73149500D01*
X165833713Y-73149500D01*
X165785042Y-73157208D01*
X165623760Y-73182753D01*
X165421585Y-73248444D01*
X165232179Y-73344951D01*
X165060213Y-73469890D01*
X164909890Y-73620213D01*
X164784949Y-73792182D01*
X164780484Y-73800946D01*
X164732509Y-73851742D01*
X164664688Y-73868536D01*
X164598553Y-73845998D01*
X164559516Y-73800946D01*
X164555050Y-73792182D01*
X164430109Y-73620213D01*
X164279786Y-73469890D01*
X164107820Y-73344951D01*
X163918414Y-73248444D01*
X163918413Y-73248443D01*
X163918412Y-73248443D01*
X163716243Y-73182754D01*
X163716241Y-73182753D01*
X163716240Y-73182753D01*
X163554957Y-73157208D01*
X163506287Y-73149500D01*
X163293713Y-73149500D01*
X163245042Y-73157208D01*
X163083760Y-73182753D01*
X162881585Y-73248444D01*
X162692179Y-73344951D01*
X162520213Y-73469890D01*
X162369890Y-73620213D01*
X162244949Y-73792182D01*
X162240484Y-73800946D01*
X162192509Y-73851742D01*
X162124688Y-73868536D01*
X162058553Y-73845998D01*
X162019516Y-73800946D01*
X162015050Y-73792182D01*
X161890109Y-73620213D01*
X161739786Y-73469890D01*
X161567820Y-73344951D01*
X161378414Y-73248444D01*
X161378413Y-73248443D01*
X161378412Y-73248443D01*
X161176243Y-73182754D01*
X161176241Y-73182753D01*
X161176240Y-73182753D01*
X161014957Y-73157208D01*
X160966287Y-73149500D01*
X160753713Y-73149500D01*
X160705042Y-73157208D01*
X160543760Y-73182753D01*
X160341585Y-73248444D01*
X160152179Y-73344951D01*
X159980213Y-73469890D01*
X159829890Y-73620213D01*
X159704949Y-73792182D01*
X159700484Y-73800946D01*
X159652509Y-73851742D01*
X159584688Y-73868536D01*
X159518553Y-73845998D01*
X159479516Y-73800946D01*
X159475050Y-73792182D01*
X159350109Y-73620213D01*
X159199786Y-73469890D01*
X159027820Y-73344951D01*
X158838414Y-73248444D01*
X158838413Y-73248443D01*
X158838412Y-73248443D01*
X158636243Y-73182754D01*
X158636241Y-73182753D01*
X158636239Y-73182753D01*
X158595937Y-73176370D01*
X158532802Y-73146441D01*
X158495871Y-73087129D01*
X158496869Y-73017267D01*
X158535479Y-72959034D01*
X158599442Y-72930920D01*
X158615335Y-72929897D01*
X159673768Y-72929897D01*
X159673769Y-72929896D01*
X159728538Y-72919002D01*
X159838074Y-72897215D01*
X159838078Y-72897213D01*
X159838082Y-72897213D01*
X159883415Y-72878434D01*
X159992863Y-72833101D01*
X160132162Y-72740024D01*
X165753486Y-67118698D01*
X165814807Y-67085215D01*
X165884499Y-67090199D01*
X165940432Y-67132071D01*
X165951649Y-67150084D01*
X165967714Y-67181613D01*
X166088028Y-67347213D01*
X166232786Y-67491971D01*
X166387749Y-67604556D01*
X166398390Y-67612287D01*
X166514607Y-67671503D01*
X166580776Y-67705218D01*
X166580778Y-67705218D01*
X166580781Y-67705220D01*
X166685137Y-67739127D01*
X166775465Y-67768477D01*
X166876557Y-67784488D01*
X166977648Y-67800500D01*
X166977649Y-67800500D01*
X167182351Y-67800500D01*
X167182352Y-67800500D01*
X167384534Y-67768477D01*
X167579219Y-67705220D01*
X167761610Y-67612287D01*
X167854590Y-67544732D01*
X167927213Y-67491971D01*
X167927215Y-67491968D01*
X167927219Y-67491966D01*
X168071966Y-67347219D01*
X168071968Y-67347215D01*
X168071971Y-67347213D01*
X168124732Y-67274590D01*
X168192287Y-67181610D01*
X168285220Y-66999219D01*
X168348477Y-66804534D01*
X168380500Y-66602352D01*
X168380500Y-66397648D01*
X168348477Y-66195466D01*
X168285220Y-66000781D01*
X168285218Y-66000778D01*
X168285218Y-66000776D01*
X168251503Y-65934607D01*
X168192287Y-65818390D01*
X168184556Y-65807749D01*
X168071971Y-65652786D01*
X167927213Y-65508028D01*
X167761613Y-65387714D01*
X167730084Y-65371649D01*
X167679289Y-65323673D01*
X167662495Y-65255852D01*
X167685034Y-65189718D01*
X167698694Y-65173490D01*
X172920028Y-59952155D01*
X175000000Y-59952155D01*
X175000000Y-61750000D01*
X176020898Y-61750000D01*
X176000000Y-61881947D01*
X176000000Y-62118053D01*
X176020898Y-62250000D01*
X175000000Y-62250000D01*
X175000000Y-64047844D01*
X175006401Y-64107372D01*
X175006403Y-64107379D01*
X175056645Y-64242086D01*
X175056649Y-64242093D01*
X175142809Y-64357187D01*
X175142812Y-64357190D01*
X175257906Y-64443350D01*
X175257913Y-64443354D01*
X175392620Y-64493596D01*
X175392627Y-64493598D01*
X175452155Y-64499999D01*
X175452172Y-64500000D01*
X177250000Y-64500000D01*
X177250000Y-63479101D01*
X177381947Y-63500000D01*
X177618053Y-63500000D01*
X177750000Y-63479101D01*
X177750000Y-64500000D01*
X179547828Y-64500000D01*
X179547844Y-64499999D01*
X179607372Y-64493598D01*
X179607379Y-64493596D01*
X179742086Y-64443354D01*
X179742093Y-64443350D01*
X179857187Y-64357190D01*
X179857190Y-64357187D01*
X179943350Y-64242093D01*
X179943354Y-64242086D01*
X179993596Y-64107379D01*
X179993598Y-64107372D01*
X179999999Y-64047844D01*
X180000000Y-64047827D01*
X180000000Y-62250000D01*
X178979102Y-62250000D01*
X179000000Y-62118053D01*
X179000000Y-61881947D01*
X178979102Y-61750000D01*
X180000000Y-61750000D01*
X180000000Y-59952172D01*
X179999999Y-59952155D01*
X179993598Y-59892627D01*
X179993596Y-59892620D01*
X179943354Y-59757913D01*
X179943350Y-59757906D01*
X179857190Y-59642812D01*
X179857187Y-59642809D01*
X179742093Y-59556649D01*
X179742086Y-59556645D01*
X179607379Y-59506403D01*
X179607372Y-59506401D01*
X179547844Y-59500000D01*
X177750000Y-59500000D01*
X177750000Y-60520898D01*
X177618053Y-60500000D01*
X177381947Y-60500000D01*
X177250000Y-60520898D01*
X177250000Y-59500000D01*
X175452155Y-59500000D01*
X175392627Y-59506401D01*
X175392620Y-59506403D01*
X175257913Y-59556645D01*
X175257906Y-59556649D01*
X175142812Y-59642809D01*
X175142809Y-59642812D01*
X175056649Y-59757906D01*
X175056645Y-59757913D01*
X175006403Y-59892620D01*
X175006401Y-59892627D01*
X175000000Y-59952155D01*
X172920028Y-59952155D01*
X175593685Y-57278498D01*
X175655006Y-57245015D01*
X175724698Y-57249999D01*
X175779740Y-57290695D01*
X175879698Y-57420963D01*
X175879704Y-57420970D01*
X176079029Y-57620295D01*
X176079033Y-57620298D01*
X176079035Y-57620300D01*
X176302683Y-57791912D01*
X176302690Y-57791916D01*
X176546809Y-57932859D01*
X176546814Y-57932861D01*
X176546817Y-57932863D01*
X176807261Y-58040742D01*
X177079558Y-58113704D01*
X177359049Y-58150500D01*
X177359056Y-58150500D01*
X177640944Y-58150500D01*
X177640951Y-58150500D01*
X177920442Y-58113704D01*
X178192739Y-58040742D01*
X178453183Y-57932863D01*
X178697317Y-57791912D01*
X178920965Y-57620300D01*
X179120300Y-57420965D01*
X179291912Y-57197317D01*
X179432863Y-56953183D01*
X179540742Y-56692739D01*
X179613704Y-56420442D01*
X179650500Y-56140951D01*
X179650500Y-55859049D01*
X179647916Y-55839422D01*
X179658681Y-55770388D01*
X179705060Y-55718132D01*
X179772329Y-55699246D01*
X179839130Y-55719726D01*
X179884254Y-55773070D01*
X179885416Y-55775784D01*
X179977254Y-55997500D01*
X179977258Y-55997510D01*
X180124761Y-56252993D01*
X180304352Y-56487040D01*
X180304358Y-56487047D01*
X180512952Y-56695641D01*
X180512959Y-56695647D01*
X180747006Y-56875238D01*
X181002489Y-57022741D01*
X181002490Y-57022741D01*
X181002493Y-57022743D01*
X181275048Y-57135639D01*
X181560007Y-57211993D01*
X181810832Y-57245015D01*
X181848688Y-57249999D01*
X181852494Y-57250500D01*
X181852501Y-57250500D01*
X182147499Y-57250500D01*
X182147506Y-57250500D01*
X182439993Y-57211993D01*
X182724952Y-57135639D01*
X182997507Y-57022743D01*
X183252994Y-56875238D01*
X183487042Y-56695646D01*
X183695646Y-56487042D01*
X183875238Y-56252994D01*
X184022743Y-55997507D01*
X184135639Y-55724952D01*
X184211993Y-55439993D01*
X184250500Y-55147506D01*
X184250500Y-54852494D01*
X184211993Y-54560007D01*
X184135639Y-54275048D01*
X184022743Y-54002493D01*
X184010650Y-53981548D01*
X183875238Y-53747006D01*
X183695647Y-53512959D01*
X183695641Y-53512952D01*
X183487047Y-53304358D01*
X183487040Y-53304352D01*
X183252993Y-53124761D01*
X182997510Y-52977258D01*
X182997500Y-52977254D01*
X182724961Y-52864364D01*
X182724954Y-52864362D01*
X182724952Y-52864361D01*
X182439993Y-52788007D01*
X182391113Y-52781571D01*
X182147513Y-52749500D01*
X182147506Y-52749500D01*
X181852494Y-52749500D01*
X181852486Y-52749500D01*
X181574085Y-52786153D01*
X181560007Y-52788007D01*
X181275048Y-52864361D01*
X181275038Y-52864364D01*
X181002499Y-52977254D01*
X181002489Y-52977258D01*
X180747006Y-53124761D01*
X180512959Y-53304352D01*
X180512952Y-53304358D01*
X180304358Y-53512952D01*
X180304352Y-53512959D01*
X180124761Y-53747006D01*
X179977258Y-54002489D01*
X179977254Y-54002499D01*
X179864364Y-54275038D01*
X179864361Y-54275048D01*
X179788008Y-54560004D01*
X179788006Y-54560015D01*
X179749500Y-54852486D01*
X179749500Y-55147499D01*
X179749501Y-55147520D01*
X179754657Y-55186686D01*
X179743891Y-55255721D01*
X179697510Y-55307976D01*
X179630241Y-55326860D01*
X179563440Y-55306378D01*
X179518318Y-55253033D01*
X179517157Y-55250321D01*
X179432867Y-55046825D01*
X179432859Y-55046809D01*
X179291916Y-54802690D01*
X179291912Y-54802683D01*
X179120300Y-54579035D01*
X179120298Y-54579033D01*
X179120295Y-54579029D01*
X178920970Y-54379704D01*
X178920965Y-54379700D01*
X178697317Y-54208088D01*
X178697311Y-54208084D01*
X178697309Y-54208083D01*
X178453190Y-54067140D01*
X178453179Y-54067135D01*
X178246554Y-53981548D01*
X178192151Y-53937707D01*
X178170086Y-53871413D01*
X178187365Y-53803713D01*
X178206322Y-53779309D01*
X178315977Y-53669655D01*
X178430941Y-53497598D01*
X178510130Y-53306420D01*
X178550500Y-53103465D01*
X178550500Y-52896535D01*
X178510130Y-52693580D01*
X178430941Y-52502402D01*
X178315977Y-52330345D01*
X178315975Y-52330342D01*
X178169657Y-52184024D01*
X178083626Y-52126541D01*
X177997598Y-52069059D01*
X177806420Y-51989870D01*
X177806412Y-51989868D01*
X177603469Y-51949500D01*
X177603465Y-51949500D01*
X177396535Y-51949500D01*
X177396530Y-51949500D01*
X177193587Y-51989868D01*
X177193579Y-51989870D01*
X177002403Y-52069058D01*
X176830342Y-52184024D01*
X176684024Y-52330342D01*
X176569058Y-52502403D01*
X176489870Y-52693579D01*
X176489868Y-52693587D01*
X176449500Y-52896530D01*
X176449500Y-53103469D01*
X176489868Y-53306412D01*
X176489870Y-53306420D01*
X176569058Y-53497596D01*
X176684024Y-53669657D01*
X176793673Y-53779306D01*
X176827158Y-53840629D01*
X176822174Y-53910321D01*
X176780302Y-53966254D01*
X176753445Y-53981548D01*
X176546821Y-54067135D01*
X176546809Y-54067140D01*
X176302690Y-54208083D01*
X176302682Y-54208089D01*
X176079029Y-54379704D01*
X175879704Y-54579029D01*
X175708089Y-54802682D01*
X175708083Y-54802690D01*
X175567140Y-55046809D01*
X175567137Y-55046816D01*
X175544488Y-55101495D01*
X175541061Y-55105746D01*
X175540017Y-55111104D01*
X175519374Y-55132657D01*
X175500646Y-55155898D01*
X175494463Y-55158668D01*
X175491690Y-55161565D01*
X175469065Y-55170051D01*
X175458895Y-55174610D01*
X175456507Y-55175183D01*
X175421315Y-55182184D01*
X175412950Y-55185648D01*
X175403468Y-55187927D01*
X175377908Y-55186652D01*
X175352464Y-55189384D01*
X175343593Y-55184941D01*
X175333685Y-55184448D01*
X175312874Y-55169559D01*
X175289990Y-55158100D01*
X175284928Y-55149565D01*
X175276861Y-55143794D01*
X175267403Y-55120017D01*
X175254347Y-55098005D01*
X175252364Y-55082213D01*
X175251036Y-55078873D01*
X175251589Y-55076035D01*
X175250500Y-55067358D01*
X175250500Y-54852500D01*
X175250499Y-54852486D01*
X175243942Y-54802682D01*
X175211993Y-54560007D01*
X175135639Y-54275048D01*
X175022743Y-54002493D01*
X175010650Y-53981548D01*
X174875238Y-53747006D01*
X174695647Y-53512959D01*
X174695641Y-53512952D01*
X174487047Y-53304358D01*
X174487040Y-53304352D01*
X174252993Y-53124761D01*
X173997510Y-52977258D01*
X173997500Y-52977254D01*
X173724961Y-52864364D01*
X173724954Y-52864362D01*
X173724952Y-52864361D01*
X173439993Y-52788007D01*
X173391113Y-52781571D01*
X173147513Y-52749500D01*
X173147506Y-52749500D01*
X172852494Y-52749500D01*
X172852486Y-52749500D01*
X172574085Y-52786153D01*
X172560007Y-52788007D01*
X172275048Y-52864361D01*
X172275038Y-52864364D01*
X172002499Y-52977254D01*
X172002489Y-52977258D01*
X171747006Y-53124761D01*
X171512959Y-53304352D01*
X171512952Y-53304358D01*
X171304358Y-53512952D01*
X171304352Y-53512959D01*
X171124761Y-53747006D01*
X170977258Y-54002489D01*
X170977254Y-54002499D01*
X170864364Y-54275038D01*
X170864361Y-54275048D01*
X170788008Y-54560004D01*
X170788006Y-54560015D01*
X170749500Y-54852486D01*
X170749500Y-55147513D01*
X170781571Y-55391113D01*
X170788007Y-55439993D01*
X170788008Y-55439995D01*
X170864361Y-55724951D01*
X170864364Y-55724961D01*
X170977254Y-55997500D01*
X170977258Y-55997510D01*
X171124761Y-56252993D01*
X171304352Y-56487040D01*
X171304358Y-56487047D01*
X171512952Y-56695641D01*
X171512959Y-56695647D01*
X171747006Y-56875238D01*
X172002489Y-57022741D01*
X172002490Y-57022741D01*
X172002493Y-57022743D01*
X172275048Y-57135639D01*
X172560007Y-57211993D01*
X172810832Y-57245015D01*
X172848688Y-57249999D01*
X172852494Y-57250500D01*
X172852501Y-57250500D01*
X172916746Y-57250500D01*
X172983785Y-57270185D01*
X173029540Y-57322989D01*
X173039484Y-57392147D01*
X173010459Y-57455703D01*
X173004427Y-57462181D01*
X159274030Y-71192578D01*
X159212707Y-71226063D01*
X159186349Y-71228897D01*
X130231831Y-71228897D01*
X130067528Y-71261579D01*
X130067520Y-71261581D01*
X129912742Y-71325692D01*
X129773440Y-71418770D01*
X129773437Y-71418773D01*
X124724030Y-76468181D01*
X124662707Y-76501666D01*
X124636349Y-76504500D01*
X124487648Y-76504500D01*
X124463329Y-76508351D01*
X124285465Y-76536522D01*
X124090776Y-76599781D01*
X123908386Y-76692715D01*
X123742786Y-76813028D01*
X123598028Y-76957786D01*
X123477715Y-77123386D01*
X123384781Y-77305776D01*
X123321522Y-77500465D01*
X123289500Y-77702648D01*
X114000500Y-77702648D01*
X114000500Y-70704568D01*
X120669500Y-70704568D01*
X120669500Y-70985431D01*
X120700942Y-71264494D01*
X120700945Y-71264512D01*
X120763439Y-71538317D01*
X120763443Y-71538329D01*
X120856200Y-71803411D01*
X120978053Y-72056442D01*
X120978055Y-72056445D01*
X121127477Y-72294248D01*
X121302584Y-72513825D01*
X121501175Y-72712416D01*
X121720752Y-72887523D01*
X121903555Y-73002386D01*
X121958557Y-73036946D01*
X122012127Y-73062744D01*
X122211592Y-73158801D01*
X122347068Y-73206206D01*
X122476670Y-73251556D01*
X122476682Y-73251560D01*
X122750491Y-73314055D01*
X122750497Y-73314055D01*
X122750505Y-73314057D01*
X122936547Y-73335018D01*
X123029569Y-73345499D01*
X123029572Y-73345500D01*
X123029575Y-73345500D01*
X123310428Y-73345500D01*
X123310429Y-73345499D01*
X123453055Y-73329429D01*
X123589494Y-73314057D01*
X123589499Y-73314056D01*
X123589509Y-73314055D01*
X123863318Y-73251560D01*
X124128408Y-73158801D01*
X124381445Y-73036945D01*
X124619248Y-72887523D01*
X124838825Y-72712416D01*
X125037416Y-72513825D01*
X125212523Y-72294248D01*
X125361945Y-72056445D01*
X125483801Y-71803408D01*
X125576560Y-71538318D01*
X125639055Y-71264509D01*
X125643068Y-71228897D01*
X125670499Y-70985431D01*
X125670500Y-70985427D01*
X125670500Y-70704572D01*
X125670499Y-70704568D01*
X125639057Y-70425505D01*
X125639054Y-70425487D01*
X125576560Y-70151682D01*
X125576556Y-70151670D01*
X125553465Y-70085680D01*
X125483801Y-69886592D01*
X125361945Y-69633555D01*
X125212523Y-69395752D01*
X125037416Y-69176175D01*
X124838825Y-68977584D01*
X124619248Y-68802477D01*
X124381445Y-68653055D01*
X124381442Y-68653053D01*
X124128411Y-68531200D01*
X123863329Y-68438443D01*
X123863317Y-68438439D01*
X123589512Y-68375945D01*
X123589494Y-68375942D01*
X123310431Y-68344500D01*
X123310425Y-68344500D01*
X123029575Y-68344500D01*
X123029568Y-68344500D01*
X122750505Y-68375942D01*
X122750487Y-68375945D01*
X122476682Y-68438439D01*
X122476670Y-68438443D01*
X122211588Y-68531200D01*
X121958557Y-68653053D01*
X121720753Y-68802476D01*
X121501175Y-68977583D01*
X121302583Y-69176175D01*
X121127476Y-69395753D01*
X120978053Y-69633557D01*
X120856200Y-69886588D01*
X120763443Y-70151670D01*
X120763439Y-70151682D01*
X120700945Y-70425487D01*
X120700942Y-70425505D01*
X120669500Y-70704568D01*
X114000500Y-70704568D01*
X114000500Y-66397648D01*
X128619500Y-66397648D01*
X128619500Y-66602351D01*
X128651522Y-66804534D01*
X128714781Y-66999223D01*
X128807715Y-67181613D01*
X128928028Y-67347213D01*
X129072786Y-67491971D01*
X129227749Y-67604556D01*
X129238390Y-67612287D01*
X129354607Y-67671503D01*
X129420776Y-67705218D01*
X129420778Y-67705218D01*
X129420781Y-67705220D01*
X129525137Y-67739127D01*
X129615465Y-67768477D01*
X129716557Y-67784488D01*
X129817648Y-67800500D01*
X129817649Y-67800500D01*
X130022351Y-67800500D01*
X130022352Y-67800500D01*
X130224534Y-67768477D01*
X130419219Y-67705220D01*
X130601610Y-67612287D01*
X130694590Y-67544732D01*
X130767213Y-67491971D01*
X130767215Y-67491968D01*
X130767219Y-67491966D01*
X130911966Y-67347219D01*
X130911968Y-67347215D01*
X130911971Y-67347213D01*
X130964732Y-67274590D01*
X131032287Y-67181610D01*
X131125220Y-66999219D01*
X131188477Y-66804534D01*
X131220500Y-66602352D01*
X131220500Y-66397648D01*
X138779500Y-66397648D01*
X138779500Y-66602351D01*
X138811522Y-66804534D01*
X138874781Y-66999223D01*
X138967715Y-67181613D01*
X139088028Y-67347213D01*
X139232786Y-67491971D01*
X139387749Y-67604556D01*
X139398390Y-67612287D01*
X139514607Y-67671503D01*
X139580776Y-67705218D01*
X139580778Y-67705218D01*
X139580781Y-67705220D01*
X139685137Y-67739127D01*
X139775465Y-67768477D01*
X139876557Y-67784488D01*
X139977648Y-67800500D01*
X139977649Y-67800500D01*
X140182351Y-67800500D01*
X140182352Y-67800500D01*
X140384534Y-67768477D01*
X140579219Y-67705220D01*
X140761610Y-67612287D01*
X140854590Y-67544732D01*
X140927213Y-67491971D01*
X140927215Y-67491968D01*
X140927219Y-67491966D01*
X141071966Y-67347219D01*
X141071968Y-67347215D01*
X141071971Y-67347213D01*
X141124732Y-67274590D01*
X141192287Y-67181610D01*
X141285220Y-66999219D01*
X141348477Y-66804534D01*
X141380500Y-66602352D01*
X141380500Y-66397648D01*
X142119500Y-66397648D01*
X142119500Y-66602351D01*
X142151522Y-66804534D01*
X142214781Y-66999223D01*
X142307715Y-67181613D01*
X142428028Y-67347213D01*
X142572786Y-67491971D01*
X142727749Y-67604556D01*
X142738390Y-67612287D01*
X142854607Y-67671503D01*
X142920776Y-67705218D01*
X142920778Y-67705218D01*
X142920781Y-67705220D01*
X143025137Y-67739127D01*
X143115465Y-67768477D01*
X143216557Y-67784488D01*
X143317648Y-67800500D01*
X143317649Y-67800500D01*
X143522351Y-67800500D01*
X143522352Y-67800500D01*
X143724534Y-67768477D01*
X143919219Y-67705220D01*
X144101610Y-67612287D01*
X144194590Y-67544732D01*
X144267213Y-67491971D01*
X144267215Y-67491968D01*
X144267219Y-67491966D01*
X144411966Y-67347219D01*
X144411968Y-67347215D01*
X144411971Y-67347213D01*
X144464732Y-67274590D01*
X144532287Y-67181610D01*
X144625220Y-66999219D01*
X144688477Y-66804534D01*
X144720500Y-66602352D01*
X144720500Y-66397648D01*
X152279500Y-66397648D01*
X152279500Y-66602351D01*
X152311522Y-66804534D01*
X152374781Y-66999223D01*
X152467715Y-67181613D01*
X152588028Y-67347213D01*
X152732786Y-67491971D01*
X152887749Y-67604556D01*
X152898390Y-67612287D01*
X153014607Y-67671503D01*
X153080776Y-67705218D01*
X153080778Y-67705218D01*
X153080781Y-67705220D01*
X153185137Y-67739127D01*
X153275465Y-67768477D01*
X153376557Y-67784488D01*
X153477648Y-67800500D01*
X153477649Y-67800500D01*
X153682351Y-67800500D01*
X153682352Y-67800500D01*
X153884534Y-67768477D01*
X154079219Y-67705220D01*
X154261610Y-67612287D01*
X154354590Y-67544732D01*
X154427213Y-67491971D01*
X154427215Y-67491968D01*
X154427219Y-67491966D01*
X154571966Y-67347219D01*
X154571968Y-67347215D01*
X154571971Y-67347213D01*
X154624732Y-67274590D01*
X154692287Y-67181610D01*
X154785220Y-66999219D01*
X154848477Y-66804534D01*
X154880500Y-66602352D01*
X154880500Y-66397648D01*
X155619500Y-66397648D01*
X155619500Y-66602351D01*
X155651522Y-66804534D01*
X155714781Y-66999223D01*
X155807715Y-67181613D01*
X155928028Y-67347213D01*
X156072786Y-67491971D01*
X156227749Y-67604556D01*
X156238390Y-67612287D01*
X156354607Y-67671503D01*
X156420776Y-67705218D01*
X156420778Y-67705218D01*
X156420781Y-67705220D01*
X156525137Y-67739127D01*
X156615465Y-67768477D01*
X156716557Y-67784488D01*
X156817648Y-67800500D01*
X156817649Y-67800500D01*
X157022351Y-67800500D01*
X157022352Y-67800500D01*
X157224534Y-67768477D01*
X157419219Y-67705220D01*
X157601610Y-67612287D01*
X157694590Y-67544732D01*
X157767213Y-67491971D01*
X157767215Y-67491968D01*
X157767219Y-67491966D01*
X157911966Y-67347219D01*
X157911968Y-67347215D01*
X157911971Y-67347213D01*
X157964732Y-67274590D01*
X158032287Y-67181610D01*
X158125220Y-66999219D01*
X158188477Y-66804534D01*
X158220500Y-66602352D01*
X158220500Y-66397648D01*
X158188477Y-66195466D01*
X158125220Y-66000781D01*
X158125218Y-66000778D01*
X158125218Y-66000776D01*
X158091503Y-65934607D01*
X158032287Y-65818390D01*
X158024556Y-65807749D01*
X157911971Y-65652786D01*
X157767213Y-65508028D01*
X157601613Y-65387715D01*
X157601612Y-65387714D01*
X157601610Y-65387713D01*
X157544653Y-65358691D01*
X157419223Y-65294781D01*
X157224534Y-65231522D01*
X157049995Y-65203878D01*
X157022352Y-65199500D01*
X156817648Y-65199500D01*
X156793329Y-65203351D01*
X156615465Y-65231522D01*
X156420776Y-65294781D01*
X156238386Y-65387715D01*
X156072786Y-65508028D01*
X155928028Y-65652786D01*
X155807715Y-65818386D01*
X155714781Y-66000776D01*
X155651522Y-66195465D01*
X155619500Y-66397648D01*
X154880500Y-66397648D01*
X154848477Y-66195466D01*
X154785220Y-66000781D01*
X154785218Y-66000778D01*
X154785218Y-66000776D01*
X154751503Y-65934607D01*
X154692287Y-65818390D01*
X154684556Y-65807749D01*
X154571971Y-65652786D01*
X154427213Y-65508028D01*
X154261613Y-65387715D01*
X154261612Y-65387714D01*
X154261610Y-65387713D01*
X154204653Y-65358691D01*
X154079223Y-65294781D01*
X153884534Y-65231522D01*
X153709995Y-65203878D01*
X153682352Y-65199500D01*
X153477648Y-65199500D01*
X153453329Y-65203351D01*
X153275465Y-65231522D01*
X153080776Y-65294781D01*
X152898386Y-65387715D01*
X152732786Y-65508028D01*
X152588028Y-65652786D01*
X152467715Y-65818386D01*
X152374781Y-66000776D01*
X152311522Y-66195465D01*
X152279500Y-66397648D01*
X144720500Y-66397648D01*
X144688477Y-66195466D01*
X144625220Y-66000781D01*
X144625218Y-66000778D01*
X144625218Y-66000776D01*
X144591503Y-65934607D01*
X144532287Y-65818390D01*
X144524556Y-65807749D01*
X144411971Y-65652786D01*
X144267213Y-65508028D01*
X144101613Y-65387715D01*
X144101612Y-65387714D01*
X144101610Y-65387713D01*
X144044653Y-65358691D01*
X143919223Y-65294781D01*
X143724534Y-65231522D01*
X143549995Y-65203878D01*
X143522352Y-65199500D01*
X143317648Y-65199500D01*
X143293329Y-65203351D01*
X143115465Y-65231522D01*
X142920776Y-65294781D01*
X142738386Y-65387715D01*
X142572786Y-65508028D01*
X142428028Y-65652786D01*
X142307715Y-65818386D01*
X142214781Y-66000776D01*
X142151522Y-66195465D01*
X142119500Y-66397648D01*
X141380500Y-66397648D01*
X141348477Y-66195466D01*
X141285220Y-66000781D01*
X141285218Y-66000778D01*
X141285218Y-66000776D01*
X141251503Y-65934607D01*
X141192287Y-65818390D01*
X141184556Y-65807749D01*
X141071971Y-65652786D01*
X140927213Y-65508028D01*
X140761613Y-65387715D01*
X140761612Y-65387714D01*
X140761610Y-65387713D01*
X140704653Y-65358691D01*
X140579223Y-65294781D01*
X140384534Y-65231522D01*
X140209995Y-65203878D01*
X140182352Y-65199500D01*
X139977648Y-65199500D01*
X139953329Y-65203351D01*
X139775465Y-65231522D01*
X139580776Y-65294781D01*
X139398386Y-65387715D01*
X139232786Y-65508028D01*
X139088028Y-65652786D01*
X138967715Y-65818386D01*
X138874781Y-66000776D01*
X138811522Y-66195465D01*
X138779500Y-66397648D01*
X131220500Y-66397648D01*
X131188477Y-66195466D01*
X131125220Y-66000781D01*
X131125218Y-66000778D01*
X131125218Y-66000776D01*
X131091503Y-65934607D01*
X131032287Y-65818390D01*
X131024556Y-65807749D01*
X130911971Y-65652786D01*
X130767213Y-65508028D01*
X130601613Y-65387715D01*
X130601612Y-65387714D01*
X130601610Y-65387713D01*
X130544653Y-65358691D01*
X130419223Y-65294781D01*
X130224534Y-65231522D01*
X130049995Y-65203878D01*
X130022352Y-65199500D01*
X129817648Y-65199500D01*
X129793329Y-65203351D01*
X129615465Y-65231522D01*
X129420776Y-65294781D01*
X129238386Y-65387715D01*
X129072786Y-65508028D01*
X128928028Y-65652786D01*
X128807715Y-65818386D01*
X128714781Y-66000776D01*
X128651522Y-66195465D01*
X128619500Y-66397648D01*
X114000500Y-66397648D01*
X114000500Y-57052135D01*
X119059500Y-57052135D01*
X119059500Y-58947870D01*
X119059501Y-58947876D01*
X119065908Y-59007483D01*
X119116202Y-59142328D01*
X119116206Y-59142335D01*
X119202452Y-59257544D01*
X119202455Y-59257547D01*
X119317664Y-59343793D01*
X119317671Y-59343797D01*
X119452517Y-59394091D01*
X119452516Y-59394091D01*
X119459444Y-59394835D01*
X119512127Y-59400500D01*
X121407872Y-59400499D01*
X121467483Y-59394091D01*
X121602331Y-59343796D01*
X121717546Y-59257546D01*
X121803796Y-59142331D01*
X121854091Y-59007483D01*
X121860500Y-58947873D01*
X121860499Y-58837304D01*
X121880183Y-58770268D01*
X121896818Y-58749626D01*
X122557861Y-58088584D01*
X122580667Y-58173694D01*
X122639910Y-58276306D01*
X122723694Y-58360090D01*
X122826306Y-58419333D01*
X122911414Y-58442137D01*
X122202485Y-59151065D01*
X122202485Y-59151066D01*
X122266243Y-59197388D01*
X122462589Y-59297432D01*
X122672164Y-59365526D01*
X122889819Y-59400000D01*
X123110181Y-59400000D01*
X123327835Y-59365526D01*
X123537410Y-59297432D01*
X123733760Y-59197386D01*
X123797513Y-59151066D01*
X123797514Y-59151066D01*
X123088585Y-58442138D01*
X123173694Y-58419333D01*
X123276306Y-58360090D01*
X123360090Y-58276306D01*
X123419333Y-58173694D01*
X123442137Y-58088585D01*
X124151066Y-58797514D01*
X124151066Y-58797513D01*
X124197386Y-58733760D01*
X124297432Y-58537410D01*
X124365526Y-58327835D01*
X124400000Y-58110181D01*
X124400000Y-57889818D01*
X124365526Y-57672164D01*
X124297432Y-57462589D01*
X124197388Y-57266243D01*
X124151066Y-57202485D01*
X124151065Y-57202485D01*
X123442137Y-57911413D01*
X123419333Y-57826306D01*
X123360090Y-57723694D01*
X123276306Y-57639910D01*
X123173694Y-57580667D01*
X123088583Y-57557861D01*
X123594311Y-57052135D01*
X125559500Y-57052135D01*
X125559500Y-58947870D01*
X125559501Y-58947876D01*
X125565908Y-59007483D01*
X125616202Y-59142328D01*
X125616206Y-59142335D01*
X125702452Y-59257544D01*
X125702455Y-59257547D01*
X125817664Y-59343793D01*
X125817671Y-59343797D01*
X125952517Y-59394091D01*
X125952516Y-59394091D01*
X125959444Y-59394835D01*
X126012127Y-59400500D01*
X127907872Y-59400499D01*
X127967483Y-59394091D01*
X128102331Y-59343796D01*
X128217546Y-59257546D01*
X128303796Y-59142331D01*
X128354091Y-59007483D01*
X128360500Y-58947873D01*
X128360499Y-58837304D01*
X128380183Y-58770268D01*
X128396818Y-58749626D01*
X129057861Y-58088584D01*
X129080667Y-58173694D01*
X129139910Y-58276306D01*
X129223694Y-58360090D01*
X129326306Y-58419333D01*
X129411414Y-58442137D01*
X128702485Y-59151065D01*
X128702485Y-59151066D01*
X128766243Y-59197388D01*
X128962589Y-59297432D01*
X129172164Y-59365526D01*
X129389819Y-59400000D01*
X129610181Y-59400000D01*
X129827835Y-59365526D01*
X130037410Y-59297432D01*
X130233760Y-59197386D01*
X130297513Y-59151066D01*
X130297514Y-59151066D01*
X129588585Y-58442138D01*
X129673694Y-58419333D01*
X129776306Y-58360090D01*
X129860090Y-58276306D01*
X129919333Y-58173694D01*
X129942137Y-58088585D01*
X130651066Y-58797514D01*
X130651066Y-58797513D01*
X130697386Y-58733760D01*
X130797432Y-58537410D01*
X130865526Y-58327835D01*
X130900000Y-58110181D01*
X130900000Y-57889818D01*
X130865526Y-57672164D01*
X130797432Y-57462589D01*
X130697388Y-57266243D01*
X130651066Y-57202485D01*
X130651065Y-57202485D01*
X129942137Y-57911413D01*
X129919333Y-57826306D01*
X129860090Y-57723694D01*
X129776306Y-57639910D01*
X129673694Y-57580667D01*
X129588583Y-57557861D01*
X130094311Y-57052135D01*
X131829500Y-57052135D01*
X131829500Y-58947870D01*
X131829501Y-58947876D01*
X131835908Y-59007483D01*
X131886202Y-59142328D01*
X131886206Y-59142335D01*
X131972452Y-59257544D01*
X131972455Y-59257547D01*
X132087664Y-59343793D01*
X132087671Y-59343797D01*
X132222517Y-59394091D01*
X132222516Y-59394091D01*
X132229444Y-59394835D01*
X132282127Y-59400500D01*
X134177872Y-59400499D01*
X134237483Y-59394091D01*
X134372331Y-59343796D01*
X134487546Y-59257546D01*
X134573796Y-59142331D01*
X134624091Y-59007483D01*
X134630500Y-58947873D01*
X134630499Y-58837304D01*
X134650183Y-58770268D01*
X134666818Y-58749626D01*
X135327861Y-58088584D01*
X135350667Y-58173694D01*
X135409910Y-58276306D01*
X135493694Y-58360090D01*
X135596306Y-58419333D01*
X135681414Y-58442137D01*
X134972485Y-59151065D01*
X134972485Y-59151066D01*
X135036243Y-59197388D01*
X135232589Y-59297432D01*
X135442164Y-59365526D01*
X135659819Y-59400000D01*
X135880181Y-59400000D01*
X136097835Y-59365526D01*
X136307410Y-59297432D01*
X136503760Y-59197386D01*
X136567513Y-59151066D01*
X136567514Y-59151066D01*
X135858585Y-58442138D01*
X135943694Y-58419333D01*
X136046306Y-58360090D01*
X136130090Y-58276306D01*
X136189333Y-58173694D01*
X136212137Y-58088585D01*
X136921066Y-58797514D01*
X136921066Y-58797513D01*
X136967386Y-58733760D01*
X137067432Y-58537410D01*
X137135526Y-58327835D01*
X137170000Y-58110181D01*
X137170000Y-57889818D01*
X137135526Y-57672164D01*
X137067432Y-57462589D01*
X136967388Y-57266243D01*
X136921066Y-57202485D01*
X136921065Y-57202485D01*
X136212137Y-57911413D01*
X136189333Y-57826306D01*
X136130090Y-57723694D01*
X136046306Y-57639910D01*
X135943694Y-57580667D01*
X135858583Y-57557861D01*
X136567513Y-56848932D01*
X136503756Y-56802611D01*
X136307410Y-56702567D01*
X136097835Y-56634473D01*
X135880181Y-56600000D01*
X135659819Y-56600000D01*
X135442164Y-56634473D01*
X135232589Y-56702567D01*
X135036233Y-56802616D01*
X134972485Y-56848931D01*
X134972485Y-56848932D01*
X135681414Y-57557861D01*
X135596306Y-57580667D01*
X135493694Y-57639910D01*
X135409910Y-57723694D01*
X135350667Y-57826306D01*
X135327861Y-57911414D01*
X134666818Y-57250371D01*
X134633333Y-57189048D01*
X134630499Y-57162690D01*
X134630499Y-57052129D01*
X134630498Y-57052123D01*
X134630497Y-57052116D01*
X134624091Y-56992517D01*
X134609420Y-56953183D01*
X134604326Y-56939524D01*
X134573797Y-56857671D01*
X134573793Y-56857664D01*
X134487547Y-56742455D01*
X134487544Y-56742452D01*
X134372335Y-56656206D01*
X134372328Y-56656202D01*
X134237482Y-56605908D01*
X134237483Y-56605908D01*
X134177883Y-56599501D01*
X134177881Y-56599500D01*
X134177873Y-56599500D01*
X134177864Y-56599500D01*
X132282129Y-56599500D01*
X132282123Y-56599501D01*
X132222516Y-56605908D01*
X132087671Y-56656202D01*
X132087664Y-56656206D01*
X131972455Y-56742452D01*
X131972452Y-56742455D01*
X131886206Y-56857664D01*
X131886202Y-56857671D01*
X131835908Y-56992517D01*
X131829501Y-57052116D01*
X131829501Y-57052123D01*
X131829500Y-57052135D01*
X130094311Y-57052135D01*
X130185321Y-56961125D01*
X130297513Y-56848932D01*
X130233756Y-56802611D01*
X130037410Y-56702567D01*
X129827835Y-56634473D01*
X129610181Y-56600000D01*
X129389819Y-56600000D01*
X129172164Y-56634473D01*
X128962589Y-56702567D01*
X128766233Y-56802616D01*
X128702485Y-56848931D01*
X128702485Y-56848932D01*
X129411414Y-57557861D01*
X129326306Y-57580667D01*
X129223694Y-57639910D01*
X129139910Y-57723694D01*
X129080667Y-57826306D01*
X129057861Y-57911414D01*
X128396818Y-57250371D01*
X128363333Y-57189048D01*
X128360499Y-57162690D01*
X128360499Y-57052129D01*
X128360498Y-57052123D01*
X128360497Y-57052116D01*
X128354091Y-56992517D01*
X128339420Y-56953183D01*
X128334326Y-56939524D01*
X128303797Y-56857671D01*
X128303793Y-56857664D01*
X128217547Y-56742455D01*
X128217544Y-56742452D01*
X128102335Y-56656206D01*
X128102328Y-56656202D01*
X127967482Y-56605908D01*
X127967483Y-56605908D01*
X127907883Y-56599501D01*
X127907881Y-56599500D01*
X127907873Y-56599500D01*
X127907864Y-56599500D01*
X126012129Y-56599500D01*
X126012123Y-56599501D01*
X125952516Y-56605908D01*
X125817671Y-56656202D01*
X125817664Y-56656206D01*
X125702455Y-56742452D01*
X125702452Y-56742455D01*
X125616206Y-56857664D01*
X125616202Y-56857671D01*
X125565908Y-56992517D01*
X125559501Y-57052116D01*
X125559501Y-57052123D01*
X125559500Y-57052135D01*
X123594311Y-57052135D01*
X123685321Y-56961125D01*
X123797513Y-56848932D01*
X123733756Y-56802611D01*
X123537410Y-56702567D01*
X123327835Y-56634473D01*
X123110181Y-56600000D01*
X122889819Y-56600000D01*
X122672164Y-56634473D01*
X122462589Y-56702567D01*
X122266233Y-56802616D01*
X122202485Y-56848931D01*
X122202485Y-56848932D01*
X122911414Y-57557861D01*
X122826306Y-57580667D01*
X122723694Y-57639910D01*
X122639910Y-57723694D01*
X122580667Y-57826306D01*
X122557861Y-57911414D01*
X121896818Y-57250371D01*
X121863333Y-57189048D01*
X121860499Y-57162690D01*
X121860499Y-57052129D01*
X121860498Y-57052123D01*
X121860497Y-57052116D01*
X121854091Y-56992517D01*
X121839420Y-56953183D01*
X121834326Y-56939524D01*
X121803797Y-56857671D01*
X121803793Y-56857664D01*
X121717547Y-56742455D01*
X121717544Y-56742452D01*
X121602335Y-56656206D01*
X121602328Y-56656202D01*
X121467482Y-56605908D01*
X121467483Y-56605908D01*
X121407883Y-56599501D01*
X121407881Y-56599500D01*
X121407873Y-56599500D01*
X121407864Y-56599500D01*
X119512129Y-56599500D01*
X119512123Y-56599501D01*
X119452516Y-56605908D01*
X119317671Y-56656202D01*
X119317664Y-56656206D01*
X119202455Y-56742452D01*
X119202452Y-56742455D01*
X119116206Y-56857664D01*
X119116202Y-56857671D01*
X119065908Y-56992517D01*
X119059501Y-57052116D01*
X119059501Y-57052123D01*
X119059500Y-57052135D01*
X114000500Y-57052135D01*
X114000500Y-51124500D01*
X114020185Y-51057461D01*
X114072989Y-51011706D01*
X114124500Y-51000500D01*
X187875500Y-51000500D01*
X187942539Y-51020185D01*
G37*
%TD.AperFunction*%
%TD*%
M02*
