%TF.GenerationSoftware,KiCad,Pcbnew,9.0.2*%
%TF.CreationDate,2026-05-02T21:44:49+02:00*%
%TF.ProjectId,czujnik,637a756a-6e69-46b2-9e6b-696361645f70,rev?*%
%TF.SameCoordinates,Original*%
%TF.FileFunction,Copper,L2,Bot*%
%TF.FilePolarity,Positive*%
%FSLAX46Y46*%
G04 Gerber Fmt 4.6, Leading zero omitted, Abs format (unit mm)*
G04 Created by KiCad (PCBNEW 9.0.2) date 2026-05-02 21:44:49*
%MOMM*%
%LPD*%
G01*
G04 APERTURE LIST*
%TA.AperFunction,ComponentPad*%
%ADD10R,1.700000X1.700000*%
%TD*%
%TA.AperFunction,ComponentPad*%
%ADD11C,1.700000*%
%TD*%
%TA.AperFunction,ComponentPad*%
%ADD12R,4.000000X4.000000*%
%TD*%
%TA.AperFunction,ComponentPad*%
%ADD13C,3.300000*%
%TD*%
%TA.AperFunction,ComponentPad*%
%ADD14C,3.500000*%
%TD*%
%TA.AperFunction,ComponentPad*%
%ADD15R,1.800000X1.800000*%
%TD*%
%TA.AperFunction,ComponentPad*%
%ADD16C,1.800000*%
%TD*%
%TA.AperFunction,ComponentPad*%
%ADD17C,1.600000*%
%TD*%
%TA.AperFunction,Conductor*%
%ADD18C,0.750000*%
%TD*%
%TA.AperFunction,Conductor*%
%ADD19C,0.200000*%
%TD*%
G04 APERTURE END LIST*
D10*
%TO.P,VBUS,1,Pin_1*%
%TO.N,unconnected-(VBUS1-Pin_1-Pad1)*%
X135460000Y-74500000D03*
D11*
%TO.P,VBUS,2,Pin_2*%
%TO.N,unconnected-(VBUS1-Pin_2-Pad2)*%
X138000000Y-74500000D03*
%TO.P,VBUS,3,Pin_3*%
%TO.N,unconnected-(VBUS1-Pin_3-Pad3)*%
X140540000Y-74500000D03*
%TO.P,VBUS,4,Pin_4*%
%TO.N,unconnected-(VBUS1-Pin_4-Pad4)*%
X143080000Y-74500000D03*
%TO.P,VBUS,5,Pin_5*%
%TO.N,unconnected-(VBUS1-Pin_5-Pad5)*%
X145620000Y-74500000D03*
%TO.P,VBUS,6,Pin_6*%
%TO.N,unconnected-(VBUS1-Pin_6-Pad6)*%
X148160000Y-74500000D03*
%TO.P,VBUS,7,Pin_7*%
%TO.N,unconnected-(VBUS1-Pin_7-Pad7)*%
X150700000Y-74500000D03*
%TO.P,VBUS,8,Pin_8*%
%TO.N,unconnected-(VBUS1-Pin_8-Pad8)*%
X153240000Y-74500000D03*
%TO.P,VBUS,9,Pin_9*%
%TO.N,unconnected-(VBUS1-Pin_9-Pad9)*%
X155780000Y-74500000D03*
%TO.P,VBUS,10,Pin_10*%
%TO.N,unconnected-(VBUS1-Pin_10-Pad10)*%
X158320000Y-74500000D03*
%TO.P,VBUS,11,Pin_11*%
%TO.N,unconnected-(VBUS1-Pin_11-Pad11)*%
X160860000Y-74500000D03*
%TO.P,VBUS,12,Pin_12*%
%TO.N,unconnected-(VBUS1-Pin_12-Pad12)*%
X163400000Y-74500000D03*
%TO.P,VBUS,13,Pin_13*%
%TO.N,unconnected-(VBUS1-Pin_13-Pad13)*%
X165940000Y-74500000D03*
%TO.P,VBUS,14,Pin_14*%
%TO.N,unconnected-(VBUS1-Pin_14-Pad14)*%
X168480000Y-74500000D03*
%TO.P,VBUS,15,Pin_15*%
%TO.N,unconnected-(VBUS1-Pin_15-Pad15)*%
X171020000Y-74500000D03*
%TO.P,VBUS,16,Pin_16*%
%TO.N,unconnected-(VBUS1-Pin_16-Pad16)*%
X173560000Y-74500000D03*
%TO.P,VBUS,17,Pin_17*%
%TO.N,unconnected-(VBUS1-Pin_17-Pad17)*%
X176100000Y-74500000D03*
%TO.P,VBUS,18,Pin_18*%
%TO.N,GND*%
X178640000Y-74500000D03*
%TO.P,VBUS,19,Pin_19*%
%TO.N,+5V*%
X181180000Y-74500000D03*
%TO.P,VBUS,20,Pin_20*%
%TO.N,VBUS*%
X183720000Y-74500000D03*
%TD*%
D10*
%TO.P,GPIO0,1,Pin_1*%
%TO.N,GPIO0*%
X135740000Y-92500000D03*
D11*
%TO.P,GPIO0,2,Pin_2*%
%TO.N,unconnected-(GPIO0-Pin_2-Pad2)*%
X138280000Y-92500000D03*
%TO.P,GPIO0,3,Pin_3*%
%TO.N,unconnected-(GPIO0-Pin_3-Pad3)*%
X140820000Y-92500000D03*
%TO.P,GPIO0,4,Pin_4*%
%TO.N,unconnected-(GPIO0-Pin_4-Pad4)*%
X143360000Y-92500000D03*
%TO.P,GPIO0,5,Pin_5*%
%TO.N,unconnected-(GPIO0-Pin_5-Pad5)*%
X145900000Y-92500000D03*
%TO.P,GPIO0,6,Pin_6*%
%TO.N,unconnected-(GPIO0-Pin_6-Pad6)*%
X148440000Y-92500000D03*
%TO.P,GPIO0,7,Pin_7*%
%TO.N,unconnected-(GPIO0-Pin_7-Pad7)*%
X150980000Y-92500000D03*
%TO.P,GPIO0,8,Pin_8*%
%TO.N,unconnected-(GPIO0-Pin_8-Pad8)*%
X153520000Y-92500000D03*
%TO.P,GPIO0,9,Pin_9*%
%TO.N,unconnected-(GPIO0-Pin_9-Pad9)*%
X156060000Y-92500000D03*
%TO.P,GPIO0,10,Pin_10*%
%TO.N,/DHT22_D*%
X158600000Y-92500000D03*
%TO.P,GPIO0,11,Pin_11*%
%TO.N,/RX*%
X161140000Y-92500000D03*
%TO.P,GPIO0,12,Pin_12*%
%TO.N,/TX*%
X163680000Y-92500000D03*
%TO.P,GPIO0,13,Pin_13*%
%TO.N,GND*%
X166220000Y-92500000D03*
%TO.P,GPIO0,14,Pin_14*%
%TO.N,Net-(GPIO0-Pin_14)*%
X168760000Y-92500000D03*
%TO.P,GPIO0,15,Pin_15*%
%TO.N,Net-(GPIO0-Pin_15)*%
X171300000Y-92500000D03*
%TO.P,GPIO0,16,Pin_16*%
%TO.N,Net-(GPIO0-Pin_16)*%
X173840000Y-92500000D03*
%TO.P,GPIO0,17,Pin_17*%
%TO.N,unconnected-(GPIO0-Pin_17-Pad17)*%
X176380000Y-92500000D03*
%TO.P,GPIO0,18,Pin_18*%
%TO.N,unconnected-(GPIO0-Pin_18-Pad18)*%
X178920000Y-92500000D03*
%TO.P,GPIO0,19,Pin_19*%
%TO.N,unconnected-(GPIO0-Pin_19-Pad19)*%
X181460000Y-92500000D03*
%TO.P,GPIO0,20,Pin_20*%
%TO.N,unconnected-(GPIO0-Pin_20-Pad20)*%
X184000000Y-92500000D03*
%TD*%
D10*
%TO.P,J1,1,Pin_1*%
%TO.N,GND*%
X120500000Y-77450000D03*
D11*
%TO.P,J1,2,Pin_2*%
%TO.N,/TX*%
X120500000Y-79990000D03*
%TO.P,J1,3,Pin_3*%
%TO.N,/RX*%
X120500000Y-82530000D03*
%TO.P,J1,4,Pin_4*%
%TO.N,/DHT22_D*%
X120500000Y-85070000D03*
%TO.P,J1,5,Pin_5*%
%TO.N,+5V*%
X120500000Y-87610000D03*
%TD*%
D12*
%TO.P,J2,1*%
%TO.N,GND*%
X177500000Y-62000000D03*
D13*
%TO.P,J2,2*%
%TO.N,+5V*%
X177500000Y-56000000D03*
D14*
%TO.P,J2,MP*%
%TO.N,N/C*%
X182000000Y-55000000D03*
X173000000Y-55000000D03*
%TD*%
D15*
%TO.P,D2,1,K*%
%TO.N,Net-(D2-K)*%
X126960000Y-58000000D03*
D16*
%TO.P,D2,2,A*%
%TO.N,GND*%
X129500000Y-58000000D03*
%TD*%
D17*
%TO.P,R2,1*%
%TO.N,Net-(D2-K)*%
X143420000Y-66500000D03*
%TO.P,R2,2*%
%TO.N,Net-(GPIO0-Pin_15)*%
X153580000Y-66500000D03*
%TD*%
D15*
%TO.P,D1,1,K*%
%TO.N,Net-(D1-K)*%
X120460000Y-58000000D03*
D16*
%TO.P,D1,2,A*%
%TO.N,GND*%
X123000000Y-58000000D03*
%TD*%
D17*
%TO.P,R3,1*%
%TO.N,Net-(D3-K)*%
X156920000Y-66500000D03*
%TO.P,R3,2*%
%TO.N,Net-(GPIO0-Pin_16)*%
X167080000Y-66500000D03*
%TD*%
%TO.P,R1,1*%
%TO.N,Net-(D1-K)*%
X129920000Y-66500000D03*
%TO.P,R1,2*%
%TO.N,Net-(GPIO0-Pin_14)*%
X140080000Y-66500000D03*
%TD*%
D15*
%TO.P,D3,1,K*%
%TO.N,Net-(D3-K)*%
X133230000Y-58000000D03*
D16*
%TO.P,D3,2,A*%
%TO.N,GND*%
X135770000Y-58000000D03*
%TD*%
D18*
%TO.N,+5V*%
X130500000Y-88000000D02*
X130000000Y-88000000D01*
X130500000Y-88000000D02*
X130110000Y-87610000D01*
X130110000Y-87610000D02*
X120500000Y-87610000D01*
X179000000Y-88000000D02*
X130500000Y-88000000D01*
X181200000Y-90200000D02*
X179000000Y-88000000D01*
X181200000Y-90300000D02*
X181200000Y-90200000D01*
X182500000Y-89000000D02*
X181200000Y-90300000D01*
X186000000Y-88000000D02*
X185000000Y-89000000D01*
X185000000Y-89000000D02*
X182500000Y-89000000D01*
X186000000Y-64500000D02*
X186000000Y-88000000D01*
X177500000Y-56000000D02*
X186000000Y-64500000D01*
D19*
%TO.N,GND*%
X177000000Y-61076200D02*
X177000000Y-61000000D01*
%TO.N,Net-(D1-K)*%
X129786200Y-66500000D02*
X130340000Y-66500000D01*
%TD*%
%TA.AperFunction,Conductor*%
%TO.N,GND*%
G36*
X187942539Y-51020185D02*
G01*
X187988294Y-51072989D01*
X187999500Y-51124500D01*
X187999500Y-99875500D01*
X187979815Y-99942539D01*
X187927011Y-99988294D01*
X187875500Y-99999500D01*
X114124500Y-99999500D01*
X114057461Y-99979815D01*
X114011706Y-99927011D01*
X114000500Y-99875500D01*
X114000500Y-79883713D01*
X119149500Y-79883713D01*
X119149500Y-80096286D01*
X119182753Y-80306239D01*
X119248444Y-80508414D01*
X119344951Y-80697820D01*
X119469890Y-80869786D01*
X119620213Y-81020109D01*
X119792182Y-81145050D01*
X119800946Y-81149516D01*
X119851742Y-81197491D01*
X119868536Y-81265312D01*
X119845998Y-81331447D01*
X119800946Y-81370484D01*
X119792182Y-81374949D01*
X119620213Y-81499890D01*
X119469890Y-81650213D01*
X119344951Y-81822179D01*
X119248444Y-82011585D01*
X119182753Y-82213760D01*
X119149500Y-82423713D01*
X119149500Y-82636286D01*
X119182753Y-82846239D01*
X119248444Y-83048414D01*
X119344951Y-83237820D01*
X119469890Y-83409786D01*
X119620213Y-83560109D01*
X119792182Y-83685050D01*
X119800946Y-83689516D01*
X119851742Y-83737491D01*
X119868536Y-83805312D01*
X119845998Y-83871447D01*
X119800946Y-83910484D01*
X119792182Y-83914949D01*
X119620213Y-84039890D01*
X119469890Y-84190213D01*
X119344951Y-84362179D01*
X119248444Y-84551585D01*
X119182753Y-84753760D01*
X119149500Y-84963713D01*
X119149500Y-85176286D01*
X119182753Y-85386239D01*
X119248444Y-85588414D01*
X119344951Y-85777820D01*
X119469890Y-85949786D01*
X119620213Y-86100109D01*
X119792182Y-86225050D01*
X119800946Y-86229516D01*
X119851742Y-86277491D01*
X119868536Y-86345312D01*
X119845998Y-86411447D01*
X119800946Y-86450484D01*
X119792182Y-86454949D01*
X119620213Y-86579890D01*
X119469890Y-86730213D01*
X119344951Y-86902179D01*
X119248444Y-87091585D01*
X119182753Y-87293760D01*
X119178604Y-87319957D01*
X119149500Y-87503713D01*
X119149500Y-87716287D01*
X119182754Y-87926243D01*
X119234737Y-88086231D01*
X119248444Y-88128414D01*
X119344951Y-88317820D01*
X119469890Y-88489786D01*
X119620213Y-88640109D01*
X119792179Y-88765048D01*
X119792181Y-88765049D01*
X119792184Y-88765051D01*
X119981588Y-88861557D01*
X120183757Y-88927246D01*
X120393713Y-88960500D01*
X120393714Y-88960500D01*
X120606286Y-88960500D01*
X120606287Y-88960500D01*
X120816243Y-88927246D01*
X121018412Y-88861557D01*
X121207816Y-88765051D01*
X121324822Y-88680042D01*
X121379786Y-88640109D01*
X121379788Y-88640106D01*
X121379792Y-88640104D01*
X121498077Y-88521819D01*
X121559400Y-88488334D01*
X121585758Y-88485500D01*
X129205166Y-88485500D01*
X129272205Y-88505185D01*
X129308268Y-88540609D01*
X129319954Y-88558098D01*
X129319957Y-88558102D01*
X129441897Y-88680042D01*
X129441901Y-88680045D01*
X129585288Y-88775854D01*
X129585301Y-88775861D01*
X129744621Y-88841853D01*
X129744626Y-88841855D01*
X129913766Y-88875499D01*
X129913769Y-88875500D01*
X129913771Y-88875500D01*
X130413771Y-88875500D01*
X178585994Y-88875500D01*
X178653033Y-88895185D01*
X178673675Y-88911819D01*
X180369634Y-90607778D01*
X180396514Y-90648006D01*
X180424140Y-90714701D01*
X180424145Y-90714711D01*
X180519954Y-90858098D01*
X180519957Y-90858102D01*
X180641897Y-90980042D01*
X180641901Y-90980045D01*
X180785288Y-91075854D01*
X180785297Y-91075859D01*
X180809835Y-91086023D01*
X180864238Y-91129864D01*
X180886303Y-91196158D01*
X180869024Y-91263857D01*
X180818677Y-91311069D01*
X180752180Y-91344951D01*
X180580213Y-91469890D01*
X180429890Y-91620213D01*
X180304949Y-91792182D01*
X180300484Y-91800946D01*
X180252509Y-91851742D01*
X180184688Y-91868536D01*
X180118553Y-91845998D01*
X180079516Y-91800946D01*
X180075050Y-91792182D01*
X179950109Y-91620213D01*
X179799786Y-91469890D01*
X179627820Y-91344951D01*
X179438414Y-91248444D01*
X179438413Y-91248443D01*
X179438412Y-91248443D01*
X179236243Y-91182754D01*
X179236241Y-91182753D01*
X179236240Y-91182753D01*
X179074957Y-91157208D01*
X179026287Y-91149500D01*
X178813713Y-91149500D01*
X178765042Y-91157208D01*
X178603760Y-91182753D01*
X178401585Y-91248444D01*
X178212179Y-91344951D01*
X178040213Y-91469890D01*
X177889890Y-91620213D01*
X177764949Y-91792182D01*
X177760484Y-91800946D01*
X177712509Y-91851742D01*
X177644688Y-91868536D01*
X177578553Y-91845998D01*
X177539516Y-91800946D01*
X177535050Y-91792182D01*
X177410109Y-91620213D01*
X177259786Y-91469890D01*
X177087820Y-91344951D01*
X176898414Y-91248444D01*
X176898413Y-91248443D01*
X176898412Y-91248443D01*
X176696243Y-91182754D01*
X176696241Y-91182753D01*
X176696240Y-91182753D01*
X176534957Y-91157208D01*
X176486287Y-91149500D01*
X176273713Y-91149500D01*
X176225042Y-91157208D01*
X176063760Y-91182753D01*
X175861585Y-91248444D01*
X175672179Y-91344951D01*
X175500213Y-91469890D01*
X175349890Y-91620213D01*
X175224949Y-91792182D01*
X175220484Y-91800946D01*
X175172509Y-91851742D01*
X175104688Y-91868536D01*
X175038553Y-91845998D01*
X174999516Y-91800946D01*
X174995050Y-91792182D01*
X174870109Y-91620213D01*
X174719786Y-91469890D01*
X174547820Y-91344951D01*
X174358414Y-91248444D01*
X174358413Y-91248443D01*
X174358412Y-91248443D01*
X174156243Y-91182754D01*
X174156241Y-91182753D01*
X174156240Y-91182753D01*
X173994957Y-91157208D01*
X173946287Y-91149500D01*
X173733713Y-91149500D01*
X173685042Y-91157208D01*
X173523760Y-91182753D01*
X173321585Y-91248444D01*
X173132179Y-91344951D01*
X172960213Y-91469890D01*
X172809890Y-91620213D01*
X172684949Y-91792182D01*
X172680484Y-91800946D01*
X172632509Y-91851742D01*
X172564688Y-91868536D01*
X172498553Y-91845998D01*
X172459516Y-91800946D01*
X172455050Y-91792182D01*
X172330109Y-91620213D01*
X172179786Y-91469890D01*
X172007820Y-91344951D01*
X171818414Y-91248444D01*
X171818413Y-91248443D01*
X171818412Y-91248443D01*
X171616243Y-91182754D01*
X171616241Y-91182753D01*
X171616240Y-91182753D01*
X171454957Y-91157208D01*
X171406287Y-91149500D01*
X171193713Y-91149500D01*
X171145042Y-91157208D01*
X170983760Y-91182753D01*
X170781585Y-91248444D01*
X170592179Y-91344951D01*
X170420213Y-91469890D01*
X170269890Y-91620213D01*
X170144949Y-91792182D01*
X170140484Y-91800946D01*
X170092509Y-91851742D01*
X170024688Y-91868536D01*
X169958553Y-91845998D01*
X169919516Y-91800946D01*
X169915050Y-91792182D01*
X169790109Y-91620213D01*
X169639786Y-91469890D01*
X169467820Y-91344951D01*
X169278414Y-91248444D01*
X169278413Y-91248443D01*
X169278412Y-91248443D01*
X169076243Y-91182754D01*
X169076241Y-91182753D01*
X169076240Y-91182753D01*
X168914957Y-91157208D01*
X168866287Y-91149500D01*
X168653713Y-91149500D01*
X168605042Y-91157208D01*
X168443760Y-91182753D01*
X168241585Y-91248444D01*
X168052179Y-91344951D01*
X167880213Y-91469890D01*
X167729890Y-91620213D01*
X167604949Y-91792182D01*
X167600202Y-91801499D01*
X167552227Y-91852293D01*
X167484405Y-91869087D01*
X167418271Y-91846548D01*
X167379234Y-91801495D01*
X167374626Y-91792452D01*
X167335270Y-91738282D01*
X167335269Y-91738282D01*
X166702962Y-92370590D01*
X166685925Y-92307007D01*
X166620099Y-92192993D01*
X166527007Y-92099901D01*
X166412993Y-92034075D01*
X166349409Y-92017037D01*
X166981716Y-91384728D01*
X166927550Y-91345375D01*
X166738217Y-91248904D01*
X166536129Y-91183242D01*
X166326246Y-91150000D01*
X166113754Y-91150000D01*
X165903872Y-91183242D01*
X165903869Y-91183242D01*
X165701782Y-91248904D01*
X165512439Y-91345380D01*
X165458282Y-91384727D01*
X165458282Y-91384728D01*
X166090591Y-92017037D01*
X166027007Y-92034075D01*
X165912993Y-92099901D01*
X165819901Y-92192993D01*
X165754075Y-92307007D01*
X165737037Y-92370591D01*
X165104728Y-91738282D01*
X165104727Y-91738282D01*
X165065380Y-91792440D01*
X165065376Y-91792446D01*
X165060760Y-91801505D01*
X165012781Y-91852297D01*
X164944959Y-91869087D01*
X164878826Y-91846543D01*
X164839794Y-91801493D01*
X164835051Y-91792184D01*
X164835049Y-91792181D01*
X164835048Y-91792179D01*
X164710109Y-91620213D01*
X164559786Y-91469890D01*
X164387820Y-91344951D01*
X164198414Y-91248444D01*
X164198413Y-91248443D01*
X164198412Y-91248443D01*
X163996243Y-91182754D01*
X163996241Y-91182753D01*
X163996240Y-91182753D01*
X163834957Y-91157208D01*
X163786287Y-91149500D01*
X163573713Y-91149500D01*
X163525042Y-91157208D01*
X163363760Y-91182753D01*
X163161585Y-91248444D01*
X162972179Y-91344951D01*
X162800213Y-91469890D01*
X162649890Y-91620213D01*
X162524949Y-91792182D01*
X162520484Y-91800946D01*
X162472509Y-91851742D01*
X162404688Y-91868536D01*
X162338553Y-91845998D01*
X162299516Y-91800946D01*
X162295050Y-91792182D01*
X162170109Y-91620213D01*
X162019786Y-91469890D01*
X161847820Y-91344951D01*
X161658414Y-91248444D01*
X161658413Y-91248443D01*
X161658412Y-91248443D01*
X161456243Y-91182754D01*
X161456241Y-91182753D01*
X161456240Y-91182753D01*
X161294957Y-91157208D01*
X161246287Y-91149500D01*
X161033713Y-91149500D01*
X160985042Y-91157208D01*
X160823760Y-91182753D01*
X160621585Y-91248444D01*
X160432179Y-91344951D01*
X160260213Y-91469890D01*
X160109890Y-91620213D01*
X159984949Y-91792182D01*
X159980484Y-91800946D01*
X159932509Y-91851742D01*
X159864688Y-91868536D01*
X159798553Y-91845998D01*
X159759516Y-91800946D01*
X159755050Y-91792182D01*
X159630109Y-91620213D01*
X159479786Y-91469890D01*
X159307820Y-91344951D01*
X159118414Y-91248444D01*
X159118413Y-91248443D01*
X159118412Y-91248443D01*
X158916243Y-91182754D01*
X158916241Y-91182753D01*
X158916240Y-91182753D01*
X158754957Y-91157208D01*
X158706287Y-91149500D01*
X158493713Y-91149500D01*
X158445042Y-91157208D01*
X158283760Y-91182753D01*
X158081585Y-91248444D01*
X157892179Y-91344951D01*
X157720213Y-91469890D01*
X157569890Y-91620213D01*
X157444949Y-91792182D01*
X157440484Y-91800946D01*
X157392509Y-91851742D01*
X157324688Y-91868536D01*
X157258553Y-91845998D01*
X157219516Y-91800946D01*
X157215050Y-91792182D01*
X157090109Y-91620213D01*
X156939786Y-91469890D01*
X156767820Y-91344951D01*
X156578414Y-91248444D01*
X156578413Y-91248443D01*
X156578412Y-91248443D01*
X156376243Y-91182754D01*
X156376241Y-91182753D01*
X156376240Y-91182753D01*
X156214957Y-91157208D01*
X156166287Y-91149500D01*
X155953713Y-91149500D01*
X155905042Y-91157208D01*
X155743760Y-91182753D01*
X155541585Y-91248444D01*
X155352179Y-91344951D01*
X155180213Y-91469890D01*
X155029890Y-91620213D01*
X154904949Y-91792182D01*
X154900484Y-91800946D01*
X154852509Y-91851742D01*
X154784688Y-91868536D01*
X154718553Y-91845998D01*
X154679516Y-91800946D01*
X154675050Y-91792182D01*
X154550109Y-91620213D01*
X154399786Y-91469890D01*
X154227820Y-91344951D01*
X154038414Y-91248444D01*
X154038413Y-91248443D01*
X154038412Y-91248443D01*
X153836243Y-91182754D01*
X153836241Y-91182753D01*
X153836240Y-91182753D01*
X153674957Y-91157208D01*
X153626287Y-91149500D01*
X153413713Y-91149500D01*
X153365042Y-91157208D01*
X153203760Y-91182753D01*
X153001585Y-91248444D01*
X152812179Y-91344951D01*
X152640213Y-91469890D01*
X152489890Y-91620213D01*
X152364949Y-91792182D01*
X152360484Y-91800946D01*
X152312509Y-91851742D01*
X152244688Y-91868536D01*
X152178553Y-91845998D01*
X152139516Y-91800946D01*
X152135050Y-91792182D01*
X152010109Y-91620213D01*
X151859786Y-91469890D01*
X151687820Y-91344951D01*
X151498414Y-91248444D01*
X151498413Y-91248443D01*
X151498412Y-91248443D01*
X151296243Y-91182754D01*
X151296241Y-91182753D01*
X151296240Y-91182753D01*
X151134957Y-91157208D01*
X151086287Y-91149500D01*
X150873713Y-91149500D01*
X150825042Y-91157208D01*
X150663760Y-91182753D01*
X150461585Y-91248444D01*
X150272179Y-91344951D01*
X150100213Y-91469890D01*
X149949890Y-91620213D01*
X149824949Y-91792182D01*
X149820484Y-91800946D01*
X149772509Y-91851742D01*
X149704688Y-91868536D01*
X149638553Y-91845998D01*
X149599516Y-91800946D01*
X149595050Y-91792182D01*
X149470109Y-91620213D01*
X149319786Y-91469890D01*
X149147820Y-91344951D01*
X148958414Y-91248444D01*
X148958413Y-91248443D01*
X148958412Y-91248443D01*
X148756243Y-91182754D01*
X148756241Y-91182753D01*
X148756240Y-91182753D01*
X148594957Y-91157208D01*
X148546287Y-91149500D01*
X148333713Y-91149500D01*
X148285042Y-91157208D01*
X148123760Y-91182753D01*
X147921585Y-91248444D01*
X147732179Y-91344951D01*
X147560213Y-91469890D01*
X147409890Y-91620213D01*
X147284949Y-91792182D01*
X147280484Y-91800946D01*
X147232509Y-91851742D01*
X147164688Y-91868536D01*
X147098553Y-91845998D01*
X147059516Y-91800946D01*
X147055050Y-91792182D01*
X146930109Y-91620213D01*
X146779786Y-91469890D01*
X146607820Y-91344951D01*
X146418414Y-91248444D01*
X146418413Y-91248443D01*
X146418412Y-91248443D01*
X146216243Y-91182754D01*
X146216241Y-91182753D01*
X146216240Y-91182753D01*
X146054957Y-91157208D01*
X146006287Y-91149500D01*
X145793713Y-91149500D01*
X145745042Y-91157208D01*
X145583760Y-91182753D01*
X145381585Y-91248444D01*
X145192179Y-91344951D01*
X145020213Y-91469890D01*
X144869890Y-91620213D01*
X144744949Y-91792182D01*
X144740484Y-91800946D01*
X144692509Y-91851742D01*
X144624688Y-91868536D01*
X144558553Y-91845998D01*
X144519516Y-91800946D01*
X144515050Y-91792182D01*
X144390109Y-91620213D01*
X144239786Y-91469890D01*
X144067820Y-91344951D01*
X143878414Y-91248444D01*
X143878413Y-91248443D01*
X143878412Y-91248443D01*
X143676243Y-91182754D01*
X143676241Y-91182753D01*
X143676240Y-91182753D01*
X143514957Y-91157208D01*
X143466287Y-91149500D01*
X143253713Y-91149500D01*
X143205042Y-91157208D01*
X143043760Y-91182753D01*
X142841585Y-91248444D01*
X142652179Y-91344951D01*
X142480213Y-91469890D01*
X142329890Y-91620213D01*
X142204949Y-91792182D01*
X142200484Y-91800946D01*
X142152509Y-91851742D01*
X142084688Y-91868536D01*
X142018553Y-91845998D01*
X141979516Y-91800946D01*
X141975050Y-91792182D01*
X141850109Y-91620213D01*
X141699786Y-91469890D01*
X141527820Y-91344951D01*
X141338414Y-91248444D01*
X141338413Y-91248443D01*
X141338412Y-91248443D01*
X141136243Y-91182754D01*
X141136241Y-91182753D01*
X141136240Y-91182753D01*
X140974957Y-91157208D01*
X140926287Y-91149500D01*
X140713713Y-91149500D01*
X140665042Y-91157208D01*
X140503760Y-91182753D01*
X140301585Y-91248444D01*
X140112179Y-91344951D01*
X139940213Y-91469890D01*
X139789890Y-91620213D01*
X139664949Y-91792182D01*
X139660484Y-91800946D01*
X139612509Y-91851742D01*
X139544688Y-91868536D01*
X139478553Y-91845998D01*
X139439516Y-91800946D01*
X139435050Y-91792182D01*
X139310109Y-91620213D01*
X139159786Y-91469890D01*
X138987820Y-91344951D01*
X138798414Y-91248444D01*
X138798413Y-91248443D01*
X138798412Y-91248443D01*
X138596243Y-91182754D01*
X138596241Y-91182753D01*
X138596240Y-91182753D01*
X138434957Y-91157208D01*
X138386287Y-91149500D01*
X138173713Y-91149500D01*
X138125042Y-91157208D01*
X137963760Y-91182753D01*
X137761585Y-91248444D01*
X137572179Y-91344951D01*
X137400215Y-91469889D01*
X137286673Y-91583431D01*
X137225350Y-91616915D01*
X137155658Y-91611931D01*
X137099725Y-91570059D01*
X137082810Y-91539082D01*
X137033797Y-91407671D01*
X137033793Y-91407664D01*
X136947547Y-91292455D01*
X136947544Y-91292452D01*
X136832335Y-91206206D01*
X136832328Y-91206202D01*
X136697482Y-91155908D01*
X136697483Y-91155908D01*
X136637883Y-91149501D01*
X136637881Y-91149500D01*
X136637873Y-91149500D01*
X136637864Y-91149500D01*
X134842129Y-91149500D01*
X134842123Y-91149501D01*
X134782516Y-91155908D01*
X134647671Y-91206202D01*
X134647664Y-91206206D01*
X134532455Y-91292452D01*
X134532452Y-91292455D01*
X134446206Y-91407664D01*
X134446202Y-91407671D01*
X134395908Y-91542517D01*
X134389501Y-91602116D01*
X134389500Y-91602135D01*
X134389500Y-93397870D01*
X134389501Y-93397876D01*
X134395908Y-93457483D01*
X134446202Y-93592328D01*
X134446206Y-93592335D01*
X134532452Y-93707544D01*
X134532455Y-93707547D01*
X134647664Y-93793793D01*
X134647671Y-93793797D01*
X134782517Y-93844091D01*
X134782516Y-93844091D01*
X134789444Y-93844835D01*
X134842127Y-93850500D01*
X136637872Y-93850499D01*
X136697483Y-93844091D01*
X136832331Y-93793796D01*
X136947546Y-93707546D01*
X137033796Y-93592331D01*
X137082810Y-93460916D01*
X137124681Y-93404984D01*
X137190145Y-93380566D01*
X137258418Y-93395417D01*
X137286673Y-93416569D01*
X137400213Y-93530109D01*
X137572179Y-93655048D01*
X137572181Y-93655049D01*
X137572184Y-93655051D01*
X137761588Y-93751557D01*
X137963757Y-93817246D01*
X138173713Y-93850500D01*
X138173714Y-93850500D01*
X138386286Y-93850500D01*
X138386287Y-93850500D01*
X138596243Y-93817246D01*
X138798412Y-93751557D01*
X138987816Y-93655051D01*
X139074138Y-93592335D01*
X139159786Y-93530109D01*
X139159788Y-93530106D01*
X139159792Y-93530104D01*
X139310104Y-93379792D01*
X139310106Y-93379788D01*
X139310109Y-93379786D01*
X139435048Y-93207820D01*
X139435047Y-93207820D01*
X139435051Y-93207816D01*
X139439514Y-93199054D01*
X139487488Y-93148259D01*
X139555308Y-93131463D01*
X139621444Y-93153999D01*
X139660486Y-93199056D01*
X139664951Y-93207820D01*
X139789890Y-93379786D01*
X139940213Y-93530109D01*
X140112179Y-93655048D01*
X140112181Y-93655049D01*
X140112184Y-93655051D01*
X140301588Y-93751557D01*
X140503757Y-93817246D01*
X140713713Y-93850500D01*
X140713714Y-93850500D01*
X140926286Y-93850500D01*
X140926287Y-93850500D01*
X141136243Y-93817246D01*
X141338412Y-93751557D01*
X141527816Y-93655051D01*
X141614138Y-93592335D01*
X141699786Y-93530109D01*
X141699788Y-93530106D01*
X141699792Y-93530104D01*
X141850104Y-93379792D01*
X141850106Y-93379788D01*
X141850109Y-93379786D01*
X141975048Y-93207820D01*
X141975047Y-93207820D01*
X141975051Y-93207816D01*
X141979514Y-93199054D01*
X142027488Y-93148259D01*
X142095308Y-93131463D01*
X142161444Y-93153999D01*
X142200486Y-93199056D01*
X142204951Y-93207820D01*
X142329890Y-93379786D01*
X142480213Y-93530109D01*
X142652179Y-93655048D01*
X142652181Y-93655049D01*
X142652184Y-93655051D01*
X142841588Y-93751557D01*
X143043757Y-93817246D01*
X143253713Y-93850500D01*
X143253714Y-93850500D01*
X143466286Y-93850500D01*
X143466287Y-93850500D01*
X143676243Y-93817246D01*
X143878412Y-93751557D01*
X144067816Y-93655051D01*
X144154138Y-93592335D01*
X144239786Y-93530109D01*
X144239788Y-93530106D01*
X144239792Y-93530104D01*
X144390104Y-93379792D01*
X144390106Y-93379788D01*
X144390109Y-93379786D01*
X144515048Y-93207820D01*
X144515047Y-93207820D01*
X144515051Y-93207816D01*
X144519514Y-93199054D01*
X144567488Y-93148259D01*
X144635308Y-93131463D01*
X144701444Y-93153999D01*
X144740486Y-93199056D01*
X144744951Y-93207820D01*
X144869890Y-93379786D01*
X145020213Y-93530109D01*
X145192179Y-93655048D01*
X145192181Y-93655049D01*
X145192184Y-93655051D01*
X145381588Y-93751557D01*
X145583757Y-93817246D01*
X145793713Y-93850500D01*
X145793714Y-93850500D01*
X146006286Y-93850500D01*
X146006287Y-93850500D01*
X146216243Y-93817246D01*
X146418412Y-93751557D01*
X146607816Y-93655051D01*
X146694138Y-93592335D01*
X146779786Y-93530109D01*
X146779788Y-93530106D01*
X146779792Y-93530104D01*
X146930104Y-93379792D01*
X146930106Y-93379788D01*
X146930109Y-93379786D01*
X147055048Y-93207820D01*
X147055047Y-93207820D01*
X147055051Y-93207816D01*
X147059514Y-93199054D01*
X147107488Y-93148259D01*
X147175308Y-93131463D01*
X147241444Y-93153999D01*
X147280486Y-93199056D01*
X147284951Y-93207820D01*
X147409890Y-93379786D01*
X147560213Y-93530109D01*
X147732179Y-93655048D01*
X147732181Y-93655049D01*
X147732184Y-93655051D01*
X147921588Y-93751557D01*
X148123757Y-93817246D01*
X148333713Y-93850500D01*
X148333714Y-93850500D01*
X148546286Y-93850500D01*
X148546287Y-93850500D01*
X148756243Y-93817246D01*
X148958412Y-93751557D01*
X149147816Y-93655051D01*
X149234138Y-93592335D01*
X149319786Y-93530109D01*
X149319788Y-93530106D01*
X149319792Y-93530104D01*
X149470104Y-93379792D01*
X149470106Y-93379788D01*
X149470109Y-93379786D01*
X149595048Y-93207820D01*
X149595047Y-93207820D01*
X149595051Y-93207816D01*
X149599514Y-93199054D01*
X149647488Y-93148259D01*
X149715308Y-93131463D01*
X149781444Y-93153999D01*
X149820486Y-93199056D01*
X149824951Y-93207820D01*
X149949890Y-93379786D01*
X150100213Y-93530109D01*
X150272179Y-93655048D01*
X150272181Y-93655049D01*
X150272184Y-93655051D01*
X150461588Y-93751557D01*
X150663757Y-93817246D01*
X150873713Y-93850500D01*
X150873714Y-93850500D01*
X151086286Y-93850500D01*
X151086287Y-93850500D01*
X151296243Y-93817246D01*
X151498412Y-93751557D01*
X151687816Y-93655051D01*
X151774138Y-93592335D01*
X151859786Y-93530109D01*
X151859788Y-93530106D01*
X151859792Y-93530104D01*
X152010104Y-93379792D01*
X152010106Y-93379788D01*
X152010109Y-93379786D01*
X152135048Y-93207820D01*
X152135047Y-93207820D01*
X152135051Y-93207816D01*
X152139514Y-93199054D01*
X152187488Y-93148259D01*
X152255308Y-93131463D01*
X152321444Y-93153999D01*
X152360486Y-93199056D01*
X152364951Y-93207820D01*
X152489890Y-93379786D01*
X152640213Y-93530109D01*
X152812179Y-93655048D01*
X152812181Y-93655049D01*
X152812184Y-93655051D01*
X153001588Y-93751557D01*
X153203757Y-93817246D01*
X153413713Y-93850500D01*
X153413714Y-93850500D01*
X153626286Y-93850500D01*
X153626287Y-93850500D01*
X153836243Y-93817246D01*
X154038412Y-93751557D01*
X154227816Y-93655051D01*
X154314138Y-93592335D01*
X154399786Y-93530109D01*
X154399788Y-93530106D01*
X154399792Y-93530104D01*
X154550104Y-93379792D01*
X154550106Y-93379788D01*
X154550109Y-93379786D01*
X154675048Y-93207820D01*
X154675047Y-93207820D01*
X154675051Y-93207816D01*
X154679514Y-93199054D01*
X154727488Y-93148259D01*
X154795308Y-93131463D01*
X154861444Y-93153999D01*
X154900486Y-93199056D01*
X154904951Y-93207820D01*
X155029890Y-93379786D01*
X155180213Y-93530109D01*
X155352179Y-93655048D01*
X155352181Y-93655049D01*
X155352184Y-93655051D01*
X155541588Y-93751557D01*
X155743757Y-93817246D01*
X155953713Y-93850500D01*
X155953714Y-93850500D01*
X156166286Y-93850500D01*
X156166287Y-93850500D01*
X156376243Y-93817246D01*
X156578412Y-93751557D01*
X156767816Y-93655051D01*
X156854138Y-93592335D01*
X156939786Y-93530109D01*
X156939788Y-93530106D01*
X156939792Y-93530104D01*
X157090104Y-93379792D01*
X157090106Y-93379788D01*
X157090109Y-93379786D01*
X157215048Y-93207820D01*
X157215047Y-93207820D01*
X157215051Y-93207816D01*
X157219514Y-93199054D01*
X157267488Y-93148259D01*
X157335308Y-93131463D01*
X157401444Y-93153999D01*
X157440486Y-93199056D01*
X157444951Y-93207820D01*
X157569890Y-93379786D01*
X157720213Y-93530109D01*
X157892179Y-93655048D01*
X157892181Y-93655049D01*
X157892184Y-93655051D01*
X158081588Y-93751557D01*
X158283757Y-93817246D01*
X158493713Y-93850500D01*
X158493714Y-93850500D01*
X158706286Y-93850500D01*
X158706287Y-93850500D01*
X158916243Y-93817246D01*
X159118412Y-93751557D01*
X159307816Y-93655051D01*
X159394138Y-93592335D01*
X159479786Y-93530109D01*
X159479788Y-93530106D01*
X159479792Y-93530104D01*
X159630104Y-93379792D01*
X159630106Y-93379788D01*
X159630109Y-93379786D01*
X159755048Y-93207820D01*
X159755047Y-93207820D01*
X159755051Y-93207816D01*
X159759514Y-93199054D01*
X159807488Y-93148259D01*
X159875308Y-93131463D01*
X159941444Y-93153999D01*
X159980486Y-93199056D01*
X159984951Y-93207820D01*
X160109890Y-93379786D01*
X160260213Y-93530109D01*
X160432179Y-93655048D01*
X160432181Y-93655049D01*
X160432184Y-93655051D01*
X160621588Y-93751557D01*
X160823757Y-93817246D01*
X161033713Y-93850500D01*
X161033714Y-93850500D01*
X161246286Y-93850500D01*
X161246287Y-93850500D01*
X161456243Y-93817246D01*
X161658412Y-93751557D01*
X161847816Y-93655051D01*
X161934138Y-93592335D01*
X162019786Y-93530109D01*
X162019788Y-93530106D01*
X162019792Y-93530104D01*
X162170104Y-93379792D01*
X162170106Y-93379788D01*
X162170109Y-93379786D01*
X162295048Y-93207820D01*
X162295047Y-93207820D01*
X162295051Y-93207816D01*
X162299514Y-93199054D01*
X162347488Y-93148259D01*
X162415308Y-93131463D01*
X162481444Y-93153999D01*
X162520486Y-93199056D01*
X162524951Y-93207820D01*
X162649890Y-93379786D01*
X162800213Y-93530109D01*
X162972179Y-93655048D01*
X162972181Y-93655049D01*
X162972184Y-93655051D01*
X163161588Y-93751557D01*
X163363757Y-93817246D01*
X163573713Y-93850500D01*
X163573714Y-93850500D01*
X163786286Y-93850500D01*
X163786287Y-93850500D01*
X163996243Y-93817246D01*
X164198412Y-93751557D01*
X164387816Y-93655051D01*
X164474138Y-93592335D01*
X164559786Y-93530109D01*
X164559788Y-93530106D01*
X164559792Y-93530104D01*
X164710104Y-93379792D01*
X164710106Y-93379788D01*
X164710109Y-93379786D01*
X164795890Y-93261717D01*
X164835051Y-93207816D01*
X164839793Y-93198508D01*
X164887763Y-93147711D01*
X164955583Y-93130911D01*
X165021719Y-93153445D01*
X165060763Y-93198500D01*
X165065373Y-93207547D01*
X165104728Y-93261716D01*
X165737037Y-92629408D01*
X165754075Y-92692993D01*
X165819901Y-92807007D01*
X165912993Y-92900099D01*
X166027007Y-92965925D01*
X166090590Y-92982962D01*
X165458282Y-93615269D01*
X165458282Y-93615270D01*
X165512449Y-93654624D01*
X165701782Y-93751095D01*
X165903870Y-93816757D01*
X166113754Y-93850000D01*
X166326246Y-93850000D01*
X166536127Y-93816757D01*
X166536130Y-93816757D01*
X166738217Y-93751095D01*
X166927554Y-93654622D01*
X166981716Y-93615270D01*
X166981717Y-93615270D01*
X166349408Y-92982962D01*
X166412993Y-92965925D01*
X166527007Y-92900099D01*
X166620099Y-92807007D01*
X166685925Y-92692993D01*
X166702962Y-92629408D01*
X167335270Y-93261717D01*
X167335270Y-93261716D01*
X167374622Y-93207555D01*
X167379232Y-93198507D01*
X167427205Y-93147709D01*
X167495025Y-93130912D01*
X167561161Y-93153447D01*
X167600204Y-93198504D01*
X167604949Y-93207817D01*
X167729890Y-93379786D01*
X167880213Y-93530109D01*
X168052179Y-93655048D01*
X168052181Y-93655049D01*
X168052184Y-93655051D01*
X168241588Y-93751557D01*
X168443757Y-93817246D01*
X168653713Y-93850500D01*
X168653714Y-93850500D01*
X168866286Y-93850500D01*
X168866287Y-93850500D01*
X169076243Y-93817246D01*
X169278412Y-93751557D01*
X169467816Y-93655051D01*
X169554138Y-93592335D01*
X169639786Y-93530109D01*
X169639788Y-93530106D01*
X169639792Y-93530104D01*
X169790104Y-93379792D01*
X169790106Y-93379788D01*
X169790109Y-93379786D01*
X169915048Y-93207820D01*
X169915047Y-93207820D01*
X169915051Y-93207816D01*
X169919514Y-93199054D01*
X169967488Y-93148259D01*
X170035308Y-93131463D01*
X170101444Y-93153999D01*
X170140486Y-93199056D01*
X170144951Y-93207820D01*
X170269890Y-93379786D01*
X170420213Y-93530109D01*
X170592179Y-93655048D01*
X170592181Y-93655049D01*
X170592184Y-93655051D01*
X170781588Y-93751557D01*
X170983757Y-93817246D01*
X171193713Y-93850500D01*
X171193714Y-93850500D01*
X171406286Y-93850500D01*
X171406287Y-93850500D01*
X171616243Y-93817246D01*
X171818412Y-93751557D01*
X172007816Y-93655051D01*
X172094138Y-93592335D01*
X172179786Y-93530109D01*
X172179788Y-93530106D01*
X172179792Y-93530104D01*
X172330104Y-93379792D01*
X172330106Y-93379788D01*
X172330109Y-93379786D01*
X172455048Y-93207820D01*
X172455047Y-93207820D01*
X172455051Y-93207816D01*
X172459514Y-93199054D01*
X172507488Y-93148259D01*
X172575308Y-93131463D01*
X172641444Y-93153999D01*
X172680486Y-93199056D01*
X172684951Y-93207820D01*
X172809890Y-93379786D01*
X172960213Y-93530109D01*
X173132179Y-93655048D01*
X173132181Y-93655049D01*
X173132184Y-93655051D01*
X173321588Y-93751557D01*
X173523757Y-93817246D01*
X173733713Y-93850500D01*
X173733714Y-93850500D01*
X173946286Y-93850500D01*
X173946287Y-93850500D01*
X174156243Y-93817246D01*
X174358412Y-93751557D01*
X174547816Y-93655051D01*
X174634138Y-93592335D01*
X174719786Y-93530109D01*
X174719788Y-93530106D01*
X174719792Y-93530104D01*
X174870104Y-93379792D01*
X174870106Y-93379788D01*
X174870109Y-93379786D01*
X174995048Y-93207820D01*
X174995047Y-93207820D01*
X174995051Y-93207816D01*
X174999514Y-93199054D01*
X175047488Y-93148259D01*
X175115308Y-93131463D01*
X175181444Y-93153999D01*
X175220486Y-93199056D01*
X175224951Y-93207820D01*
X175349890Y-93379786D01*
X175500213Y-93530109D01*
X175672179Y-93655048D01*
X175672181Y-93655049D01*
X175672184Y-93655051D01*
X175861588Y-93751557D01*
X176063757Y-93817246D01*
X176273713Y-93850500D01*
X176273714Y-93850500D01*
X176486286Y-93850500D01*
X176486287Y-93850500D01*
X176696243Y-93817246D01*
X176898412Y-93751557D01*
X177087816Y-93655051D01*
X177174138Y-93592335D01*
X177259786Y-93530109D01*
X177259788Y-93530106D01*
X177259792Y-93530104D01*
X177410104Y-93379792D01*
X177410106Y-93379788D01*
X177410109Y-93379786D01*
X177535048Y-93207820D01*
X177535047Y-93207820D01*
X177535051Y-93207816D01*
X177539514Y-93199054D01*
X177587488Y-93148259D01*
X177655308Y-93131463D01*
X177721444Y-93153999D01*
X177760486Y-93199056D01*
X177764951Y-93207820D01*
X177889890Y-93379786D01*
X178040213Y-93530109D01*
X178212179Y-93655048D01*
X178212181Y-93655049D01*
X178212184Y-93655051D01*
X178401588Y-93751557D01*
X178603757Y-93817246D01*
X178813713Y-93850500D01*
X178813714Y-93850500D01*
X179026286Y-93850500D01*
X179026287Y-93850500D01*
X179236243Y-93817246D01*
X179438412Y-93751557D01*
X179627816Y-93655051D01*
X179714138Y-93592335D01*
X179799786Y-93530109D01*
X179799788Y-93530106D01*
X179799792Y-93530104D01*
X179950104Y-93379792D01*
X179950106Y-93379788D01*
X179950109Y-93379786D01*
X180075048Y-93207820D01*
X180075047Y-93207820D01*
X180075051Y-93207816D01*
X180079514Y-93199054D01*
X180127488Y-93148259D01*
X180195308Y-93131463D01*
X180261444Y-93153999D01*
X180300486Y-93199056D01*
X180304951Y-93207820D01*
X180429890Y-93379786D01*
X180580213Y-93530109D01*
X180752179Y-93655048D01*
X180752181Y-93655049D01*
X180752184Y-93655051D01*
X180941588Y-93751557D01*
X181143757Y-93817246D01*
X181353713Y-93850500D01*
X181353714Y-93850500D01*
X181566286Y-93850500D01*
X181566287Y-93850500D01*
X181776243Y-93817246D01*
X181978412Y-93751557D01*
X182167816Y-93655051D01*
X182254138Y-93592335D01*
X182339786Y-93530109D01*
X182339788Y-93530106D01*
X182339792Y-93530104D01*
X182490104Y-93379792D01*
X182490106Y-93379788D01*
X182490109Y-93379786D01*
X182615048Y-93207820D01*
X182615047Y-93207820D01*
X182615051Y-93207816D01*
X182619514Y-93199054D01*
X182667488Y-93148259D01*
X182735308Y-93131463D01*
X182801444Y-93153999D01*
X182840486Y-93199056D01*
X182844951Y-93207820D01*
X182969890Y-93379786D01*
X183120213Y-93530109D01*
X183292179Y-93655048D01*
X183292181Y-93655049D01*
X183292184Y-93655051D01*
X183481588Y-93751557D01*
X183683757Y-93817246D01*
X183893713Y-93850500D01*
X183893714Y-93850500D01*
X184106286Y-93850500D01*
X184106287Y-93850500D01*
X184316243Y-93817246D01*
X184518412Y-93751557D01*
X184707816Y-93655051D01*
X184794138Y-93592335D01*
X184879786Y-93530109D01*
X184879788Y-93530106D01*
X184879792Y-93530104D01*
X185030104Y-93379792D01*
X185030106Y-93379788D01*
X185030109Y-93379786D01*
X185155048Y-93207820D01*
X185155047Y-93207820D01*
X185155051Y-93207816D01*
X185251557Y-93018412D01*
X185317246Y-92816243D01*
X185350500Y-92606287D01*
X185350500Y-92393713D01*
X185317246Y-92183757D01*
X185251557Y-91981588D01*
X185155051Y-91792184D01*
X185155049Y-91792181D01*
X185155048Y-91792179D01*
X185030109Y-91620213D01*
X184879786Y-91469890D01*
X184707820Y-91344951D01*
X184518414Y-91248444D01*
X184518413Y-91248443D01*
X184518412Y-91248443D01*
X184316243Y-91182754D01*
X184316241Y-91182753D01*
X184316240Y-91182753D01*
X184154957Y-91157208D01*
X184106287Y-91149500D01*
X183893713Y-91149500D01*
X183845042Y-91157208D01*
X183683760Y-91182753D01*
X183481585Y-91248444D01*
X183292179Y-91344951D01*
X183120213Y-91469890D01*
X182969890Y-91620213D01*
X182844949Y-91792182D01*
X182840484Y-91800946D01*
X182792509Y-91851742D01*
X182724688Y-91868536D01*
X182658553Y-91845998D01*
X182619516Y-91800946D01*
X182615050Y-91792182D01*
X182490109Y-91620213D01*
X182339786Y-91469890D01*
X182167820Y-91344951D01*
X181978416Y-91248444D01*
X181801815Y-91191063D01*
X181744140Y-91151625D01*
X181716942Y-91087266D01*
X181728857Y-91018420D01*
X181754952Y-90985513D01*
X181753792Y-90984353D01*
X182826325Y-89911819D01*
X182887648Y-89878334D01*
X182914006Y-89875500D01*
X185086231Y-89875500D01*
X185086232Y-89875499D01*
X185255374Y-89841855D01*
X185414705Y-89775858D01*
X185558099Y-89680045D01*
X186680045Y-88558099D01*
X186757686Y-88441901D01*
X186775858Y-88414705D01*
X186841855Y-88255374D01*
X186875500Y-88086229D01*
X186875500Y-64413771D01*
X186875500Y-64413768D01*
X186875499Y-64413766D01*
X186841856Y-64244633D01*
X186841855Y-64244626D01*
X186840803Y-64242086D01*
X186775861Y-64085301D01*
X186775854Y-64085288D01*
X186680046Y-63941902D01*
X186680045Y-63941901D01*
X186558099Y-63819955D01*
X179567151Y-56829007D01*
X179533666Y-56767684D01*
X179538650Y-56697992D01*
X179540259Y-56693902D01*
X179540742Y-56692739D01*
X179613704Y-56420442D01*
X179650500Y-56140951D01*
X179650500Y-55859049D01*
X179647916Y-55839422D01*
X179658681Y-55770388D01*
X179705060Y-55718132D01*
X179772329Y-55699246D01*
X179839130Y-55719726D01*
X179884254Y-55773070D01*
X179885416Y-55775784D01*
X179977254Y-55997500D01*
X179977258Y-55997510D01*
X180124761Y-56252993D01*
X180304352Y-56487040D01*
X180304358Y-56487047D01*
X180512952Y-56695641D01*
X180512959Y-56695647D01*
X180747006Y-56875238D01*
X181002489Y-57022741D01*
X181002490Y-57022741D01*
X181002493Y-57022743D01*
X181275048Y-57135639D01*
X181560007Y-57211993D01*
X181852494Y-57250500D01*
X181852501Y-57250500D01*
X182147499Y-57250500D01*
X182147506Y-57250500D01*
X182439993Y-57211993D01*
X182724952Y-57135639D01*
X182997507Y-57022743D01*
X183252994Y-56875238D01*
X183487042Y-56695646D01*
X183695646Y-56487042D01*
X183875238Y-56252994D01*
X184022743Y-55997507D01*
X184135639Y-55724952D01*
X184211993Y-55439993D01*
X184250500Y-55147506D01*
X184250500Y-54852494D01*
X184211993Y-54560007D01*
X184135639Y-54275048D01*
X184022743Y-54002493D01*
X184010650Y-53981548D01*
X183875238Y-53747006D01*
X183695647Y-53512959D01*
X183695641Y-53512952D01*
X183487047Y-53304358D01*
X183487040Y-53304352D01*
X183252993Y-53124761D01*
X182997510Y-52977258D01*
X182997500Y-52977254D01*
X182724961Y-52864364D01*
X182724954Y-52864362D01*
X182724952Y-52864361D01*
X182439993Y-52788007D01*
X182391113Y-52781571D01*
X182147513Y-52749500D01*
X182147506Y-52749500D01*
X181852494Y-52749500D01*
X181852486Y-52749500D01*
X181574085Y-52786153D01*
X181560007Y-52788007D01*
X181275048Y-52864361D01*
X181275038Y-52864364D01*
X181002499Y-52977254D01*
X181002489Y-52977258D01*
X180747006Y-53124761D01*
X180512959Y-53304352D01*
X180512952Y-53304358D01*
X180304358Y-53512952D01*
X180304352Y-53512959D01*
X180124761Y-53747006D01*
X179977258Y-54002489D01*
X179977254Y-54002499D01*
X179864364Y-54275038D01*
X179864361Y-54275048D01*
X179788008Y-54560004D01*
X179788006Y-54560015D01*
X179749500Y-54852486D01*
X179749500Y-55147499D01*
X179749501Y-55147520D01*
X179754657Y-55186686D01*
X179743891Y-55255721D01*
X179697510Y-55307976D01*
X179630241Y-55326860D01*
X179563440Y-55306378D01*
X179518318Y-55253033D01*
X179517157Y-55250321D01*
X179432867Y-55046825D01*
X179432859Y-55046809D01*
X179291916Y-54802690D01*
X179291912Y-54802683D01*
X179120300Y-54579035D01*
X179120298Y-54579033D01*
X179120295Y-54579029D01*
X178920970Y-54379704D01*
X178920965Y-54379700D01*
X178697317Y-54208088D01*
X178697311Y-54208084D01*
X178697309Y-54208083D01*
X178453190Y-54067140D01*
X178453179Y-54067135D01*
X178246554Y-53981548D01*
X178192151Y-53937707D01*
X178170086Y-53871413D01*
X178187365Y-53803713D01*
X178206322Y-53779309D01*
X178315977Y-53669655D01*
X178430941Y-53497598D01*
X178510130Y-53306420D01*
X178550500Y-53103465D01*
X178550500Y-52896535D01*
X178510130Y-52693580D01*
X178430941Y-52502402D01*
X178315977Y-52330345D01*
X178315975Y-52330342D01*
X178169657Y-52184024D01*
X178083626Y-52126541D01*
X177997598Y-52069059D01*
X177806420Y-51989870D01*
X177806412Y-51989868D01*
X177603469Y-51949500D01*
X177603465Y-51949500D01*
X177396535Y-51949500D01*
X177396530Y-51949500D01*
X177193587Y-51989868D01*
X177193579Y-51989870D01*
X177002403Y-52069058D01*
X176830342Y-52184024D01*
X176684024Y-52330342D01*
X176569058Y-52502403D01*
X176489870Y-52693579D01*
X176489868Y-52693587D01*
X176449500Y-52896530D01*
X176449500Y-53103469D01*
X176489868Y-53306412D01*
X176489870Y-53306420D01*
X176569058Y-53497596D01*
X176684024Y-53669657D01*
X176793673Y-53779306D01*
X176827158Y-53840629D01*
X176822174Y-53910321D01*
X176780302Y-53966254D01*
X176753445Y-53981548D01*
X176546821Y-54067135D01*
X176546809Y-54067140D01*
X176302690Y-54208083D01*
X176302682Y-54208089D01*
X176079029Y-54379704D01*
X175879704Y-54579029D01*
X175708089Y-54802682D01*
X175708083Y-54802690D01*
X175567140Y-55046809D01*
X175567135Y-55046820D01*
X175482842Y-55250322D01*
X175439001Y-55304725D01*
X175372707Y-55326790D01*
X175305007Y-55309511D01*
X175257397Y-55258373D01*
X175244991Y-55189614D01*
X175245342Y-55186683D01*
X175250499Y-55147513D01*
X175250500Y-55147506D01*
X175250500Y-54852494D01*
X175211993Y-54560007D01*
X175135639Y-54275048D01*
X175022743Y-54002493D01*
X175010650Y-53981548D01*
X174875238Y-53747006D01*
X174695647Y-53512959D01*
X174695641Y-53512952D01*
X174487047Y-53304358D01*
X174487040Y-53304352D01*
X174252993Y-53124761D01*
X173997510Y-52977258D01*
X173997500Y-52977254D01*
X173724961Y-52864364D01*
X173724954Y-52864362D01*
X173724952Y-52864361D01*
X173439993Y-52788007D01*
X173391113Y-52781571D01*
X173147513Y-52749500D01*
X173147506Y-52749500D01*
X172852494Y-52749500D01*
X172852486Y-52749500D01*
X172574085Y-52786153D01*
X172560007Y-52788007D01*
X172275048Y-52864361D01*
X172275038Y-52864364D01*
X172002499Y-52977254D01*
X172002489Y-52977258D01*
X171747006Y-53124761D01*
X171512959Y-53304352D01*
X171512952Y-53304358D01*
X171304358Y-53512952D01*
X171304352Y-53512959D01*
X171124761Y-53747006D01*
X170977258Y-54002489D01*
X170977254Y-54002499D01*
X170864364Y-54275038D01*
X170864361Y-54275048D01*
X170788008Y-54560004D01*
X170788006Y-54560015D01*
X170749500Y-54852486D01*
X170749500Y-55147513D01*
X170781571Y-55391113D01*
X170788007Y-55439993D01*
X170788008Y-55439995D01*
X170864361Y-55724951D01*
X170864364Y-55724961D01*
X170977254Y-55997500D01*
X170977258Y-55997510D01*
X171124761Y-56252993D01*
X171304352Y-56487040D01*
X171304358Y-56487047D01*
X171512952Y-56695641D01*
X171512959Y-56695647D01*
X171747006Y-56875238D01*
X172002489Y-57022741D01*
X172002490Y-57022741D01*
X172002493Y-57022743D01*
X172275048Y-57135639D01*
X172560007Y-57211993D01*
X172852494Y-57250500D01*
X172852501Y-57250500D01*
X173147499Y-57250500D01*
X173147506Y-57250500D01*
X173439993Y-57211993D01*
X173724952Y-57135639D01*
X173997507Y-57022743D01*
X174252994Y-56875238D01*
X174487042Y-56695646D01*
X174695646Y-56487042D01*
X174875238Y-56252994D01*
X175022743Y-55997507D01*
X175114583Y-55775784D01*
X175158424Y-55721381D01*
X175224718Y-55699316D01*
X175292417Y-55716595D01*
X175340028Y-55767732D01*
X175352434Y-55836492D01*
X175352084Y-55839419D01*
X175349500Y-55859046D01*
X175349500Y-56140958D01*
X175386295Y-56420439D01*
X175459259Y-56692743D01*
X175567135Y-56953179D01*
X175567140Y-56953190D01*
X175708083Y-57197309D01*
X175708088Y-57197317D01*
X175879700Y-57420965D01*
X175879704Y-57420970D01*
X176079029Y-57620295D01*
X176079033Y-57620298D01*
X176079035Y-57620300D01*
X176302683Y-57791912D01*
X176302690Y-57791916D01*
X176546809Y-57932859D01*
X176546814Y-57932861D01*
X176546817Y-57932863D01*
X176708898Y-57999999D01*
X176804723Y-58039691D01*
X176807261Y-58040742D01*
X177079558Y-58113704D01*
X177359049Y-58150500D01*
X177359056Y-58150500D01*
X177640944Y-58150500D01*
X177640951Y-58150500D01*
X177920442Y-58113704D01*
X178192739Y-58040742D01*
X178193864Y-58040275D01*
X178194227Y-58040236D01*
X178196574Y-58039440D01*
X178196659Y-58039691D01*
X178196660Y-58039691D01*
X178196662Y-58039701D01*
X178196752Y-58039964D01*
X178263331Y-58032800D01*
X178325813Y-58064069D01*
X178329007Y-58067151D01*
X179550175Y-59288319D01*
X179583660Y-59349642D01*
X179578676Y-59419334D01*
X179536804Y-59475267D01*
X179471340Y-59499684D01*
X179462494Y-59500000D01*
X177750000Y-59500000D01*
X177750000Y-60520898D01*
X177618053Y-60500000D01*
X177381947Y-60500000D01*
X177250000Y-60520898D01*
X177250000Y-59500000D01*
X175452155Y-59500000D01*
X175392627Y-59506401D01*
X175392620Y-59506403D01*
X175257913Y-59556645D01*
X175257906Y-59556649D01*
X175142812Y-59642809D01*
X175142809Y-59642812D01*
X175056649Y-59757906D01*
X175056645Y-59757913D01*
X175006403Y-59892620D01*
X175006401Y-59892627D01*
X175000000Y-59952155D01*
X175000000Y-61750000D01*
X176020898Y-61750000D01*
X176000000Y-61881947D01*
X176000000Y-62118053D01*
X176020898Y-62250000D01*
X175000000Y-62250000D01*
X175000000Y-64047844D01*
X175006401Y-64107372D01*
X175006403Y-64107379D01*
X175056645Y-64242086D01*
X175056649Y-64242093D01*
X175142809Y-64357187D01*
X175142812Y-64357190D01*
X175257906Y-64443350D01*
X175257913Y-64443354D01*
X175392620Y-64493596D01*
X175392627Y-64493598D01*
X175452155Y-64499999D01*
X175452172Y-64500000D01*
X177250000Y-64500000D01*
X177250000Y-63479101D01*
X177381947Y-63500000D01*
X177618053Y-63500000D01*
X177750000Y-63479101D01*
X177750000Y-64500000D01*
X179547828Y-64500000D01*
X179547844Y-64499999D01*
X179607372Y-64493598D01*
X179607379Y-64493596D01*
X179742086Y-64443354D01*
X179742093Y-64443350D01*
X179857187Y-64357190D01*
X179857190Y-64357187D01*
X179943350Y-64242093D01*
X179943354Y-64242086D01*
X179993596Y-64107379D01*
X179993598Y-64107372D01*
X179999999Y-64047844D01*
X180000000Y-64047827D01*
X180000000Y-62250000D01*
X178979102Y-62250000D01*
X179000000Y-62118053D01*
X179000000Y-61881947D01*
X178979102Y-61750000D01*
X180000000Y-61750000D01*
X180000000Y-60037506D01*
X180019685Y-59970467D01*
X180072489Y-59924712D01*
X180141647Y-59914768D01*
X180205203Y-59943793D01*
X180211681Y-59949825D01*
X185088181Y-64826325D01*
X185121666Y-64887648D01*
X185124500Y-64914006D01*
X185124500Y-73765257D01*
X185104815Y-73832296D01*
X185052011Y-73878051D01*
X184982853Y-73887995D01*
X184919297Y-73858970D01*
X184890016Y-73821553D01*
X184875050Y-73792182D01*
X184750109Y-73620213D01*
X184599786Y-73469890D01*
X184427820Y-73344951D01*
X184238414Y-73248444D01*
X184238413Y-73248443D01*
X184238412Y-73248443D01*
X184036243Y-73182754D01*
X184036241Y-73182753D01*
X184036240Y-73182753D01*
X183874957Y-73157208D01*
X183826287Y-73149500D01*
X183613713Y-73149500D01*
X183565042Y-73157208D01*
X183403760Y-73182753D01*
X183201585Y-73248444D01*
X183012179Y-73344951D01*
X182840213Y-73469890D01*
X182689890Y-73620213D01*
X182564949Y-73792182D01*
X182560484Y-73800946D01*
X182512509Y-73851742D01*
X182444688Y-73868536D01*
X182378553Y-73845998D01*
X182339516Y-73800946D01*
X182335050Y-73792182D01*
X182210109Y-73620213D01*
X182059786Y-73469890D01*
X181887820Y-73344951D01*
X181698414Y-73248444D01*
X181698413Y-73248443D01*
X181698412Y-73248443D01*
X181496243Y-73182754D01*
X181496241Y-73182753D01*
X181496240Y-73182753D01*
X181334957Y-73157208D01*
X181286287Y-73149500D01*
X181073713Y-73149500D01*
X181025042Y-73157208D01*
X180863760Y-73182753D01*
X180661585Y-73248444D01*
X180472179Y-73344951D01*
X180300213Y-73469890D01*
X180149890Y-73620213D01*
X180024949Y-73792182D01*
X180020202Y-73801499D01*
X179972227Y-73852293D01*
X179904405Y-73869087D01*
X179838271Y-73846548D01*
X179799234Y-73801495D01*
X179794626Y-73792452D01*
X179755270Y-73738282D01*
X179755269Y-73738282D01*
X179122962Y-74370590D01*
X179105925Y-74307007D01*
X179040099Y-74192993D01*
X178947007Y-74099901D01*
X178832993Y-74034075D01*
X178769409Y-74017037D01*
X179401716Y-73384728D01*
X179347550Y-73345375D01*
X179158217Y-73248904D01*
X178956129Y-73183242D01*
X178746246Y-73150000D01*
X178533754Y-73150000D01*
X178323872Y-73183242D01*
X178323869Y-73183242D01*
X178121782Y-73248904D01*
X177932439Y-73345380D01*
X177878282Y-73384727D01*
X177878282Y-73384728D01*
X178510591Y-74017037D01*
X178447007Y-74034075D01*
X178332993Y-74099901D01*
X178239901Y-74192993D01*
X178174075Y-74307007D01*
X178157037Y-74370591D01*
X177524728Y-73738282D01*
X177524727Y-73738282D01*
X177485380Y-73792440D01*
X177485376Y-73792446D01*
X177480760Y-73801505D01*
X177432781Y-73852297D01*
X177364959Y-73869087D01*
X177298826Y-73846543D01*
X177259794Y-73801493D01*
X177255051Y-73792184D01*
X177255049Y-73792181D01*
X177255048Y-73792179D01*
X177130109Y-73620213D01*
X176979786Y-73469890D01*
X176807820Y-73344951D01*
X176618414Y-73248444D01*
X176618413Y-73248443D01*
X176618412Y-73248443D01*
X176416243Y-73182754D01*
X176416241Y-73182753D01*
X176416240Y-73182753D01*
X176254957Y-73157208D01*
X176206287Y-73149500D01*
X175993713Y-73149500D01*
X175945042Y-73157208D01*
X175783760Y-73182753D01*
X175581585Y-73248444D01*
X175392179Y-73344951D01*
X175220213Y-73469890D01*
X175069890Y-73620213D01*
X174944949Y-73792182D01*
X174940484Y-73800946D01*
X174892509Y-73851742D01*
X174824688Y-73868536D01*
X174758553Y-73845998D01*
X174719516Y-73800946D01*
X174715050Y-73792182D01*
X174590109Y-73620213D01*
X174439786Y-73469890D01*
X174267820Y-73344951D01*
X174078414Y-73248444D01*
X174078413Y-73248443D01*
X174078412Y-73248443D01*
X173876243Y-73182754D01*
X173876241Y-73182753D01*
X173876240Y-73182753D01*
X173714957Y-73157208D01*
X173666287Y-73149500D01*
X173453713Y-73149500D01*
X173405042Y-73157208D01*
X173243760Y-73182753D01*
X173041585Y-73248444D01*
X172852179Y-73344951D01*
X172680213Y-73469890D01*
X172529890Y-73620213D01*
X172404949Y-73792182D01*
X172400484Y-73800946D01*
X172352509Y-73851742D01*
X172284688Y-73868536D01*
X172218553Y-73845998D01*
X172179516Y-73800946D01*
X172175050Y-73792182D01*
X172050109Y-73620213D01*
X171899786Y-73469890D01*
X171727820Y-73344951D01*
X171538414Y-73248444D01*
X171538413Y-73248443D01*
X171538412Y-73248443D01*
X171336243Y-73182754D01*
X171336241Y-73182753D01*
X171336240Y-73182753D01*
X171174957Y-73157208D01*
X171126287Y-73149500D01*
X170913713Y-73149500D01*
X170865042Y-73157208D01*
X170703760Y-73182753D01*
X170501585Y-73248444D01*
X170312179Y-73344951D01*
X170140213Y-73469890D01*
X169989890Y-73620213D01*
X169864949Y-73792182D01*
X169860484Y-73800946D01*
X169812509Y-73851742D01*
X169744688Y-73868536D01*
X169678553Y-73845998D01*
X169639516Y-73800946D01*
X169635050Y-73792182D01*
X169510109Y-73620213D01*
X169359786Y-73469890D01*
X169187820Y-73344951D01*
X168998414Y-73248444D01*
X168998413Y-73248443D01*
X168998412Y-73248443D01*
X168796243Y-73182754D01*
X168796241Y-73182753D01*
X168796240Y-73182753D01*
X168634957Y-73157208D01*
X168586287Y-73149500D01*
X168373713Y-73149500D01*
X168325042Y-73157208D01*
X168163760Y-73182753D01*
X167961585Y-73248444D01*
X167772179Y-73344951D01*
X167600213Y-73469890D01*
X167449890Y-73620213D01*
X167324949Y-73792182D01*
X167320484Y-73800946D01*
X167272509Y-73851742D01*
X167204688Y-73868536D01*
X167138553Y-73845998D01*
X167099516Y-73800946D01*
X167095050Y-73792182D01*
X166970109Y-73620213D01*
X166819786Y-73469890D01*
X166647820Y-73344951D01*
X166458414Y-73248444D01*
X166458413Y-73248443D01*
X166458412Y-73248443D01*
X166256243Y-73182754D01*
X166256241Y-73182753D01*
X166256240Y-73182753D01*
X166094957Y-73157208D01*
X166046287Y-73149500D01*
X165833713Y-73149500D01*
X165785042Y-73157208D01*
X165623760Y-73182753D01*
X165421585Y-73248444D01*
X165232179Y-73344951D01*
X165060213Y-73469890D01*
X164909890Y-73620213D01*
X164784949Y-73792182D01*
X164780484Y-73800946D01*
X164732509Y-73851742D01*
X164664688Y-73868536D01*
X164598553Y-73845998D01*
X164559516Y-73800946D01*
X164555050Y-73792182D01*
X164430109Y-73620213D01*
X164279786Y-73469890D01*
X164107820Y-73344951D01*
X163918414Y-73248444D01*
X163918413Y-73248443D01*
X163918412Y-73248443D01*
X163716243Y-73182754D01*
X163716241Y-73182753D01*
X163716240Y-73182753D01*
X163554957Y-73157208D01*
X163506287Y-73149500D01*
X163293713Y-73149500D01*
X163245042Y-73157208D01*
X163083760Y-73182753D01*
X162881585Y-73248444D01*
X162692179Y-73344951D01*
X162520213Y-73469890D01*
X162369890Y-73620213D01*
X162244949Y-73792182D01*
X162240484Y-73800946D01*
X162192509Y-73851742D01*
X162124688Y-73868536D01*
X162058553Y-73845998D01*
X162019516Y-73800946D01*
X162015050Y-73792182D01*
X161890109Y-73620213D01*
X161739786Y-73469890D01*
X161567820Y-73344951D01*
X161378414Y-73248444D01*
X161378413Y-73248443D01*
X161378412Y-73248443D01*
X161176243Y-73182754D01*
X161176241Y-73182753D01*
X161176240Y-73182753D01*
X161014957Y-73157208D01*
X160966287Y-73149500D01*
X160753713Y-73149500D01*
X160705042Y-73157208D01*
X160543760Y-73182753D01*
X160341585Y-73248444D01*
X160152179Y-73344951D01*
X159980213Y-73469890D01*
X159829890Y-73620213D01*
X159704949Y-73792182D01*
X159700484Y-73800946D01*
X159652509Y-73851742D01*
X159584688Y-73868536D01*
X159518553Y-73845998D01*
X159479516Y-73800946D01*
X159475050Y-73792182D01*
X159350109Y-73620213D01*
X159199786Y-73469890D01*
X159027820Y-73344951D01*
X158838414Y-73248444D01*
X158838413Y-73248443D01*
X158838412Y-73248443D01*
X158636243Y-73182754D01*
X158636241Y-73182753D01*
X158636240Y-73182753D01*
X158474957Y-73157208D01*
X158426287Y-73149500D01*
X158213713Y-73149500D01*
X158165042Y-73157208D01*
X158003760Y-73182753D01*
X157801585Y-73248444D01*
X157612179Y-73344951D01*
X157440213Y-73469890D01*
X157289890Y-73620213D01*
X157164949Y-73792182D01*
X157160484Y-73800946D01*
X157112509Y-73851742D01*
X157044688Y-73868536D01*
X156978553Y-73845998D01*
X156939516Y-73800946D01*
X156935050Y-73792182D01*
X156810109Y-73620213D01*
X156659786Y-73469890D01*
X156487820Y-73344951D01*
X156298414Y-73248444D01*
X156298413Y-73248443D01*
X156298412Y-73248443D01*
X156096243Y-73182754D01*
X156096241Y-73182753D01*
X156096240Y-73182753D01*
X155934957Y-73157208D01*
X155886287Y-73149500D01*
X155673713Y-73149500D01*
X155625042Y-73157208D01*
X155463760Y-73182753D01*
X155261585Y-73248444D01*
X155072179Y-73344951D01*
X154900213Y-73469890D01*
X154749890Y-73620213D01*
X154624949Y-73792182D01*
X154620484Y-73800946D01*
X154572509Y-73851742D01*
X154504688Y-73868536D01*
X154438553Y-73845998D01*
X154399516Y-73800946D01*
X154395050Y-73792182D01*
X154270109Y-73620213D01*
X154119786Y-73469890D01*
X153947820Y-73344951D01*
X153758414Y-73248444D01*
X153758413Y-73248443D01*
X153758412Y-73248443D01*
X153556243Y-73182754D01*
X153556241Y-73182753D01*
X153556240Y-73182753D01*
X153394957Y-73157208D01*
X153346287Y-73149500D01*
X153133713Y-73149500D01*
X153085042Y-73157208D01*
X152923760Y-73182753D01*
X152721585Y-73248444D01*
X152532179Y-73344951D01*
X152360213Y-73469890D01*
X152209890Y-73620213D01*
X152084949Y-73792182D01*
X152080484Y-73800946D01*
X152032509Y-73851742D01*
X151964688Y-73868536D01*
X151898553Y-73845998D01*
X151859516Y-73800946D01*
X151855050Y-73792182D01*
X151730109Y-73620213D01*
X151579786Y-73469890D01*
X151407820Y-73344951D01*
X151218414Y-73248444D01*
X151218413Y-73248443D01*
X151218412Y-73248443D01*
X151016243Y-73182754D01*
X151016241Y-73182753D01*
X151016240Y-73182753D01*
X150854957Y-73157208D01*
X150806287Y-73149500D01*
X150593713Y-73149500D01*
X150545042Y-73157208D01*
X150383760Y-73182753D01*
X150181585Y-73248444D01*
X149992179Y-73344951D01*
X149820213Y-73469890D01*
X149669890Y-73620213D01*
X149544949Y-73792182D01*
X149540484Y-73800946D01*
X149492509Y-73851742D01*
X149424688Y-73868536D01*
X149358553Y-73845998D01*
X149319516Y-73800946D01*
X149315050Y-73792182D01*
X149190109Y-73620213D01*
X149039786Y-73469890D01*
X148867820Y-73344951D01*
X148678414Y-73248444D01*
X148678413Y-73248443D01*
X148678412Y-73248443D01*
X148476243Y-73182754D01*
X148476241Y-73182753D01*
X148476240Y-73182753D01*
X148314957Y-73157208D01*
X148266287Y-73149500D01*
X148053713Y-73149500D01*
X148005042Y-73157208D01*
X147843760Y-73182753D01*
X147641585Y-73248444D01*
X147452179Y-73344951D01*
X147280213Y-73469890D01*
X147129890Y-73620213D01*
X147004949Y-73792182D01*
X147000484Y-73800946D01*
X146952509Y-73851742D01*
X146884688Y-73868536D01*
X146818553Y-73845998D01*
X146779516Y-73800946D01*
X146775050Y-73792182D01*
X146650109Y-73620213D01*
X146499786Y-73469890D01*
X146327820Y-73344951D01*
X146138414Y-73248444D01*
X146138413Y-73248443D01*
X146138412Y-73248443D01*
X145936243Y-73182754D01*
X145936241Y-73182753D01*
X145936240Y-73182753D01*
X145774957Y-73157208D01*
X145726287Y-73149500D01*
X145513713Y-73149500D01*
X145465042Y-73157208D01*
X145303760Y-73182753D01*
X145101585Y-73248444D01*
X144912179Y-73344951D01*
X144740213Y-73469890D01*
X144589890Y-73620213D01*
X144464949Y-73792182D01*
X144460484Y-73800946D01*
X144412509Y-73851742D01*
X144344688Y-73868536D01*
X144278553Y-73845998D01*
X144239516Y-73800946D01*
X144235050Y-73792182D01*
X144110109Y-73620213D01*
X143959786Y-73469890D01*
X143787820Y-73344951D01*
X143598414Y-73248444D01*
X143598413Y-73248443D01*
X143598412Y-73248443D01*
X143396243Y-73182754D01*
X143396241Y-73182753D01*
X143396240Y-73182753D01*
X143234957Y-73157208D01*
X143186287Y-73149500D01*
X142973713Y-73149500D01*
X142925042Y-73157208D01*
X142763760Y-73182753D01*
X142561585Y-73248444D01*
X142372179Y-73344951D01*
X142200213Y-73469890D01*
X142049890Y-73620213D01*
X141924949Y-73792182D01*
X141920484Y-73800946D01*
X141872509Y-73851742D01*
X141804688Y-73868536D01*
X141738553Y-73845998D01*
X141699516Y-73800946D01*
X141695050Y-73792182D01*
X141570109Y-73620213D01*
X141419786Y-73469890D01*
X141247820Y-73344951D01*
X141058414Y-73248444D01*
X141058413Y-73248443D01*
X141058412Y-73248443D01*
X140856243Y-73182754D01*
X140856241Y-73182753D01*
X140856240Y-73182753D01*
X140694957Y-73157208D01*
X140646287Y-73149500D01*
X140433713Y-73149500D01*
X140385042Y-73157208D01*
X140223760Y-73182753D01*
X140021585Y-73248444D01*
X139832179Y-73344951D01*
X139660213Y-73469890D01*
X139509890Y-73620213D01*
X139384949Y-73792182D01*
X139380484Y-73800946D01*
X139332509Y-73851742D01*
X139264688Y-73868536D01*
X139198553Y-73845998D01*
X139159516Y-73800946D01*
X139155050Y-73792182D01*
X139030109Y-73620213D01*
X138879786Y-73469890D01*
X138707820Y-73344951D01*
X138518414Y-73248444D01*
X138518413Y-73248443D01*
X138518412Y-73248443D01*
X138316243Y-73182754D01*
X138316241Y-73182753D01*
X138316240Y-73182753D01*
X138154957Y-73157208D01*
X138106287Y-73149500D01*
X137893713Y-73149500D01*
X137845042Y-73157208D01*
X137683760Y-73182753D01*
X137481585Y-73248444D01*
X137292179Y-73344951D01*
X137120215Y-73469889D01*
X137006673Y-73583431D01*
X136945350Y-73616915D01*
X136875658Y-73611931D01*
X136819725Y-73570059D01*
X136802810Y-73539082D01*
X136753797Y-73407671D01*
X136753793Y-73407664D01*
X136667547Y-73292455D01*
X136667544Y-73292452D01*
X136552335Y-73206206D01*
X136552328Y-73206202D01*
X136417482Y-73155908D01*
X136417483Y-73155908D01*
X136357883Y-73149501D01*
X136357881Y-73149500D01*
X136357873Y-73149500D01*
X136357864Y-73149500D01*
X134562129Y-73149500D01*
X134562123Y-73149501D01*
X134502516Y-73155908D01*
X134367671Y-73206202D01*
X134367664Y-73206206D01*
X134252455Y-73292452D01*
X134252452Y-73292455D01*
X134166206Y-73407664D01*
X134166202Y-73407671D01*
X134115908Y-73542517D01*
X134109501Y-73602116D01*
X134109500Y-73602135D01*
X134109500Y-75397870D01*
X134109501Y-75397876D01*
X134115908Y-75457483D01*
X134166202Y-75592328D01*
X134166206Y-75592335D01*
X134252452Y-75707544D01*
X134252455Y-75707547D01*
X134367664Y-75793793D01*
X134367671Y-75793797D01*
X134502517Y-75844091D01*
X134502516Y-75844091D01*
X134509444Y-75844835D01*
X134562127Y-75850500D01*
X136357872Y-75850499D01*
X136417483Y-75844091D01*
X136552331Y-75793796D01*
X136667546Y-75707546D01*
X136753796Y-75592331D01*
X136802810Y-75460916D01*
X136844681Y-75404984D01*
X136910145Y-75380566D01*
X136978418Y-75395417D01*
X137006673Y-75416569D01*
X137120213Y-75530109D01*
X137292179Y-75655048D01*
X137292181Y-75655049D01*
X137292184Y-75655051D01*
X137481588Y-75751557D01*
X137683757Y-75817246D01*
X137893713Y-75850500D01*
X137893714Y-75850500D01*
X138106286Y-75850500D01*
X138106287Y-75850500D01*
X138316243Y-75817246D01*
X138518412Y-75751557D01*
X138707816Y-75655051D01*
X138794138Y-75592335D01*
X138879786Y-75530109D01*
X138879788Y-75530106D01*
X138879792Y-75530104D01*
X139030104Y-75379792D01*
X139030106Y-75379788D01*
X139030109Y-75379786D01*
X139155048Y-75207820D01*
X139155047Y-75207820D01*
X139155051Y-75207816D01*
X139159514Y-75199054D01*
X139207488Y-75148259D01*
X139275308Y-75131463D01*
X139341444Y-75153999D01*
X139380486Y-75199056D01*
X139384951Y-75207820D01*
X139509890Y-75379786D01*
X139660213Y-75530109D01*
X139832179Y-75655048D01*
X139832181Y-75655049D01*
X139832184Y-75655051D01*
X140021588Y-75751557D01*
X140223757Y-75817246D01*
X140433713Y-75850500D01*
X140433714Y-75850500D01*
X140646286Y-75850500D01*
X140646287Y-75850500D01*
X140856243Y-75817246D01*
X141058412Y-75751557D01*
X141247816Y-75655051D01*
X141334138Y-75592335D01*
X141419786Y-75530109D01*
X141419788Y-75530106D01*
X141419792Y-75530104D01*
X141570104Y-75379792D01*
X141570106Y-75379788D01*
X141570109Y-75379786D01*
X141695048Y-75207820D01*
X141695047Y-75207820D01*
X141695051Y-75207816D01*
X141699514Y-75199054D01*
X141747488Y-75148259D01*
X141815308Y-75131463D01*
X141881444Y-75153999D01*
X141920486Y-75199056D01*
X141924951Y-75207820D01*
X142049890Y-75379786D01*
X142200213Y-75530109D01*
X142372179Y-75655048D01*
X142372181Y-75655049D01*
X142372184Y-75655051D01*
X142561588Y-75751557D01*
X142763757Y-75817246D01*
X142973713Y-75850500D01*
X142973714Y-75850500D01*
X143186286Y-75850500D01*
X143186287Y-75850500D01*
X143396243Y-75817246D01*
X143598412Y-75751557D01*
X143787816Y-75655051D01*
X143874138Y-75592335D01*
X143959786Y-75530109D01*
X143959788Y-75530106D01*
X143959792Y-75530104D01*
X144110104Y-75379792D01*
X144110106Y-75379788D01*
X144110109Y-75379786D01*
X144235048Y-75207820D01*
X144235047Y-75207820D01*
X144235051Y-75207816D01*
X144239514Y-75199054D01*
X144287488Y-75148259D01*
X144355308Y-75131463D01*
X144421444Y-75153999D01*
X144460486Y-75199056D01*
X144464951Y-75207820D01*
X144589890Y-75379786D01*
X144740213Y-75530109D01*
X144912179Y-75655048D01*
X144912181Y-75655049D01*
X144912184Y-75655051D01*
X145101588Y-75751557D01*
X145303757Y-75817246D01*
X145513713Y-75850500D01*
X145513714Y-75850500D01*
X145726286Y-75850500D01*
X145726287Y-75850500D01*
X145936243Y-75817246D01*
X146138412Y-75751557D01*
X146327816Y-75655051D01*
X146414138Y-75592335D01*
X146499786Y-75530109D01*
X146499788Y-75530106D01*
X146499792Y-75530104D01*
X146650104Y-75379792D01*
X146650106Y-75379788D01*
X146650109Y-75379786D01*
X146775048Y-75207820D01*
X146775047Y-75207820D01*
X146775051Y-75207816D01*
X146779514Y-75199054D01*
X146827488Y-75148259D01*
X146895308Y-75131463D01*
X146961444Y-75153999D01*
X147000486Y-75199056D01*
X147004951Y-75207820D01*
X147129890Y-75379786D01*
X147280213Y-75530109D01*
X147452179Y-75655048D01*
X147452181Y-75655049D01*
X147452184Y-75655051D01*
X147641588Y-75751557D01*
X147843757Y-75817246D01*
X148053713Y-75850500D01*
X148053714Y-75850500D01*
X148266286Y-75850500D01*
X148266287Y-75850500D01*
X148476243Y-75817246D01*
X148678412Y-75751557D01*
X148867816Y-75655051D01*
X148954138Y-75592335D01*
X149039786Y-75530109D01*
X149039788Y-75530106D01*
X149039792Y-75530104D01*
X149190104Y-75379792D01*
X149190106Y-75379788D01*
X149190109Y-75379786D01*
X149315048Y-75207820D01*
X149315047Y-75207820D01*
X149315051Y-75207816D01*
X149319514Y-75199054D01*
X149367488Y-75148259D01*
X149435308Y-75131463D01*
X149501444Y-75153999D01*
X149540486Y-75199056D01*
X149544951Y-75207820D01*
X149669890Y-75379786D01*
X149820213Y-75530109D01*
X149992179Y-75655048D01*
X149992181Y-75655049D01*
X149992184Y-75655051D01*
X150181588Y-75751557D01*
X150383757Y-75817246D01*
X150593713Y-75850500D01*
X150593714Y-75850500D01*
X150806286Y-75850500D01*
X150806287Y-75850500D01*
X151016243Y-75817246D01*
X151218412Y-75751557D01*
X151407816Y-75655051D01*
X151494138Y-75592335D01*
X151579786Y-75530109D01*
X151579788Y-75530106D01*
X151579792Y-75530104D01*
X151730104Y-75379792D01*
X151730106Y-75379788D01*
X151730109Y-75379786D01*
X151855048Y-75207820D01*
X151855047Y-75207820D01*
X151855051Y-75207816D01*
X151859514Y-75199054D01*
X151907488Y-75148259D01*
X151975308Y-75131463D01*
X152041444Y-75153999D01*
X152080486Y-75199056D01*
X152084951Y-75207820D01*
X152209890Y-75379786D01*
X152360213Y-75530109D01*
X152532179Y-75655048D01*
X152532181Y-75655049D01*
X152532184Y-75655051D01*
X152721588Y-75751557D01*
X152923757Y-75817246D01*
X153133713Y-75850500D01*
X153133714Y-75850500D01*
X153346286Y-75850500D01*
X153346287Y-75850500D01*
X153556243Y-75817246D01*
X153758412Y-75751557D01*
X153947816Y-75655051D01*
X154034138Y-75592335D01*
X154119786Y-75530109D01*
X154119788Y-75530106D01*
X154119792Y-75530104D01*
X154270104Y-75379792D01*
X154270106Y-75379788D01*
X154270109Y-75379786D01*
X154395048Y-75207820D01*
X154395047Y-75207820D01*
X154395051Y-75207816D01*
X154399514Y-75199054D01*
X154447488Y-75148259D01*
X154515308Y-75131463D01*
X154581444Y-75153999D01*
X154620486Y-75199056D01*
X154624951Y-75207820D01*
X154749890Y-75379786D01*
X154900213Y-75530109D01*
X155072179Y-75655048D01*
X155072181Y-75655049D01*
X155072184Y-75655051D01*
X155261588Y-75751557D01*
X155463757Y-75817246D01*
X155673713Y-75850500D01*
X155673714Y-75850500D01*
X155886286Y-75850500D01*
X155886287Y-75850500D01*
X156096243Y-75817246D01*
X156298412Y-75751557D01*
X156487816Y-75655051D01*
X156574138Y-75592335D01*
X156659786Y-75530109D01*
X156659788Y-75530106D01*
X156659792Y-75530104D01*
X156810104Y-75379792D01*
X156810106Y-75379788D01*
X156810109Y-75379786D01*
X156935048Y-75207820D01*
X156935047Y-75207820D01*
X156935051Y-75207816D01*
X156939514Y-75199054D01*
X156987488Y-75148259D01*
X157055308Y-75131463D01*
X157121444Y-75153999D01*
X157160486Y-75199056D01*
X157164951Y-75207820D01*
X157289890Y-75379786D01*
X157440213Y-75530109D01*
X157612179Y-75655048D01*
X157612181Y-75655049D01*
X157612184Y-75655051D01*
X157801588Y-75751557D01*
X158003757Y-75817246D01*
X158213713Y-75850500D01*
X158213714Y-75850500D01*
X158426286Y-75850500D01*
X158426287Y-75850500D01*
X158636243Y-75817246D01*
X158838412Y-75751557D01*
X159027816Y-75655051D01*
X159114138Y-75592335D01*
X159199786Y-75530109D01*
X159199788Y-75530106D01*
X159199792Y-75530104D01*
X159350104Y-75379792D01*
X159350106Y-75379788D01*
X159350109Y-75379786D01*
X159475048Y-75207820D01*
X159475047Y-75207820D01*
X159475051Y-75207816D01*
X159479514Y-75199054D01*
X159527488Y-75148259D01*
X159595308Y-75131463D01*
X159661444Y-75153999D01*
X159700486Y-75199056D01*
X159704951Y-75207820D01*
X159829890Y-75379786D01*
X159980213Y-75530109D01*
X160152179Y-75655048D01*
X160152181Y-75655049D01*
X160152184Y-75655051D01*
X160341588Y-75751557D01*
X160543757Y-75817246D01*
X160753713Y-75850500D01*
X160753714Y-75850500D01*
X160966286Y-75850500D01*
X160966287Y-75850500D01*
X161176243Y-75817246D01*
X161378412Y-75751557D01*
X161567816Y-75655051D01*
X161654138Y-75592335D01*
X161739786Y-75530109D01*
X161739788Y-75530106D01*
X161739792Y-75530104D01*
X161890104Y-75379792D01*
X161890106Y-75379788D01*
X161890109Y-75379786D01*
X162015048Y-75207820D01*
X162015047Y-75207820D01*
X162015051Y-75207816D01*
X162019514Y-75199054D01*
X162067488Y-75148259D01*
X162135308Y-75131463D01*
X162201444Y-75153999D01*
X162240486Y-75199056D01*
X162244951Y-75207820D01*
X162369890Y-75379786D01*
X162520213Y-75530109D01*
X162692179Y-75655048D01*
X162692181Y-75655049D01*
X162692184Y-75655051D01*
X162881588Y-75751557D01*
X163083757Y-75817246D01*
X163293713Y-75850500D01*
X163293714Y-75850500D01*
X163506286Y-75850500D01*
X163506287Y-75850500D01*
X163716243Y-75817246D01*
X163918412Y-75751557D01*
X164107816Y-75655051D01*
X164194138Y-75592335D01*
X164279786Y-75530109D01*
X164279788Y-75530106D01*
X164279792Y-75530104D01*
X164430104Y-75379792D01*
X164430106Y-75379788D01*
X164430109Y-75379786D01*
X164555048Y-75207820D01*
X164555047Y-75207820D01*
X164555051Y-75207816D01*
X164559514Y-75199054D01*
X164607488Y-75148259D01*
X164675308Y-75131463D01*
X164741444Y-75153999D01*
X164780486Y-75199056D01*
X164784951Y-75207820D01*
X164909890Y-75379786D01*
X165060213Y-75530109D01*
X165232179Y-75655048D01*
X165232181Y-75655049D01*
X165232184Y-75655051D01*
X165421588Y-75751557D01*
X165623757Y-75817246D01*
X165833713Y-75850500D01*
X165833714Y-75850500D01*
X166046286Y-75850500D01*
X166046287Y-75850500D01*
X166256243Y-75817246D01*
X166458412Y-75751557D01*
X166647816Y-75655051D01*
X166734138Y-75592335D01*
X166819786Y-75530109D01*
X166819788Y-75530106D01*
X166819792Y-75530104D01*
X166970104Y-75379792D01*
X166970106Y-75379788D01*
X166970109Y-75379786D01*
X167095048Y-75207820D01*
X167095047Y-75207820D01*
X167095051Y-75207816D01*
X167099514Y-75199054D01*
X167147488Y-75148259D01*
X167215308Y-75131463D01*
X167281444Y-75153999D01*
X167320486Y-75199056D01*
X167324951Y-75207820D01*
X167449890Y-75379786D01*
X167600213Y-75530109D01*
X167772179Y-75655048D01*
X167772181Y-75655049D01*
X167772184Y-75655051D01*
X167961588Y-75751557D01*
X168163757Y-75817246D01*
X168373713Y-75850500D01*
X168373714Y-75850500D01*
X168586286Y-75850500D01*
X168586287Y-75850500D01*
X168796243Y-75817246D01*
X168998412Y-75751557D01*
X169187816Y-75655051D01*
X169274138Y-75592335D01*
X169359786Y-75530109D01*
X169359788Y-75530106D01*
X169359792Y-75530104D01*
X169510104Y-75379792D01*
X169510106Y-75379788D01*
X169510109Y-75379786D01*
X169635048Y-75207820D01*
X169635047Y-75207820D01*
X169635051Y-75207816D01*
X169639514Y-75199054D01*
X169687488Y-75148259D01*
X169755308Y-75131463D01*
X169821444Y-75153999D01*
X169860486Y-75199056D01*
X169864951Y-75207820D01*
X169989890Y-75379786D01*
X170140213Y-75530109D01*
X170312179Y-75655048D01*
X170312181Y-75655049D01*
X170312184Y-75655051D01*
X170501588Y-75751557D01*
X170703757Y-75817246D01*
X170913713Y-75850500D01*
X170913714Y-75850500D01*
X171126286Y-75850500D01*
X171126287Y-75850500D01*
X171336243Y-75817246D01*
X171538412Y-75751557D01*
X171727816Y-75655051D01*
X171814138Y-75592335D01*
X171899786Y-75530109D01*
X171899788Y-75530106D01*
X171899792Y-75530104D01*
X172050104Y-75379792D01*
X172050106Y-75379788D01*
X172050109Y-75379786D01*
X172175048Y-75207820D01*
X172175047Y-75207820D01*
X172175051Y-75207816D01*
X172179514Y-75199054D01*
X172227488Y-75148259D01*
X172295308Y-75131463D01*
X172361444Y-75153999D01*
X172400486Y-75199056D01*
X172404951Y-75207820D01*
X172529890Y-75379786D01*
X172680213Y-75530109D01*
X172852179Y-75655048D01*
X172852181Y-75655049D01*
X172852184Y-75655051D01*
X173041588Y-75751557D01*
X173243757Y-75817246D01*
X173453713Y-75850500D01*
X173453714Y-75850500D01*
X173666286Y-75850500D01*
X173666287Y-75850500D01*
X173876243Y-75817246D01*
X174078412Y-75751557D01*
X174267816Y-75655051D01*
X174354138Y-75592335D01*
X174439786Y-75530109D01*
X174439788Y-75530106D01*
X174439792Y-75530104D01*
X174590104Y-75379792D01*
X174590106Y-75379788D01*
X174590109Y-75379786D01*
X174715048Y-75207820D01*
X174715047Y-75207820D01*
X174715051Y-75207816D01*
X174719514Y-75199054D01*
X174767488Y-75148259D01*
X174835308Y-75131463D01*
X174901444Y-75153999D01*
X174940486Y-75199056D01*
X174944951Y-75207820D01*
X175069890Y-75379786D01*
X175220213Y-75530109D01*
X175392179Y-75655048D01*
X175392181Y-75655049D01*
X175392184Y-75655051D01*
X175581588Y-75751557D01*
X175783757Y-75817246D01*
X175993713Y-75850500D01*
X175993714Y-75850500D01*
X176206286Y-75850500D01*
X176206287Y-75850500D01*
X176416243Y-75817246D01*
X176618412Y-75751557D01*
X176807816Y-75655051D01*
X176894138Y-75592335D01*
X176979786Y-75530109D01*
X176979788Y-75530106D01*
X176979792Y-75530104D01*
X177130104Y-75379792D01*
X177130106Y-75379788D01*
X177130109Y-75379786D01*
X177215890Y-75261717D01*
X177255051Y-75207816D01*
X177259793Y-75198508D01*
X177307763Y-75147711D01*
X177375583Y-75130911D01*
X177441719Y-75153445D01*
X177480763Y-75198500D01*
X177485373Y-75207547D01*
X177524728Y-75261716D01*
X178157037Y-74629408D01*
X178174075Y-74692993D01*
X178239901Y-74807007D01*
X178332993Y-74900099D01*
X178447007Y-74965925D01*
X178510590Y-74982962D01*
X177878282Y-75615269D01*
X177878282Y-75615270D01*
X177932449Y-75654624D01*
X178121782Y-75751095D01*
X178323870Y-75816757D01*
X178533754Y-75850000D01*
X178746246Y-75850000D01*
X178956127Y-75816757D01*
X178956130Y-75816757D01*
X179158217Y-75751095D01*
X179347554Y-75654622D01*
X179401716Y-75615270D01*
X179401717Y-75615270D01*
X178769408Y-74982962D01*
X178832993Y-74965925D01*
X178947007Y-74900099D01*
X179040099Y-74807007D01*
X179105925Y-74692993D01*
X179122962Y-74629408D01*
X179755270Y-75261717D01*
X179755270Y-75261716D01*
X179794622Y-75207555D01*
X179799232Y-75198507D01*
X179847205Y-75147709D01*
X179915025Y-75130912D01*
X179981161Y-75153447D01*
X180020204Y-75198504D01*
X180024949Y-75207817D01*
X180149890Y-75379786D01*
X180300213Y-75530109D01*
X180472179Y-75655048D01*
X180472181Y-75655049D01*
X180472184Y-75655051D01*
X180661588Y-75751557D01*
X180863757Y-75817246D01*
X181073713Y-75850500D01*
X181073714Y-75850500D01*
X181286286Y-75850500D01*
X181286287Y-75850500D01*
X181496243Y-75817246D01*
X181698412Y-75751557D01*
X181887816Y-75655051D01*
X181974138Y-75592335D01*
X182059786Y-75530109D01*
X182059788Y-75530106D01*
X182059792Y-75530104D01*
X182210104Y-75379792D01*
X182210106Y-75379788D01*
X182210109Y-75379786D01*
X182335048Y-75207820D01*
X182335047Y-75207820D01*
X182335051Y-75207816D01*
X182339514Y-75199054D01*
X182387488Y-75148259D01*
X182455308Y-75131463D01*
X182521444Y-75153999D01*
X182560486Y-75199056D01*
X182564951Y-75207820D01*
X182689890Y-75379786D01*
X182840213Y-75530109D01*
X183012179Y-75655048D01*
X183012181Y-75655049D01*
X183012184Y-75655051D01*
X183201588Y-75751557D01*
X183403757Y-75817246D01*
X183613713Y-75850500D01*
X183613714Y-75850500D01*
X183826286Y-75850500D01*
X183826287Y-75850500D01*
X184036243Y-75817246D01*
X184238412Y-75751557D01*
X184427816Y-75655051D01*
X184514138Y-75592335D01*
X184599786Y-75530109D01*
X184599788Y-75530106D01*
X184599792Y-75530104D01*
X184750104Y-75379792D01*
X184750106Y-75379788D01*
X184750109Y-75379786D01*
X184875048Y-75207820D01*
X184875047Y-75207820D01*
X184875051Y-75207816D01*
X184890015Y-75178446D01*
X184937989Y-75127651D01*
X185005810Y-75110856D01*
X185071945Y-75133393D01*
X185115397Y-75188108D01*
X185124500Y-75234742D01*
X185124500Y-87585994D01*
X185104815Y-87653033D01*
X185088181Y-87673675D01*
X184673675Y-88088181D01*
X184612352Y-88121666D01*
X184585994Y-88124500D01*
X182413768Y-88124500D01*
X182244633Y-88158143D01*
X182244621Y-88158146D01*
X182085301Y-88224138D01*
X182085288Y-88224145D01*
X181945100Y-88317817D01*
X181941908Y-88319949D01*
X181941897Y-88319958D01*
X181337681Y-88924174D01*
X181276358Y-88957659D01*
X181206666Y-88952675D01*
X181162319Y-88924174D01*
X179558102Y-87319957D01*
X179558098Y-87319954D01*
X179414711Y-87224145D01*
X179414698Y-87224138D01*
X179255378Y-87158146D01*
X179255366Y-87158143D01*
X179086232Y-87124500D01*
X179086229Y-87124500D01*
X130914006Y-87124500D01*
X130846967Y-87104815D01*
X130826329Y-87088185D01*
X130668099Y-86929955D01*
X130668098Y-86929954D01*
X130668097Y-86929953D01*
X130524711Y-86834145D01*
X130524698Y-86834138D01*
X130365378Y-86768146D01*
X130365366Y-86768143D01*
X130196232Y-86734500D01*
X130196229Y-86734500D01*
X121585758Y-86734500D01*
X121518719Y-86714815D01*
X121498077Y-86698181D01*
X121379786Y-86579890D01*
X121207820Y-86454951D01*
X121207115Y-86454591D01*
X121199054Y-86450485D01*
X121148259Y-86402512D01*
X121131463Y-86334692D01*
X121153999Y-86268556D01*
X121199054Y-86229515D01*
X121207816Y-86225051D01*
X121229789Y-86209086D01*
X121379786Y-86100109D01*
X121379788Y-86100106D01*
X121379792Y-86100104D01*
X121530104Y-85949792D01*
X121530106Y-85949788D01*
X121530109Y-85949786D01*
X121655048Y-85777820D01*
X121655047Y-85777820D01*
X121655051Y-85777816D01*
X121751557Y-85588412D01*
X121817246Y-85386243D01*
X121850500Y-85176287D01*
X121850500Y-84963713D01*
X121817246Y-84753757D01*
X121751557Y-84551588D01*
X121655051Y-84362184D01*
X121655049Y-84362181D01*
X121655048Y-84362179D01*
X121530109Y-84190213D01*
X121379786Y-84039890D01*
X121207820Y-83914951D01*
X121207115Y-83914591D01*
X121199054Y-83910485D01*
X121148259Y-83862512D01*
X121131463Y-83794692D01*
X121153999Y-83728556D01*
X121199054Y-83689515D01*
X121207816Y-83685051D01*
X121229789Y-83669086D01*
X121379786Y-83560109D01*
X121379788Y-83560106D01*
X121379792Y-83560104D01*
X121530104Y-83409792D01*
X121530106Y-83409788D01*
X121530109Y-83409786D01*
X121655048Y-83237820D01*
X121655047Y-83237820D01*
X121655051Y-83237816D01*
X121751557Y-83048412D01*
X121817246Y-82846243D01*
X121850500Y-82636287D01*
X121850500Y-82423713D01*
X121817246Y-82213757D01*
X121751557Y-82011588D01*
X121655051Y-81822184D01*
X121655049Y-81822181D01*
X121655048Y-81822179D01*
X121530109Y-81650213D01*
X121379786Y-81499890D01*
X121207820Y-81374951D01*
X121207115Y-81374591D01*
X121199054Y-81370485D01*
X121148259Y-81322512D01*
X121131463Y-81254692D01*
X121153999Y-81188556D01*
X121199054Y-81149515D01*
X121207816Y-81145051D01*
X121229789Y-81129086D01*
X121379786Y-81020109D01*
X121379788Y-81020106D01*
X121379792Y-81020104D01*
X121530104Y-80869792D01*
X121530106Y-80869788D01*
X121530109Y-80869786D01*
X121655048Y-80697820D01*
X121655047Y-80697820D01*
X121655051Y-80697816D01*
X121751557Y-80508412D01*
X121817246Y-80306243D01*
X121850500Y-80096287D01*
X121850500Y-79883713D01*
X121817246Y-79673757D01*
X121751557Y-79471588D01*
X121655051Y-79282184D01*
X121655049Y-79282181D01*
X121655048Y-79282179D01*
X121530109Y-79110213D01*
X121416181Y-78996285D01*
X121382696Y-78934962D01*
X121387680Y-78865270D01*
X121429552Y-78809337D01*
X121460529Y-78792422D01*
X121592086Y-78743354D01*
X121592093Y-78743350D01*
X121707187Y-78657190D01*
X121707190Y-78657187D01*
X121793350Y-78542093D01*
X121793354Y-78542086D01*
X121843596Y-78407379D01*
X121843598Y-78407372D01*
X121849999Y-78347844D01*
X121850000Y-78347827D01*
X121850000Y-77700000D01*
X120933012Y-77700000D01*
X120965925Y-77642993D01*
X121000000Y-77515826D01*
X121000000Y-77384174D01*
X120965925Y-77257007D01*
X120933012Y-77200000D01*
X121850000Y-77200000D01*
X121850000Y-76552172D01*
X121849999Y-76552155D01*
X121843598Y-76492627D01*
X121843596Y-76492620D01*
X121793354Y-76357913D01*
X121793350Y-76357906D01*
X121707190Y-76242812D01*
X121707187Y-76242809D01*
X121592093Y-76156649D01*
X121592086Y-76156645D01*
X121457379Y-76106403D01*
X121457372Y-76106401D01*
X121397844Y-76100000D01*
X120750000Y-76100000D01*
X120750000Y-77016988D01*
X120692993Y-76984075D01*
X120565826Y-76950000D01*
X120434174Y-76950000D01*
X120307007Y-76984075D01*
X120250000Y-77016988D01*
X120250000Y-76100000D01*
X119602155Y-76100000D01*
X119542627Y-76106401D01*
X119542620Y-76106403D01*
X119407913Y-76156645D01*
X119407906Y-76156649D01*
X119292812Y-76242809D01*
X119292809Y-76242812D01*
X119206649Y-76357906D01*
X119206645Y-76357913D01*
X119156403Y-76492620D01*
X119156401Y-76492627D01*
X119150000Y-76552155D01*
X119150000Y-77200000D01*
X120066988Y-77200000D01*
X120034075Y-77257007D01*
X120000000Y-77384174D01*
X120000000Y-77515826D01*
X120034075Y-77642993D01*
X120066988Y-77700000D01*
X119150000Y-77700000D01*
X119150000Y-78347844D01*
X119156401Y-78407372D01*
X119156403Y-78407379D01*
X119206645Y-78542086D01*
X119206649Y-78542093D01*
X119292809Y-78657187D01*
X119292812Y-78657190D01*
X119407906Y-78743350D01*
X119407913Y-78743354D01*
X119539470Y-78792422D01*
X119595404Y-78834293D01*
X119619821Y-78899758D01*
X119604969Y-78968031D01*
X119583819Y-78996285D01*
X119469889Y-79110215D01*
X119344951Y-79282179D01*
X119248444Y-79471585D01*
X119182753Y-79673760D01*
X119149500Y-79883713D01*
X114000500Y-79883713D01*
X114000500Y-66397648D01*
X128619500Y-66397648D01*
X128619500Y-66602351D01*
X128651522Y-66804534D01*
X128714781Y-66999223D01*
X128807715Y-67181613D01*
X128928028Y-67347213D01*
X129072786Y-67491971D01*
X129227749Y-67604556D01*
X129238390Y-67612287D01*
X129354607Y-67671503D01*
X129420776Y-67705218D01*
X129420778Y-67705218D01*
X129420781Y-67705220D01*
X129525137Y-67739127D01*
X129615465Y-67768477D01*
X129716557Y-67784488D01*
X129817648Y-67800500D01*
X129817649Y-67800500D01*
X130022351Y-67800500D01*
X130022352Y-67800500D01*
X130224534Y-67768477D01*
X130419219Y-67705220D01*
X130601610Y-67612287D01*
X130694590Y-67544732D01*
X130767213Y-67491971D01*
X130767215Y-67491968D01*
X130767219Y-67491966D01*
X130911966Y-67347219D01*
X130911968Y-67347215D01*
X130911971Y-67347213D01*
X130964732Y-67274590D01*
X131032287Y-67181610D01*
X131125220Y-66999219D01*
X131188477Y-66804534D01*
X131220500Y-66602352D01*
X131220500Y-66397648D01*
X138779500Y-66397648D01*
X138779500Y-66602351D01*
X138811522Y-66804534D01*
X138874781Y-66999223D01*
X138967715Y-67181613D01*
X139088028Y-67347213D01*
X139232786Y-67491971D01*
X139387749Y-67604556D01*
X139398390Y-67612287D01*
X139514607Y-67671503D01*
X139580776Y-67705218D01*
X139580778Y-67705218D01*
X139580781Y-67705220D01*
X139685137Y-67739127D01*
X139775465Y-67768477D01*
X139876557Y-67784488D01*
X139977648Y-67800500D01*
X139977649Y-67800500D01*
X140182351Y-67800500D01*
X140182352Y-67800500D01*
X140384534Y-67768477D01*
X140579219Y-67705220D01*
X140761610Y-67612287D01*
X140854590Y-67544732D01*
X140927213Y-67491971D01*
X140927215Y-67491968D01*
X140927219Y-67491966D01*
X141071966Y-67347219D01*
X141071968Y-67347215D01*
X141071971Y-67347213D01*
X141124732Y-67274590D01*
X141192287Y-67181610D01*
X141285220Y-66999219D01*
X141348477Y-66804534D01*
X141380500Y-66602352D01*
X141380500Y-66397648D01*
X142119500Y-66397648D01*
X142119500Y-66602351D01*
X142151522Y-66804534D01*
X142214781Y-66999223D01*
X142307715Y-67181613D01*
X142428028Y-67347213D01*
X142572786Y-67491971D01*
X142727749Y-67604556D01*
X142738390Y-67612287D01*
X142854607Y-67671503D01*
X142920776Y-67705218D01*
X142920778Y-67705218D01*
X142920781Y-67705220D01*
X143025137Y-67739127D01*
X143115465Y-67768477D01*
X143216557Y-67784488D01*
X143317648Y-67800500D01*
X143317649Y-67800500D01*
X143522351Y-67800500D01*
X143522352Y-67800500D01*
X143724534Y-67768477D01*
X143919219Y-67705220D01*
X144101610Y-67612287D01*
X144194590Y-67544732D01*
X144267213Y-67491971D01*
X144267215Y-67491968D01*
X144267219Y-67491966D01*
X144411966Y-67347219D01*
X144411968Y-67347215D01*
X144411971Y-67347213D01*
X144464732Y-67274590D01*
X144532287Y-67181610D01*
X144625220Y-66999219D01*
X144688477Y-66804534D01*
X144720500Y-66602352D01*
X144720500Y-66397648D01*
X152279500Y-66397648D01*
X152279500Y-66602351D01*
X152311522Y-66804534D01*
X152374781Y-66999223D01*
X152467715Y-67181613D01*
X152588028Y-67347213D01*
X152732786Y-67491971D01*
X152887749Y-67604556D01*
X152898390Y-67612287D01*
X153014607Y-67671503D01*
X153080776Y-67705218D01*
X153080778Y-67705218D01*
X153080781Y-67705220D01*
X153185137Y-67739127D01*
X153275465Y-67768477D01*
X153376557Y-67784488D01*
X153477648Y-67800500D01*
X153477649Y-67800500D01*
X153682351Y-67800500D01*
X153682352Y-67800500D01*
X153884534Y-67768477D01*
X154079219Y-67705220D01*
X154261610Y-67612287D01*
X154354590Y-67544732D01*
X154427213Y-67491971D01*
X154427215Y-67491968D01*
X154427219Y-67491966D01*
X154571966Y-67347219D01*
X154571968Y-67347215D01*
X154571971Y-67347213D01*
X154624732Y-67274590D01*
X154692287Y-67181610D01*
X154785220Y-66999219D01*
X154848477Y-66804534D01*
X154880500Y-66602352D01*
X154880500Y-66397648D01*
X155619500Y-66397648D01*
X155619500Y-66602351D01*
X155651522Y-66804534D01*
X155714781Y-66999223D01*
X155807715Y-67181613D01*
X155928028Y-67347213D01*
X156072786Y-67491971D01*
X156227749Y-67604556D01*
X156238390Y-67612287D01*
X156354607Y-67671503D01*
X156420776Y-67705218D01*
X156420778Y-67705218D01*
X156420781Y-67705220D01*
X156525137Y-67739127D01*
X156615465Y-67768477D01*
X156716557Y-67784488D01*
X156817648Y-67800500D01*
X156817649Y-67800500D01*
X157022351Y-67800500D01*
X157022352Y-67800500D01*
X157224534Y-67768477D01*
X157419219Y-67705220D01*
X157601610Y-67612287D01*
X157694590Y-67544732D01*
X157767213Y-67491971D01*
X157767215Y-67491968D01*
X157767219Y-67491966D01*
X157911966Y-67347219D01*
X157911968Y-67347215D01*
X157911971Y-67347213D01*
X157964732Y-67274590D01*
X158032287Y-67181610D01*
X158125220Y-66999219D01*
X158188477Y-66804534D01*
X158220500Y-66602352D01*
X158220500Y-66397648D01*
X165779500Y-66397648D01*
X165779500Y-66602351D01*
X165811522Y-66804534D01*
X165874781Y-66999223D01*
X165967715Y-67181613D01*
X166088028Y-67347213D01*
X166232786Y-67491971D01*
X166387749Y-67604556D01*
X166398390Y-67612287D01*
X166514607Y-67671503D01*
X166580776Y-67705218D01*
X166580778Y-67705218D01*
X166580781Y-67705220D01*
X166685137Y-67739127D01*
X166775465Y-67768477D01*
X166876557Y-67784488D01*
X166977648Y-67800500D01*
X166977649Y-67800500D01*
X167182351Y-67800500D01*
X167182352Y-67800500D01*
X167384534Y-67768477D01*
X167579219Y-67705220D01*
X167761610Y-67612287D01*
X167854590Y-67544732D01*
X167927213Y-67491971D01*
X167927215Y-67491968D01*
X167927219Y-67491966D01*
X168071966Y-67347219D01*
X168071968Y-67347215D01*
X168071971Y-67347213D01*
X168124732Y-67274590D01*
X168192287Y-67181610D01*
X168285220Y-66999219D01*
X168348477Y-66804534D01*
X168380500Y-66602352D01*
X168380500Y-66397648D01*
X168348477Y-66195466D01*
X168285220Y-66000781D01*
X168285218Y-66000778D01*
X168285218Y-66000776D01*
X168251503Y-65934607D01*
X168192287Y-65818390D01*
X168184556Y-65807749D01*
X168071971Y-65652786D01*
X167927213Y-65508028D01*
X167761613Y-65387715D01*
X167761612Y-65387714D01*
X167761610Y-65387713D01*
X167704653Y-65358691D01*
X167579223Y-65294781D01*
X167384534Y-65231522D01*
X167209995Y-65203878D01*
X167182352Y-65199500D01*
X166977648Y-65199500D01*
X166953329Y-65203351D01*
X166775465Y-65231522D01*
X166580776Y-65294781D01*
X166398386Y-65387715D01*
X166232786Y-65508028D01*
X166088028Y-65652786D01*
X165967715Y-65818386D01*
X165874781Y-66000776D01*
X165811522Y-66195465D01*
X165779500Y-66397648D01*
X158220500Y-66397648D01*
X158188477Y-66195466D01*
X158125220Y-66000781D01*
X158125218Y-66000778D01*
X158125218Y-66000776D01*
X158091503Y-65934607D01*
X158032287Y-65818390D01*
X158024556Y-65807749D01*
X157911971Y-65652786D01*
X157767213Y-65508028D01*
X157601613Y-65387715D01*
X157601612Y-65387714D01*
X157601610Y-65387713D01*
X157544653Y-65358691D01*
X157419223Y-65294781D01*
X157224534Y-65231522D01*
X157049995Y-65203878D01*
X157022352Y-65199500D01*
X156817648Y-65199500D01*
X156793329Y-65203351D01*
X156615465Y-65231522D01*
X156420776Y-65294781D01*
X156238386Y-65387715D01*
X156072786Y-65508028D01*
X155928028Y-65652786D01*
X155807715Y-65818386D01*
X155714781Y-66000776D01*
X155651522Y-66195465D01*
X155619500Y-66397648D01*
X154880500Y-66397648D01*
X154848477Y-66195466D01*
X154785220Y-66000781D01*
X154785218Y-66000778D01*
X154785218Y-66000776D01*
X154751503Y-65934607D01*
X154692287Y-65818390D01*
X154684556Y-65807749D01*
X154571971Y-65652786D01*
X154427213Y-65508028D01*
X154261613Y-65387715D01*
X154261612Y-65387714D01*
X154261610Y-65387713D01*
X154204653Y-65358691D01*
X154079223Y-65294781D01*
X153884534Y-65231522D01*
X153709995Y-65203878D01*
X153682352Y-65199500D01*
X153477648Y-65199500D01*
X153453329Y-65203351D01*
X153275465Y-65231522D01*
X153080776Y-65294781D01*
X152898386Y-65387715D01*
X152732786Y-65508028D01*
X152588028Y-65652786D01*
X152467715Y-65818386D01*
X152374781Y-66000776D01*
X152311522Y-66195465D01*
X152279500Y-66397648D01*
X144720500Y-66397648D01*
X144688477Y-66195466D01*
X144625220Y-66000781D01*
X144625218Y-66000778D01*
X144625218Y-66000776D01*
X144591503Y-65934607D01*
X144532287Y-65818390D01*
X144524556Y-65807749D01*
X144411971Y-65652786D01*
X144267213Y-65508028D01*
X144101613Y-65387715D01*
X144101612Y-65387714D01*
X144101610Y-65387713D01*
X144044653Y-65358691D01*
X143919223Y-65294781D01*
X143724534Y-65231522D01*
X143549995Y-65203878D01*
X143522352Y-65199500D01*
X143317648Y-65199500D01*
X143293329Y-65203351D01*
X143115465Y-65231522D01*
X142920776Y-65294781D01*
X142738386Y-65387715D01*
X142572786Y-65508028D01*
X142428028Y-65652786D01*
X142307715Y-65818386D01*
X142214781Y-66000776D01*
X142151522Y-66195465D01*
X142119500Y-66397648D01*
X141380500Y-66397648D01*
X141348477Y-66195466D01*
X141285220Y-66000781D01*
X141285218Y-66000778D01*
X141285218Y-66000776D01*
X141251503Y-65934607D01*
X141192287Y-65818390D01*
X141184556Y-65807749D01*
X141071971Y-65652786D01*
X140927213Y-65508028D01*
X140761613Y-65387715D01*
X140761612Y-65387714D01*
X140761610Y-65387713D01*
X140704653Y-65358691D01*
X140579223Y-65294781D01*
X140384534Y-65231522D01*
X140209995Y-65203878D01*
X140182352Y-65199500D01*
X139977648Y-65199500D01*
X139953329Y-65203351D01*
X139775465Y-65231522D01*
X139580776Y-65294781D01*
X139398386Y-65387715D01*
X139232786Y-65508028D01*
X139088028Y-65652786D01*
X138967715Y-65818386D01*
X138874781Y-66000776D01*
X138811522Y-66195465D01*
X138779500Y-66397648D01*
X131220500Y-66397648D01*
X131188477Y-66195466D01*
X131125220Y-66000781D01*
X131125218Y-66000778D01*
X131125218Y-66000776D01*
X131091503Y-65934607D01*
X131032287Y-65818390D01*
X131024556Y-65807749D01*
X130911971Y-65652786D01*
X130767213Y-65508028D01*
X130601613Y-65387715D01*
X130601612Y-65387714D01*
X130601610Y-65387713D01*
X130544653Y-65358691D01*
X130419223Y-65294781D01*
X130224534Y-65231522D01*
X130049995Y-65203878D01*
X130022352Y-65199500D01*
X129817648Y-65199500D01*
X129793329Y-65203351D01*
X129615465Y-65231522D01*
X129420776Y-65294781D01*
X129238386Y-65387715D01*
X129072786Y-65508028D01*
X128928028Y-65652786D01*
X128807715Y-65818386D01*
X128714781Y-66000776D01*
X128651522Y-66195465D01*
X128619500Y-66397648D01*
X114000500Y-66397648D01*
X114000500Y-57052135D01*
X119059500Y-57052135D01*
X119059500Y-58947870D01*
X119059501Y-58947876D01*
X119065908Y-59007483D01*
X119116202Y-59142328D01*
X119116206Y-59142335D01*
X119202452Y-59257544D01*
X119202455Y-59257547D01*
X119317664Y-59343793D01*
X119317671Y-59343797D01*
X119452517Y-59394091D01*
X119452516Y-59394091D01*
X119459444Y-59394835D01*
X119512127Y-59400500D01*
X121407872Y-59400499D01*
X121467483Y-59394091D01*
X121602331Y-59343796D01*
X121717546Y-59257546D01*
X121803796Y-59142331D01*
X121854091Y-59007483D01*
X121860500Y-58947873D01*
X121860499Y-58837304D01*
X121880183Y-58770268D01*
X121896818Y-58749626D01*
X122557861Y-58088584D01*
X122580667Y-58173694D01*
X122639910Y-58276306D01*
X122723694Y-58360090D01*
X122826306Y-58419333D01*
X122911414Y-58442137D01*
X122202485Y-59151065D01*
X122202485Y-59151066D01*
X122266243Y-59197388D01*
X122462589Y-59297432D01*
X122672164Y-59365526D01*
X122889819Y-59400000D01*
X123110181Y-59400000D01*
X123327835Y-59365526D01*
X123537410Y-59297432D01*
X123733760Y-59197386D01*
X123797513Y-59151066D01*
X123797514Y-59151066D01*
X123088585Y-58442138D01*
X123173694Y-58419333D01*
X123276306Y-58360090D01*
X123360090Y-58276306D01*
X123419333Y-58173694D01*
X123442137Y-58088585D01*
X124151066Y-58797514D01*
X124151066Y-58797513D01*
X124197386Y-58733760D01*
X124297432Y-58537410D01*
X124365526Y-58327835D01*
X124400000Y-58110181D01*
X124400000Y-57889818D01*
X124365526Y-57672164D01*
X124297432Y-57462589D01*
X124197388Y-57266243D01*
X124151066Y-57202485D01*
X124151065Y-57202485D01*
X123442137Y-57911413D01*
X123419333Y-57826306D01*
X123360090Y-57723694D01*
X123276306Y-57639910D01*
X123173694Y-57580667D01*
X123088583Y-57557861D01*
X123594311Y-57052135D01*
X125559500Y-57052135D01*
X125559500Y-58947870D01*
X125559501Y-58947876D01*
X125565908Y-59007483D01*
X125616202Y-59142328D01*
X125616206Y-59142335D01*
X125702452Y-59257544D01*
X125702455Y-59257547D01*
X125817664Y-59343793D01*
X125817671Y-59343797D01*
X125952517Y-59394091D01*
X125952516Y-59394091D01*
X125959444Y-59394835D01*
X126012127Y-59400500D01*
X127907872Y-59400499D01*
X127967483Y-59394091D01*
X128102331Y-59343796D01*
X128217546Y-59257546D01*
X128303796Y-59142331D01*
X128354091Y-59007483D01*
X128360500Y-58947873D01*
X128360499Y-58837304D01*
X128380183Y-58770268D01*
X128396818Y-58749626D01*
X129057861Y-58088584D01*
X129080667Y-58173694D01*
X129139910Y-58276306D01*
X129223694Y-58360090D01*
X129326306Y-58419333D01*
X129411414Y-58442137D01*
X128702485Y-59151065D01*
X128702485Y-59151066D01*
X128766243Y-59197388D01*
X128962589Y-59297432D01*
X129172164Y-59365526D01*
X129389819Y-59400000D01*
X129610181Y-59400000D01*
X129827835Y-59365526D01*
X130037410Y-59297432D01*
X130233760Y-59197386D01*
X130297513Y-59151066D01*
X130297514Y-59151066D01*
X129588585Y-58442138D01*
X129673694Y-58419333D01*
X129776306Y-58360090D01*
X129860090Y-58276306D01*
X129919333Y-58173694D01*
X129942137Y-58088585D01*
X130651066Y-58797514D01*
X130651066Y-58797513D01*
X130697386Y-58733760D01*
X130797432Y-58537410D01*
X130865526Y-58327835D01*
X130900000Y-58110181D01*
X130900000Y-57889818D01*
X130865526Y-57672164D01*
X130797432Y-57462589D01*
X130697388Y-57266243D01*
X130651066Y-57202485D01*
X130651065Y-57202485D01*
X129942137Y-57911413D01*
X129919333Y-57826306D01*
X129860090Y-57723694D01*
X129776306Y-57639910D01*
X129673694Y-57580667D01*
X129588583Y-57557861D01*
X130094311Y-57052135D01*
X131829500Y-57052135D01*
X131829500Y-58947870D01*
X131829501Y-58947876D01*
X131835908Y-59007483D01*
X131886202Y-59142328D01*
X131886206Y-59142335D01*
X131972452Y-59257544D01*
X131972455Y-59257547D01*
X132087664Y-59343793D01*
X132087671Y-59343797D01*
X132222517Y-59394091D01*
X132222516Y-59394091D01*
X132229444Y-59394835D01*
X132282127Y-59400500D01*
X134177872Y-59400499D01*
X134237483Y-59394091D01*
X134372331Y-59343796D01*
X134487546Y-59257546D01*
X134573796Y-59142331D01*
X134624091Y-59007483D01*
X134630500Y-58947873D01*
X134630499Y-58837304D01*
X134650183Y-58770268D01*
X134666818Y-58749626D01*
X135327861Y-58088584D01*
X135350667Y-58173694D01*
X135409910Y-58276306D01*
X135493694Y-58360090D01*
X135596306Y-58419333D01*
X135681414Y-58442137D01*
X134972485Y-59151065D01*
X134972485Y-59151066D01*
X135036243Y-59197388D01*
X135232589Y-59297432D01*
X135442164Y-59365526D01*
X135659819Y-59400000D01*
X135880181Y-59400000D01*
X136097835Y-59365526D01*
X136307410Y-59297432D01*
X136503760Y-59197386D01*
X136567513Y-59151066D01*
X136567514Y-59151066D01*
X135858585Y-58442138D01*
X135943694Y-58419333D01*
X136046306Y-58360090D01*
X136130090Y-58276306D01*
X136189333Y-58173694D01*
X136212137Y-58088585D01*
X136921066Y-58797514D01*
X136921066Y-58797513D01*
X136967386Y-58733760D01*
X137067432Y-58537410D01*
X137135526Y-58327835D01*
X137170000Y-58110181D01*
X137170000Y-57889818D01*
X137135526Y-57672164D01*
X137067432Y-57462589D01*
X136967388Y-57266243D01*
X136921066Y-57202485D01*
X136921065Y-57202485D01*
X136212137Y-57911413D01*
X136189333Y-57826306D01*
X136130090Y-57723694D01*
X136046306Y-57639910D01*
X135943694Y-57580667D01*
X135858583Y-57557861D01*
X136567513Y-56848932D01*
X136503756Y-56802611D01*
X136307410Y-56702567D01*
X136097835Y-56634473D01*
X135880181Y-56600000D01*
X135659819Y-56600000D01*
X135442164Y-56634473D01*
X135232589Y-56702567D01*
X135036233Y-56802616D01*
X134972485Y-56848931D01*
X134972485Y-56848932D01*
X135681414Y-57557861D01*
X135596306Y-57580667D01*
X135493694Y-57639910D01*
X135409910Y-57723694D01*
X135350667Y-57826306D01*
X135327861Y-57911414D01*
X134666818Y-57250371D01*
X134633333Y-57189048D01*
X134630499Y-57162690D01*
X134630499Y-57052129D01*
X134630498Y-57052123D01*
X134630497Y-57052116D01*
X134624091Y-56992517D01*
X134609420Y-56953183D01*
X134604326Y-56939524D01*
X134573797Y-56857671D01*
X134573793Y-56857664D01*
X134487547Y-56742455D01*
X134487544Y-56742452D01*
X134372335Y-56656206D01*
X134372328Y-56656202D01*
X134237482Y-56605908D01*
X134237483Y-56605908D01*
X134177883Y-56599501D01*
X134177881Y-56599500D01*
X134177873Y-56599500D01*
X134177864Y-56599500D01*
X132282129Y-56599500D01*
X132282123Y-56599501D01*
X132222516Y-56605908D01*
X132087671Y-56656202D01*
X132087664Y-56656206D01*
X131972455Y-56742452D01*
X131972452Y-56742455D01*
X131886206Y-56857664D01*
X131886202Y-56857671D01*
X131835908Y-56992517D01*
X131829501Y-57052116D01*
X131829501Y-57052123D01*
X131829500Y-57052135D01*
X130094311Y-57052135D01*
X130185321Y-56961125D01*
X130297513Y-56848932D01*
X130233756Y-56802611D01*
X130037410Y-56702567D01*
X129827835Y-56634473D01*
X129610181Y-56600000D01*
X129389819Y-56600000D01*
X129172164Y-56634473D01*
X128962589Y-56702567D01*
X128766233Y-56802616D01*
X128702485Y-56848931D01*
X128702485Y-56848932D01*
X129411414Y-57557861D01*
X129326306Y-57580667D01*
X129223694Y-57639910D01*
X129139910Y-57723694D01*
X129080667Y-57826306D01*
X129057861Y-57911414D01*
X128396818Y-57250371D01*
X128363333Y-57189048D01*
X128360499Y-57162690D01*
X128360499Y-57052129D01*
X128360498Y-57052123D01*
X128360497Y-57052116D01*
X128354091Y-56992517D01*
X128339420Y-56953183D01*
X128334326Y-56939524D01*
X128303797Y-56857671D01*
X128303793Y-56857664D01*
X128217547Y-56742455D01*
X128217544Y-56742452D01*
X128102335Y-56656206D01*
X128102328Y-56656202D01*
X127967482Y-56605908D01*
X127967483Y-56605908D01*
X127907883Y-56599501D01*
X127907881Y-56599500D01*
X127907873Y-56599500D01*
X127907864Y-56599500D01*
X126012129Y-56599500D01*
X126012123Y-56599501D01*
X125952516Y-56605908D01*
X125817671Y-56656202D01*
X125817664Y-56656206D01*
X125702455Y-56742452D01*
X125702452Y-56742455D01*
X125616206Y-56857664D01*
X125616202Y-56857671D01*
X125565908Y-56992517D01*
X125559501Y-57052116D01*
X125559501Y-57052123D01*
X125559500Y-57052135D01*
X123594311Y-57052135D01*
X123685321Y-56961125D01*
X123797513Y-56848932D01*
X123733756Y-56802611D01*
X123537410Y-56702567D01*
X123327835Y-56634473D01*
X123110181Y-56600000D01*
X122889819Y-56600000D01*
X122672164Y-56634473D01*
X122462589Y-56702567D01*
X122266233Y-56802616D01*
X122202485Y-56848931D01*
X122202485Y-56848932D01*
X122911414Y-57557861D01*
X122826306Y-57580667D01*
X122723694Y-57639910D01*
X122639910Y-57723694D01*
X122580667Y-57826306D01*
X122557861Y-57911414D01*
X121896818Y-57250371D01*
X121863333Y-57189048D01*
X121860499Y-57162690D01*
X121860499Y-57052129D01*
X121860498Y-57052123D01*
X121860497Y-57052116D01*
X121854091Y-56992517D01*
X121839420Y-56953183D01*
X121834326Y-56939524D01*
X121803797Y-56857671D01*
X121803793Y-56857664D01*
X121717547Y-56742455D01*
X121717544Y-56742452D01*
X121602335Y-56656206D01*
X121602328Y-56656202D01*
X121467482Y-56605908D01*
X121467483Y-56605908D01*
X121407883Y-56599501D01*
X121407881Y-56599500D01*
X121407873Y-56599500D01*
X121407864Y-56599500D01*
X119512129Y-56599500D01*
X119512123Y-56599501D01*
X119452516Y-56605908D01*
X119317671Y-56656202D01*
X119317664Y-56656206D01*
X119202455Y-56742452D01*
X119202452Y-56742455D01*
X119116206Y-56857664D01*
X119116202Y-56857671D01*
X119065908Y-56992517D01*
X119059501Y-57052116D01*
X119059501Y-57052123D01*
X119059500Y-57052135D01*
X114000500Y-57052135D01*
X114000500Y-51124500D01*
X114020185Y-51057461D01*
X114072989Y-51011706D01*
X114124500Y-51000500D01*
X187875500Y-51000500D01*
X187942539Y-51020185D01*
G37*
%TD.AperFunction*%
%TD*%
M02*
