M48
; DRILL file {KiCad 9.0.2} date 2026-05-05T14:55:30+0200
; FORMAT={-:-/ absolute / metric / decimal}
; #@! TF.CreationDate,2026-05-05T14:55:30+02:00
; #@! TF.GenerationSoftware,Kicad,Pcbnew,9.0.2
; #@! TF.FileFunction,Plated,1,2,PTH
FMAT,2
METRIC
; #@! TA.AperFunction,Plated,PTH,ComponentDrill
T1C0.800
; #@! TA.AperFunction,Plated,PTH,ComponentDrill
T2C0.900
; #@! TA.AperFunction,Plated,PTH,ComponentDrill
T3C1.000
; #@! TA.AperFunction,Plated,PTH,ComponentDrill
T4C2.300
; #@! TA.AperFunction,Plated,PTH,ComponentDrill
T5C2.500
; #@! TA.AperFunction,Plated,PTH,ComponentDrill
T6C3.000
; #@! TA.AperFunction,Plated,PTH,ComponentDrill
T7C3.200
%
G90
G05
T1
X129.92Y-66.5
X140.08Y-66.5
X143.42Y-66.5
X153.58Y-66.5
X156.92Y-66.5
X167.08Y-66.5
T2
X120.46Y-58.0
X123.0Y-58.0
X126.96Y-58.0
X129.5Y-58.0
X133.23Y-58.0
X135.77Y-58.0
T3
X121.75Y-79.19
X121.75Y-81.96
X121.75Y-84.73
X121.75Y-87.5
X124.59Y-77.805
X124.59Y-80.575
X124.59Y-83.345
X124.59Y-86.115
X124.59Y-88.885
X135.46Y-74.5
X135.74Y-92.5
X138.0Y-74.5
X138.28Y-92.5
X140.54Y-74.5
X140.82Y-92.5
X143.08Y-74.5
X143.36Y-92.5
X145.62Y-74.5
X145.9Y-92.5
X148.16Y-74.5
X148.44Y-92.5
X150.7Y-74.5
X150.98Y-92.5
X153.24Y-74.5
X153.52Y-92.5
X155.78Y-74.5
X156.06Y-92.5
X158.32Y-74.5
X158.6Y-92.5
X160.86Y-74.5
X161.14Y-92.5
X163.4Y-74.5
X163.68Y-92.5
X165.94Y-74.5
X166.22Y-92.5
X168.48Y-74.5
X168.76Y-92.5
X171.02Y-74.5
X171.3Y-92.5
X173.56Y-74.5
X173.84Y-92.5
X176.1Y-74.5
X176.38Y-92.5
X178.64Y-74.5
X178.92Y-92.5
X181.18Y-74.5
X181.46Y-92.5
X183.72Y-74.5
X184.0Y-92.5
T4
X177.5Y-56.0
T5
X173.0Y-55.0
X182.0Y-55.0
T6
X177.5Y-62.0
T7
X123.17Y-70.845
X123.17Y-95.845
M30
